# WaveFront *.obj file (generated by Autodesk ATF)

mtllib Van v1_Van v1_Body48.mtl

g Body48

v -25.000000 63.100911 28.529641
v -25.000000 63.194768 28.564153
v -25.000000 53.531654 54.843883
v -25.000000 53.437797 54.809372
v -46.000000 53.531654 54.843883
v -46.000000 53.437797 54.809372
v -46.000000 63.100911 28.529641
v -46.000000 63.194768 28.564153
vt 5.538517 3.108443 0.000000
vt 6.504828 0.480470 0.000000
vt 5.547903 3.111894 0.000000
vt 6.514214 0.483921 0.000000
vt -2.100000 0.010000 0.000000
vt -4.200000 0.010000 0.000000
vt -2.100000 0.000000 0.000000
vt -4.200000 0.000000 0.000000
vt -0.000000 1.400000 0.000000
vt -2.100000 1.400000 0.000000
vt -0.000000 -1.400000 0.000000
vt -2.100000 -1.400000 0.000000
vt -2.800000 -0.000000 0.000000
vt -0.000000 0.000000 0.000000
vt -2.800000 0.010000 0.000000
vt 0.000000 0.010000 0.000000
vt -2.100000 0.000000 0.000000
vt -0.000000 0.000000 0.000000
vt -2.100000 0.010000 0.000000
vt -0.000000 0.010000 0.000000
vt -1.400000 0.000000 0.000000
vt 1.400000 0.000000 0.000000
vt -1.400000 2.100000 0.000000
vt 1.400000 2.100000 0.000000
vn 0.100000 0.000000 0.000000
vn 0.100000 0.000000 0.000000
vn 0.100000 0.000000 0.000000
vn 0.100000 0.000000 0.000000
vn 0.000000 -0.034511 0.093856
vn 0.000000 -0.034511 0.093856
vn 0.000000 -0.034511 0.093856
vn 0.000000 -0.034511 0.093856
vn 0.000000 -0.093856 -0.034511
vn 0.000000 -0.093856 -0.034511
vn 0.000000 -0.093856 -0.034511
vn 0.000000 -0.093856 -0.034511
vn -0.100000 0.000000 0.000000
vn -0.100000 0.000000 0.000000
vn -0.100000 0.000000 0.000000
vn -0.100000 0.000000 0.000000
vn 0.000000 0.034511 -0.093856
vn 0.000000 0.034511 -0.093856
vn 0.000000 0.034511 -0.093856
vn 0.000000 0.034511 -0.093856
vn 0.000000 0.093856 0.034511
vn 0.000000 0.093856 0.034511
vn 0.000000 0.093856 0.034511
vn 0.000000 0.093856 0.034511
usemtl Steel_-_Satin
f 2/1/1 3/2/2 1/3/3
f 1/3/3 3/2/2 4/4/4
f 3/5/5 5/6/6 4/7/7
f 4/7/7 5/6/6 6/8/8
f 4/9/9 6/10/10 1/11/11
f 1/11/11 6/10/10 7/12/12
f 7/13/13 6/14/14 8/15/15
f 8/15/15 6/14/14 5/16/16
f 1/17/17 7/18/18 2/19/19
f 2/19/19 7/18/18 8/20/20
f 3/21/21 2/22/22 5/23/23
f 5/23/23 2/22/22 8/24/24
# 8 vertices
# 24 texture params
# 24 normals
# 12 facets

# 1 groups
