# WaveFront *.obj file (generated by Autodesk ATF)

mtllib Van v1_Van v1_Body17.mtl

g Body17

v -25.000000 -83.033953 2.000000
v -25.000000 -78.033953 2.000000
v -25.000000 -78.033953 0.000000
v -25.000000 -83.033953 0.000000
v -3.000000 -78.033953 0.000000
v -3.181228 -78.447924 0.000000
v -3.385541 -78.851001 0.000000
v -3.612288 -79.241898 0.000000
v -3.860746 -79.619369 0.000000
v -4.130121 -79.982208 0.000000
v -4.419554 -80.329257 0.000000
v -4.728121 -80.659411 0.000000
v -5.054838 -80.971614 0.000000
v -5.398663 -81.264871 0.000000
v -5.758498 -81.538246 0.000000
v -6.133195 -81.790867 0.000000
v -6.521559 -82.021927 0.000000
v -6.922349 -82.230690 0.000000
v -7.334289 -82.416488 0.000000
v -7.756062 -82.578731 0.000000
v -8.186323 -82.716899 0.000000
v -8.623699 -82.830551 0.000000
v -9.066795 -82.919326 0.000000
v -9.514197 -82.982940 0.000000
v -9.964477 -83.021189 0.000000
v -10.416199 -83.033953 0.000000
v -3.000000 -78.033953 2.000000
v -10.416199 -83.033953 2.000000
v -9.964477 -83.021189 2.000000
v -9.514197 -82.982940 2.000000
v -9.066795 -82.919326 2.000000
v -8.623699 -82.830551 2.000000
v -8.186323 -82.716899 2.000000
v -7.756062 -82.578731 2.000000
v -7.334289 -82.416488 2.000000
v -6.922349 -82.230690 2.000000
v -6.521559 -82.021927 2.000000
v -6.133195 -81.790867 2.000000
v -5.758498 -81.538246 2.000000
v -5.398663 -81.264871 2.000000
v -5.054838 -80.971614 2.000000
v -4.728121 -80.659411 2.000000
v -4.419554 -80.329257 2.000000
v -4.130121 -79.982208 2.000000
v -3.860746 -79.619369 2.000000
v -3.612288 -79.241898 2.000000
v -3.385541 -78.851001 2.000000
v -3.181228 -78.447924 2.000000
vt -20.161389 5.764858 0.000000
vt -19.661389 5.764858 0.000000
vt -20.161389 5.964858 0.000000
vt -19.661389 5.964858 0.000000
vt 2.200000 0.500000 0.000000
vt 2.200000 0.000000 0.000000
vt 3.658380 0.500000 0.000000
vt 4.124150 0.350429 0.000000
vt 4.086681 0.375691 0.000000
vt 4.400000 0.000000 0.000000
vt 4.381877 0.041397 0.000000
vt 4.361446 0.081705 0.000000
vt 4.338771 0.120795 0.000000
vt 4.313926 0.158542 0.000000
vt 4.286988 0.194825 0.000000
vt 4.258045 0.229530 0.000000
vt 4.227188 0.262546 0.000000
vt 4.194516 0.293766 0.000000
vt 4.160134 0.323092 0.000000
vt 4.047844 0.398797 0.000000
vt 4.007765 0.419674 0.000000
vt 3.966571 0.438254 0.000000
vt 3.924394 0.454478 0.000000
vt 3.881368 0.468295 0.000000
vt 3.837630 0.479660 0.000000
vt 3.793321 0.488537 0.000000
vt 3.748580 0.494899 0.000000
vt 3.703552 0.498724 0.000000
vt -0.000000 0.100000 0.000000
vt -2.200000 0.100000 0.000000
vt -0.000000 -0.100000 0.000000
vt -2.200000 -0.100000 0.000000
vt 2.200000 0.500000 0.000000
vt 0.741620 0.500000 0.000000
vt 2.200000 0.000000 0.000000
vt 0.275850 0.350429 0.000000
vt 0.239866 0.323092 0.000000
vt 0.696448 0.498724 0.000000
vt 0.651420 0.494899 0.000000
vt 0.606680 0.488537 0.000000
vt 0.562370 0.479660 0.000000
vt 0.518632 0.468295 0.000000
vt 0.475606 0.454478 0.000000
vt 0.433429 0.438254 0.000000
vt 0.392235 0.419674 0.000000
vt 0.352156 0.398797 0.000000
vt 0.313320 0.375691 0.000000
vt 0.205484 0.293766 0.000000
vt 0.172812 0.262546 0.000000
vt 0.141955 0.229530 0.000000
vt 0.113012 0.194825 0.000000
vt 0.086075 0.158542 0.000000
vt 0.061229 0.120795 0.000000
vt 0.038554 0.081705 0.000000
vt 0.018123 0.041397 0.000000
vt -0.000000 0.000000 0.000000
vt -0.100000 0.000000 0.000000
vt 0.100000 0.000000 0.000000
vt -0.100000 1.458380 0.000000
vt 0.100000 1.458380 0.000000
vt -0.200000 -0.000000 0.000000
vt -0.000000 -0.000000 0.000000
vt -0.200000 0.045196 0.000000
vt -0.000000 0.045196 0.000000
vt -0.200000 0.090392 0.000000
vt -0.000000 0.090392 0.000000
vt -0.200000 0.135589 0.000000
vt -0.000000 0.135589 0.000000
vt -0.200000 0.180785 0.000000
vt -0.000000 0.180785 0.000000
vt -0.200000 0.225981 0.000000
vt -0.000000 0.225981 0.000000
vt -0.200000 0.271177 0.000000
vt -0.000000 0.271177 0.000000
vt -0.200000 0.316373 0.000000
vt -0.000000 0.316373 0.000000
vt -0.200000 0.361569 0.000000
vt -0.000000 0.361569 0.000000
vt -0.200000 0.406766 0.000000
vt -0.000000 0.406766 0.000000
vt -0.200000 0.451962 0.000000
vt -0.000000 0.451962 0.000000
vt -0.200000 0.497158 0.000000
vt -0.000000 0.497158 0.000000
vt -0.200000 0.542354 0.000000
vt -0.000000 0.542354 0.000000
vt -0.200000 0.587550 0.000000
vt -0.000000 0.587550 0.000000
vt -0.200000 0.632746 0.000000
vt -0.000000 0.632746 0.000000
vt -0.200000 0.677943 0.000000
vt -0.000000 0.677943 0.000000
vt -0.200000 0.723139 0.000000
vt -0.000000 0.723139 0.000000
vt -0.200000 0.768335 0.000000
vt -0.000000 0.768335 0.000000
vt -0.200000 0.813531 0.000000
vt -0.000000 0.813531 0.000000
vt -0.200000 0.858727 0.000000
vt -0.000000 0.858727 0.000000
vt -0.200000 0.903923 0.000000
vt -0.000000 0.903923 0.000000
vt -0.200000 0.949120 0.000000
vt 0.000000 0.949120 0.000000
vn -0.100000 0.000000 -0.000000
vn -0.100000 0.000000 -0.000000
vn -0.100000 0.000000 -0.000000
vn -0.100000 0.000000 -0.000000
vn 0.000000 0.000000 -0.100000
vn 0.000000 0.000000 -0.100000
vn 0.000000 0.000000 -0.100000
vn 0.000000 0.000000 -0.100000
vn 0.000000 0.000000 -0.100000
vn 0.000000 0.000000 -0.100000
vn 0.000000 0.000000 -0.100000
vn 0.000000 0.000000 -0.100000
vn 0.000000 0.000000 -0.100000
vn 0.000000 0.000000 -0.100000
vn 0.000000 0.000000 -0.100000
vn 0.000000 0.000000 -0.100000
vn 0.000000 0.000000 -0.100000
vn 0.000000 0.000000 -0.100000
vn 0.000000 0.000000 -0.100000
vn 0.000000 0.000000 -0.100000
vn 0.000000 0.000000 -0.100000
vn 0.000000 0.000000 -0.100000
vn 0.000000 0.000000 -0.100000
vn 0.000000 0.000000 -0.100000
vn 0.000000 0.000000 -0.100000
vn 0.000000 0.000000 -0.100000
vn 0.000000 0.000000 -0.100000
vn 0.000000 0.000000 -0.100000
vn -0.000000 0.100000 -0.000000
vn -0.000000 0.100000 -0.000000
vn -0.000000 0.100000 -0.000000
vn -0.000000 0.100000 -0.000000
vn 0.000000 0.000000 0.100000
vn 0.000000 0.000000 0.100000
vn 0.000000 0.000000 0.100000
vn 0.000000 0.000000 0.100000
vn 0.000000 0.000000 0.100000
vn 0.000000 0.000000 0.100000
vn 0.000000 0.000000 0.100000
vn 0.000000 0.000000 0.100000
vn 0.000000 0.000000 0.100000
vn 0.000000 0.000000 0.100000
vn 0.000000 0.000000 0.100000
vn 0.000000 0.000000 0.100000
vn 0.000000 0.000000 0.100000
vn 0.000000 0.000000 0.100000
vn 0.000000 0.000000 0.100000
vn 0.000000 0.000000 0.100000
vn 0.000000 0.000000 0.100000
vn 0.000000 0.000000 0.100000
vn 0.000000 0.000000 0.100000
vn 0.000000 0.000000 0.100000
vn 0.000000 0.000000 0.100000
vn 0.000000 0.000000 0.100000
vn 0.000000 0.000000 0.100000
vn 0.000000 0.000000 0.100000
vn 0.000000 -0.100000 0.000000
vn 0.000000 -0.100000 0.000000
vn 0.000000 -0.100000 0.000000
vn 0.000000 -0.100000 0.000000
vn 0.092702 -0.037500 0.000000
vn 0.092702 -0.037500 0.000000
vn 0.090437 -0.042675 0.000000
vn 0.090437 -0.042675 0.000000
vn 0.087883 -0.047713 0.000000
vn 0.087883 -0.047713 0.000000
vn 0.085049 -0.052599 0.000000
vn 0.085049 -0.052599 0.000000
vn 0.081943 -0.057318 0.000000
vn 0.081943 -0.057318 0.000000
vn 0.078576 -0.061853 0.000000
vn 0.078576 -0.061853 0.000000
vn 0.074958 -0.066191 0.000000
vn 0.074958 -0.066191 0.000000
vn 0.071101 -0.070318 0.000000
vn 0.071101 -0.070318 0.000000
vn 0.067017 -0.074221 0.000000
vn 0.067017 -0.074221 0.000000
vn 0.062719 -0.077886 0.000000
vn 0.062719 -0.077886 0.000000
vn 0.058221 -0.081304 0.000000
vn 0.058221 -0.081304 0.000000
vn 0.053538 -0.084461 0.000000
vn 0.053538 -0.084461 0.000000
vn 0.048683 -0.087350 0.000000
vn 0.048683 -0.087350 0.000000
vn 0.043673 -0.089959 0.000000
vn 0.043673 -0.089959 0.000000
vn 0.038524 -0.092282 0.000000
vn 0.038524 -0.092282 0.000000
vn 0.033252 -0.094310 0.000000
vn 0.033252 -0.094310 0.000000
vn 0.027873 -0.096037 0.000000
vn 0.027873 -0.096037 0.000000
vn 0.022406 -0.097457 0.000000
vn 0.022406 -0.097457 0.000000
vn 0.016868 -0.098567 0.000000
vn 0.016868 -0.098567 0.000000
vn 0.011275 -0.099362 0.000000
vn 0.011275 -0.099362 0.000000
vn 0.005647 -0.099840 0.000000
vn 0.005647 -0.099840 0.000000
usemtl Steel_-_Satin
f 1/1/1 2/2/2 4/3/3
f 4/3/3 2/2/2 3/4/4
f 4/5/5 3/6/6 26/7/7
f 26/7/7 3/6/6 15/8/8
f 26/7/7 15/8/8 16/9/9
f 5/10/10 6/11/11 3/6/6
f 3/6/6 6/11/11 7/12/12
f 3/6/6 7/12/12 8/13/13
f 8/13/13 9/14/14 3/6/6
f 3/6/6 9/14/14 10/15/15
f 3/6/6 10/15/15 11/16/16
f 11/16/16 12/17/17 3/6/6
f 3/6/6 12/17/17 13/18/18
f 3/6/6 13/18/18 14/19/19
f 14/19/19 15/8/8 3/6/6
f 16/9/9 17/20/20 26/7/7
f 26/7/7 17/20/20 18/21/21
f 26/7/7 18/21/21 19/22/22
f 19/22/22 20/23/23 26/7/7
f 26/7/7 20/23/23 21/24/24
f 26/7/7 21/24/24 22/25/25
f 22/25/25 23/26/26 26/7/7
f 26/7/7 23/26/26 24/27/27
f 26/7/7 24/27/27 25/28/28
f 2/29/29 27/30/30 3/31/31
f 3/31/31 27/30/30 5/32/32
f 1/33/33 28/34/34 2/35/35
f 2/35/35 28/34/34 39/36/36
f 2/35/35 39/36/36 40/37/37
f 29/38/38 30/39/39 28/34/34
f 28/34/34 30/39/39 31/40/40
f 28/34/34 31/40/40 32/41/41
f 32/41/41 33/42/42 28/34/34
f 28/34/34 33/42/42 34/43/43
f 28/34/34 34/43/43 35/44/44
f 35/44/44 36/45/45 28/34/34
f 28/34/34 36/45/45 37/46/46
f 28/34/34 37/46/46 38/47/47
f 38/47/47 39/36/36 28/34/34
f 40/37/37 41/48/48 2/35/35
f 2/35/35 41/48/48 42/49/49
f 2/35/35 42/49/49 43/50/50
f 43/50/50 44/51/51 2/35/35
f 2/35/35 44/51/51 45/52/52
f 2/35/35 45/52/52 46/53/53
f 46/53/53 47/54/54 2/35/35
f 2/35/35 47/54/54 48/55/55
f 2/35/35 48/55/55 27/56/56
f 1/57/57 4/58/58 28/59/59
f 28/59/59 4/58/58 26/60/60
f 5/61/61 27/62/62 6/63/63
f 6/63/63 27/62/62 48/64/64
f 6/63/63 48/64/64 7/65/65
f 7/65/65 48/64/64 47/66/66
f 7/65/65 47/66/66 8/67/67
f 8/67/67 47/66/66 46/68/68
f 8/67/67 46/68/68 9/69/69
f 9/69/69 46/68/68 45/70/70
f 9/69/69 45/70/70 10/71/71
f 10/71/71 45/70/70 44/72/72
f 10/71/71 44/72/72 11/73/73
f 11/73/73 44/72/72 43/74/74
f 11/73/73 43/74/74 12/75/75
f 12/75/75 43/74/74 42/76/76
f 12/75/75 42/76/76 13/77/77
f 13/77/77 42/76/76 41/78/78
f 13/77/77 41/78/78 14/79/79
f 14/79/79 41/78/78 40/80/80
f 14/79/79 40/80/80 15/81/81
f 15/81/81 40/80/80 39/82/82
f 15/81/81 39/82/82 16/83/83
f 16/83/83 39/82/82 38/84/84
f 16/83/83 38/84/84 17/85/85
f 17/85/85 38/84/84 37/86/86
f 17/85/85 37/86/86 18/87/87
f 18/87/87 37/86/86 36/88/88
f 18/87/87 36/88/88 19/89/89
f 19/89/89 36/88/88 35/90/90
f 19/89/89 35/90/90 20/91/91
f 20/91/91 35/90/90 34/92/92
f 20/91/91 34/92/92 21/93/93
f 21/93/93 34/92/92 33/94/94
f 21/93/93 33/94/94 22/95/95
f 22/95/95 33/94/94 32/96/96
f 22/95/95 32/96/96 23/97/97
f 23/97/97 32/96/96 31/98/98
f 23/97/97 31/98/98 24/99/99
f 24/99/99 31/98/98 30/100/100
f 24/99/99 30/100/100 25/101/101
f 25/101/101 30/100/100 29/102/102
f 25/101/101 29/102/102 26/103/60
f 26/103/60 29/102/102 28/104/59
# 48 vertices
# 104 texture params
# 102 normals
# 92 facets

# 1 groups
