# WaveFront *.obj file (generated by Autodesk ATF)

mtllib Van v1_Van v1_Body13.mtl

g Body13

v -16.613598 -78.033953 28.000000
v -16.613598 -78.033953 26.857152
v -16.613598 -79.033953 26.857152
v -16.613598 -79.033953 28.000000
v -23.000000 -78.033953 28.000000
v -23.000000 -79.033953 28.000000
v -23.000000 -78.033953 26.857152
v -23.000000 -79.033953 26.857152
v -2.203629 -78.033953 56.000001
v -2.203629 -78.033953 32.691555
v -2.203629 -79.033953 32.691555
v -2.203629 -79.033953 56.000001
v -23.000000 -78.033953 56.000001
v -23.000000 -79.033953 56.000001
v -23.000000 -78.033953 32.691555
v -23.000000 -79.033953 32.691555
v -24.120989 -78.033953 57.000001
v -24.120989 -78.033953 3.000000
v -24.120989 -79.033953 3.000000
v -24.120989 -79.033953 57.000001
v -1.000000 -78.033953 57.000001
v -1.000000 -79.033953 57.000001
v -1.000000 -78.033953 3.000000
v -1.000000 -79.033953 3.000000
vt 0.000000 0.000000 0.000000
vt 0.114285 0.000000 0.000000
vt 0.000000 0.100000 0.000000
vt 0.114285 0.100000 0.000000
vt 0.000000 0.000000 0.000000
vt 0.638640 0.000000 0.000000
vt 0.000000 0.100000 0.000000
vt 0.638640 0.100000 0.000000
vt 0.000000 0.000000 0.000000
vt 0.114285 0.000000 0.000000
vt 0.000000 0.100000 0.000000
vt 0.114285 0.100000 0.000000
vt 0.000000 0.000000 0.000000
vt 0.638640 0.000000 0.000000
vt 0.000000 0.100000 0.000000
vt 0.638640 0.100000 0.000000
vt 0.000000 0.000000 0.000000
vt 2.330845 0.000000 0.000000
vt 0.000000 0.100000 0.000000
vt 2.330845 0.100000 0.000000
vt 0.000000 0.000000 0.000000
vt 2.079637 0.000000 0.000000
vt 0.000000 0.100000 0.000000
vt 2.079637 0.100000 0.000000
vt 0.000000 0.000000 0.000000
vt 2.330845 0.000000 0.000000
vt 0.000000 0.100000 0.000000
vt 2.330845 0.100000 0.000000
vt 0.000000 0.000000 0.000000
vt 2.079637 0.000000 0.000000
vt 0.000000 0.100000 0.000000
vt 2.079637 0.100000 0.000000
vt -0.000000 0.000000 0.000000
vt 5.400000 0.000000 0.000000
vt 0.000000 0.100000 0.000000
vt 5.400000 0.100000 0.000000
vt -0.000000 0.000000 0.000000
vt 2.312099 0.000000 0.000000
vt 0.000000 0.100000 0.000000
vt 2.312099 0.100000 0.000000
vt 0.000000 0.000000 0.000000
vt 5.400000 0.000000 0.000000
vt 0.000000 0.100000 0.000000
vt 5.400000 0.100000 0.000000
vt 0.000000 0.000000 0.000000
vt 2.312099 0.000000 0.000000
vt 0.000000 0.100000 0.000000
vt 2.312099 0.100000 0.000000
vt -0.269155 -1.043951 0.000000
vt 0.200000 -0.405310 0.000000
vt -0.269155 1.035687 0.000000
vt 0.314285 -0.405310 0.000000
vt 2.700000 1.156049 0.000000
vt 2.700000 -1.156049 0.000000
vt 0.314285 -1.043951 0.000000
vt 0.200000 -1.043951 0.000000
vt -2.600000 -1.043951 0.000000
vt -2.700000 -1.156049 0.000000
vt -2.600000 1.035687 0.000000
vt -2.700000 1.156049 0.000000
vt -1.035687 0.269155 0.000000
vt 0.405310 -0.200000 0.000000
vt 1.043951 0.269155 0.000000
vt 1.043951 -0.200000 0.000000
vt 1.156049 2.700000 0.000000
vt 1.156049 -2.700000 0.000000
vt 1.043951 -0.314285 0.000000
vt 0.405310 -0.314285 0.000000
vt -1.035687 2.600000 0.000000
vt -1.156049 2.700000 0.000000
vt -1.156049 -2.700000 0.000000
vt 1.043951 2.600000 0.000000
vn -0.100000 0.000000 0.000000
vn -0.100000 0.000000 0.000000
vn -0.100000 0.000000 0.000000
vn -0.100000 0.000000 0.000000
vn 0.000000 0.000000 -0.100000
vn 0.000000 0.000000 -0.100000
vn 0.000000 0.000000 -0.100000
vn 0.000000 0.000000 -0.100000
vn 0.100000 0.000000 0.000000
vn 0.100000 0.000000 0.000000
vn 0.100000 0.000000 0.000000
vn 0.100000 0.000000 0.000000
vn 0.000000 0.000000 0.100000
vn 0.000000 0.000000 0.100000
vn 0.000000 0.000000 0.100000
vn 0.000000 0.000000 0.100000
vn -0.100000 0.000000 0.000000
vn -0.100000 0.000000 0.000000
vn -0.100000 0.000000 0.000000
vn -0.100000 0.000000 0.000000
vn 0.000000 0.000000 -0.100000
vn 0.000000 0.000000 -0.100000
vn 0.000000 0.000000 -0.100000
vn 0.000000 0.000000 -0.100000
vn 0.100000 0.000000 0.000000
vn 0.100000 0.000000 0.000000
vn 0.100000 0.000000 0.000000
vn 0.100000 0.000000 0.000000
vn 0.000000 0.000000 0.100000
vn 0.000000 0.000000 0.100000
vn 0.000000 0.000000 0.100000
vn 0.000000 0.000000 0.100000
vn -0.100000 0.000000 0.000000
vn -0.100000 0.000000 0.000000
vn -0.100000 0.000000 0.000000
vn -0.100000 0.000000 0.000000
vn 0.000000 0.000000 0.100000
vn 0.000000 0.000000 0.100000
vn 0.000000 0.000000 0.100000
vn 0.000000 0.000000 0.100000
vn 0.100000 0.000000 0.000000
vn 0.100000 0.000000 0.000000
vn 0.100000 0.000000 0.000000
vn 0.100000 0.000000 0.000000
vn 0.000000 0.000000 -0.100000
vn 0.000000 0.000000 -0.100000
vn 0.000000 0.000000 -0.100000
vn 0.000000 0.000000 -0.100000
vn 0.000000 -0.100000 0.000000
vn 0.000000 -0.100000 0.000000
vn 0.000000 -0.100000 0.000000
vn 0.000000 -0.100000 0.000000
vn 0.000000 -0.100000 0.000000
vn 0.000000 -0.100000 0.000000
vn 0.000000 -0.100000 0.000000
vn 0.000000 -0.100000 0.000000
vn 0.000000 -0.100000 0.000000
vn 0.000000 -0.100000 0.000000
vn 0.000000 -0.100000 0.000000
vn 0.000000 -0.100000 0.000000
vn -0.000000 0.100000 -0.000000
vn -0.000000 0.100000 -0.000000
vn -0.000000 0.100000 -0.000000
vn -0.000000 0.100000 -0.000000
vn -0.000000 0.100000 -0.000000
vn -0.000000 0.100000 -0.000000
vn -0.000000 0.100000 -0.000000
vn -0.000000 0.100000 -0.000000
vn -0.000000 0.100000 -0.000000
vn -0.000000 0.100000 -0.000000
vn -0.000000 0.100000 -0.000000
vn -0.000000 0.100000 -0.000000
usemtl Steel_-_Satin
f 1/1/1 2/2/2 4/3/3
f 4/3/3 2/2/2 3/4/4
f 5/5/5 1/6/6 6/7/7
f 6/7/7 1/6/6 4/8/8
f 7/9/9 5/10/10 8/11/11
f 8/11/11 5/10/10 6/12/12
f 2/13/13 7/14/14 3/15/15
f 3/15/15 7/14/14 8/16/16
f 9/17/17 10/18/18 12/19/19
f 12/19/19 10/18/18 11/20/20
f 13/21/21 9/22/22 14/23/23
f 14/23/23 9/22/22 12/24/24
f 15/25/25 13/26/26 16/27/27
f 16/27/27 13/26/26 14/28/28
f 10/29/29 15/30/30 11/31/31
f 11/31/31 15/30/30 16/32/32
f 17/33/33 18/34/34 20/35/35
f 20/35/35 18/34/34 19/36/36
f 21/37/37 17/38/38 22/39/39
f 22/39/39 17/38/38 20/40/40
f 23/41/41 21/42/42 24/43/43
f 24/43/43 21/42/42 22/44/44
f 18/45/45 23/46/46 19/47/47
f 19/47/47 23/46/46 24/48/48
f 16/49/49 4/50/50 11/51/51
f 11/51/51 4/50/50 3/52/52
f 11/51/51 3/52/52 24/53/53
f 24/53/53 3/52/52 19/54/54
f 19/54/54 3/52/52 8/55/55
f 19/54/54 8/55/55 6/56/56
f 14/57/57 20/58/58 16/49/49
f 16/49/49 20/58/58 6/56/56
f 16/49/49 6/56/56 4/50/50
f 14/57/57 12/59/59 20/58/58
f 20/58/58 12/59/59 22/60/60
f 22/60/60 12/59/59 11/51/51
f 22/60/60 11/51/51 24/53/53
f 20/58/58 19/54/54 6/56/56
f 10/61/61 1/62/62 15/63/63
f 15/63/63 1/62/62 5/64/64
f 15/63/63 5/64/64 17/65/65
f 17/65/65 5/64/64 18/66/66
f 18/66/66 5/64/64 7/67/67
f 18/66/66 7/67/67 2/68/68
f 9/69/69 21/70/70 10/61/61
f 10/61/61 21/70/70 23/71/71
f 10/61/61 23/71/71 2/68/68
f 2/68/68 23/71/71 18/66/66
f 21/70/70 9/69/69 17/65/65
f 17/65/65 9/69/69 13/72/72
f 17/65/65 13/72/72 15/63/63
f 2/68/68 1/62/62 10/61/61
# 24 vertices
# 72 texture params
# 72 normals
# 52 facets

# 1 groups
