# WaveFront *.obj file (generated by Autodesk ATF)

mtllib Van v1_Van v1_Body22.mtl

g Body22

v 0.000000 48.000001 54.000001
v 0.000000 47.546477 54.026380
v 0.000000 47.099714 54.050919
v 0.000000 46.659722 54.073613
v 0.000000 46.226520 54.094459
v 0.000000 45.800131 54.113447
v 0.000000 45.380585 54.130569
v 0.000000 44.967917 54.145812
v 0.000000 44.562165 54.159163
v 0.000000 44.163369 54.170605
v 0.000000 43.771574 54.180122
v 0.000000 43.386822 54.187692
v 0.000000 43.009157 54.193297
v 0.000000 42.638625 54.196911
v 0.000000 42.275264 54.198512
v 0.000000 41.919113 54.198074
v 0.000000 41.570206 54.195569
v 0.000000 41.228570 54.190971
v 0.000000 40.894225 54.184250
v 0.000000 40.567183 54.175378
v 0.000000 40.247445 54.164326
v 0.000000 39.934999 54.151062
v 0.000000 39.629825 54.135559
v 0.000000 39.331882 54.117787
v 0.000000 39.041120 54.097716
v 0.000000 38.757464 54.075320
v 0.000000 38.480820 54.050571
v 0.000000 38.211072 54.023445
v 0.000000 37.948076 53.993919
v 0.000000 37.691665 53.961972
v 0.000000 37.441647 53.927586
v 0.000000 36.959902 53.851434
v 0.000000 36.500857 53.765358
v 0.000000 36.062272 53.669287
v 0.000000 35.641755 53.563174
v 0.000000 35.236853 53.446995
v 0.000000 34.845127 53.320749
v 0.000000 34.464240 53.184460
v 0.000000 34.092045 53.038178
v 0.000000 33.726662 52.881977
v 0.000000 33.366546 52.715965
v 0.000000 33.010491 52.540270
v 0.000000 32.657586 52.355035
v 0.000000 32.307174 52.160401
v 0.000000 31.958807 51.956502
v 0.000000 31.612208 51.743453
v 0.000000 31.267227 51.521343
v 0.000000 30.923804 51.290231
v 0.100000 30.923804 51.290231
v 0.100000 31.267227 51.521343
v 0.100000 31.612208 51.743453
v 0.100000 31.958807 51.956502
v 0.100000 32.307174 52.160401
v 0.100000 32.657586 52.355035
v 0.100000 33.010491 52.540270
v 0.100000 33.366546 52.715965
v 0.100000 33.726662 52.881977
v 0.100000 34.092045 53.038178
v 0.100000 34.464240 53.184460
v 0.100000 34.845127 53.320749
v 0.100000 35.236853 53.446995
v 0.100000 35.641755 53.563174
v 0.100000 36.062272 53.669287
v 0.100000 36.500857 53.765358
v 0.100000 36.959902 53.851434
v 0.100000 37.441647 53.927586
v 0.100000 37.691665 53.961972
v 0.100000 37.948076 53.993919
v 0.100000 38.211072 54.023445
v 0.100000 38.480820 54.050571
v 0.100000 38.757464 54.075320
v 0.100000 39.041120 54.097716
v 0.100000 39.331882 54.117787
v 0.100000 39.629825 54.135559
v 0.100000 39.934999 54.151062
v 0.100000 40.247445 54.164326
v 0.100000 40.567183 54.175378
v 0.100000 40.894225 54.184250
v 0.100000 41.228570 54.190971
v 0.100000 41.570206 54.195569
v 0.100000 41.919113 54.198074
v 0.100000 42.275264 54.198512
v 0.100000 42.638625 54.196911
v 0.100000 43.009157 54.193297
v 0.100000 43.386822 54.187692
v 0.100000 43.771574 54.180122
v 0.100000 44.163369 54.170605
v 0.100000 44.562165 54.159163
v 0.100000 44.967917 54.145812
v 0.100000 45.380585 54.130569
v 0.100000 45.800131 54.113447
v 0.100000 46.226520 54.094459
v 0.100000 46.659722 54.073613
v 0.100000 47.099714 54.050919
v 0.100000 47.546477 54.026380
v 0.100000 48.000001 54.000001
v 0.000000 48.406438 31.000000
v 0.100000 48.406438 31.000000
v 0.000000 30.923804 28.417694
v 0.100000 30.923804 28.417694
vt -1.526244 0.000000 0.000000
vt -1.502396 0.000000 0.000000
vt -1.526244 0.010000 0.000000
vt -1.502396 0.010000 0.000000
vt -1.478549 0.000000 0.000000
vt -1.478549 0.010000 0.000000
vt -1.454701 0.000000 0.000000
vt -1.454701 0.010000 0.000000
vt -1.430854 0.000000 0.000000
vt -1.430854 0.010000 0.000000
vt -1.407006 0.000000 0.000000
vt -1.407006 0.010000 0.000000
vt -1.383158 0.000000 0.000000
vt -1.383158 0.010000 0.000000
vt -1.359311 0.000000 0.000000
vt -1.359311 0.010000 0.000000
vt -1.335463 0.000000 0.000000
vt -1.335463 0.010000 0.000000
vt -1.311616 0.000000 0.000000
vt -1.311616 0.010000 0.000000
vt -1.287768 0.000000 0.000000
vt -1.287768 0.010000 0.000000
vt -1.263921 0.000000 0.000000
vt -1.263921 0.010000 0.000000
vt -1.240073 0.000000 0.000000
vt -1.240073 0.010000 0.000000
vt -1.216226 0.000000 0.000000
vt -1.216226 0.010000 0.000000
vt -1.192378 0.000000 0.000000
vt -1.192378 0.010000 0.000000
vt -1.168530 0.000000 0.000000
vt -1.168530 0.010000 0.000000
vt -1.144683 0.000000 0.000000
vt -1.144683 0.010000 0.000000
vt -1.120835 0.000000 0.000000
vt -1.120835 0.010000 0.000000
vt -1.096988 0.000000 0.000000
vt -1.096988 0.010000 0.000000
vt -1.073140 0.000000 0.000000
vt -1.073140 0.010000 0.000000
vt -1.049293 0.000000 0.000000
vt -1.049293 0.010000 0.000000
vt -1.025445 0.000000 0.000000
vt -1.025445 0.010000 0.000000
vt -1.001597 0.000000 0.000000
vt -1.001597 0.010000 0.000000
vt -0.977750 0.000000 0.000000
vt -0.977750 0.010000 0.000000
vt -0.953902 0.000000 0.000000
vt -0.953902 0.010000 0.000000
vt -0.930055 0.000000 0.000000
vt -0.930055 0.010000 0.000000
vt -0.906207 0.000000 0.000000
vt -0.906207 0.010000 0.000000
vt -0.882360 0.000000 0.000000
vt -0.882360 0.010000 0.000000
vt -0.858512 0.000000 0.000000
vt -0.858512 0.010000 0.000000
vt -0.834665 0.000000 0.000000
vt -0.834665 0.010000 0.000000
vt -0.810817 0.000000 0.000000
vt -0.810817 0.010000 0.000000
vt -0.763122 0.000000 0.000000
vt -0.763122 0.010000 0.000000
vt -0.715427 0.000000 0.000000
vt -0.715427 0.010000 0.000000
vt -0.667732 0.000000 0.000000
vt -0.667732 0.010000 0.000000
vt -0.620037 0.000000 0.000000
vt -0.620037 0.010000 0.000000
vt -0.572341 0.000000 0.000000
vt -0.572341 0.010000 0.000000
vt -0.524646 0.000000 0.000000
vt -0.524646 0.010000 0.000000
vt -0.476951 0.000000 0.000000
vt -0.476951 0.010000 0.000000
vt -0.429256 0.000000 0.000000
vt -0.429256 0.010000 0.000000
vt -0.381561 0.000000 0.000000
vt -0.381561 0.010000 0.000000
vt -0.333866 0.000000 0.000000
vt -0.333866 0.010000 0.000000
vt -0.286171 0.000000 0.000000
vt -0.286171 0.010000 0.000000
vt -0.238476 0.000000 0.000000
vt -0.238476 0.010000 0.000000
vt -0.190780 0.000000 0.000000
vt -0.190780 0.010000 0.000000
vt -0.143085 0.000000 0.000000
vt -0.143085 0.010000 0.000000
vt -0.095390 0.000000 0.000000
vt -0.095390 0.010000 0.000000
vt -0.047695 0.000000 0.000000
vt -0.047695 0.010000 0.000000
vt 0.000000 0.000000 0.000000
vt 0.000000 0.010000 0.000000
vt -0.000000 0.000000 0.000000
vt 2.300359 0.000000 0.000000
vt -0.000000 0.010000 0.000000
vt 2.300359 0.010000 0.000000
vt 0.000000 0.000000 0.000000
vt 1.767232 0.000000 0.000000
vt 0.000000 0.010000 0.000000
vt 1.767232 0.010000 0.000000
vt -0.000000 0.000000 0.000000
vt 2.287254 0.000000 0.000000
vt -0.000000 0.010000 0.000000
vt 2.287254 0.010000 0.000000
vt -0.874132 -1.289389 0.000000
vt 0.874132 -1.031158 0.000000
vt -0.874132 0.997865 0.000000
vt -0.839789 1.020976 0.000000
vt -0.805291 1.043187 0.000000
vt -0.770631 1.064492 0.000000
vt -0.735795 1.084882 0.000000
vt -0.700754 1.104345 0.000000
vt -0.665463 1.122869 0.000000
vt -0.629857 1.140438 0.000000
vt -0.593846 1.157039 0.000000
vt -0.557308 1.172659 0.000000
vt -0.520088 1.187288 0.000000
vt -0.481999 1.200916 0.000000
vt -0.442827 1.213541 0.000000
vt -0.402337 1.225159 0.000000
vt -0.360285 1.235770 0.000000
vt -0.316426 1.245377 0.000000
vt -0.270522 1.253985 0.000000
vt -0.222347 1.261600 0.000000
vt -0.197346 1.265039 0.000000
vt -0.171704 1.268233 0.000000
vt -0.118430 1.273899 0.000000
vt -0.145405 1.271186 0.000000
vt 0.833488 1.268842 0.000000
vt 0.788136 1.271480 0.000000
vt 0.743459 1.273933 0.000000
vt 0.699460 1.276203 0.000000
vt 0.656140 1.278287 0.000000
vt 0.613501 1.280186 0.000000
vt 0.571546 1.281898 0.000000
vt 0.530280 1.283423 0.000000
vt 0.489704 1.284758 0.000000
vt 0.449825 1.285902 0.000000
vt 0.410645 1.286854 0.000000
vt 0.372170 1.287611 0.000000
vt 0.334404 1.288171 0.000000
vt 0.297350 1.288533 0.000000
vt 0.261014 1.288693 0.000000
vt 0.225399 1.288649 0.000000
vt 0.190509 1.288398 0.000000
vt 0.156345 1.287939 0.000000
vt 0.122910 1.287267 0.000000
vt 0.090206 1.286379 0.000000
vt 0.058232 1.285274 0.000000
vt 0.026988 1.283948 0.000000
vt -0.003530 1.282397 0.000000
vt -0.033324 1.280620 0.000000
vt -0.062400 1.278613 0.000000
vt -0.090766 1.276374 0.000000
vt 0.874132 -1.289389 0.000000
vt 0.874132 0.997865 0.000000
vt -0.874132 -1.031158 0.000000
vt 0.839789 1.020976 0.000000
vt 0.805291 1.043187 0.000000
vt 0.770631 1.064492 0.000000
vt 0.735795 1.084882 0.000000
vt 0.700754 1.104345 0.000000
vt 0.665463 1.122869 0.000000
vt 0.629857 1.140438 0.000000
vt 0.593846 1.157039 0.000000
vt 0.557308 1.172659 0.000000
vt 0.520088 1.187288 0.000000
vt 0.481999 1.200916 0.000000
vt 0.442827 1.213541 0.000000
vt 0.402337 1.225159 0.000000
vt 0.360285 1.235770 0.000000
vt 0.316426 1.245377 0.000000
vt 0.270522 1.253985 0.000000
vt 0.222347 1.261600 0.000000
vt 0.197346 1.265039 0.000000
vt 0.171704 1.268233 0.000000
vt 0.118430 1.273899 0.000000
vt 0.145405 1.271186 0.000000
vt 0.090766 1.276374 0.000000
vt 0.062400 1.278613 0.000000
vt 0.033324 1.280620 0.000000
vt 0.003530 1.282397 0.000000
vt -0.026988 1.283948 0.000000
vt -0.058232 1.285274 0.000000
vt -0.090206 1.286379 0.000000
vt -0.122910 1.287267 0.000000
vt -0.156345 1.287939 0.000000
vt -0.190509 1.288398 0.000000
vt -0.225399 1.288649 0.000000
vt -0.261014 1.288693 0.000000
vt -0.297350 1.288533 0.000000
vt -0.334404 1.288171 0.000000
vt -0.372170 1.287611 0.000000
vt -0.410645 1.286854 0.000000
vt -0.449825 1.285902 0.000000
vt -0.489704 1.284758 0.000000
vt -0.530280 1.283423 0.000000
vt -0.571546 1.281898 0.000000
vt -0.613501 1.280186 0.000000
vt -0.656140 1.278287 0.000000
vt -0.699460 1.276203 0.000000
vt -0.743459 1.273933 0.000000
vt -0.788136 1.271480 0.000000
vt -0.833488 1.268842 0.000000
vn 0.000000 0.005964 0.099822
vn 0.000000 0.005647 0.099840
vn 0.000000 0.005964 0.099822
vn 0.000000 0.005647 0.099840
vn 0.000000 0.005319 0.099858
vn 0.000000 0.005319 0.099858
vn 0.000000 0.004980 0.099876
vn 0.000000 0.004980 0.099876
vn 0.000000 0.004629 0.099893
vn 0.000000 0.004629 0.099893
vn 0.000000 0.004265 0.099909
vn 0.000000 0.004265 0.099909
vn 0.000000 0.003887 0.099924
vn 0.000000 0.003887 0.099924
vn 0.000000 0.003492 0.099939
vn 0.000000 0.003492 0.099939
vn 0.000000 0.003081 0.099953
vn 0.000000 0.003081 0.099953
vn 0.000000 0.002651 0.099965
vn 0.000000 0.002651 0.099965
vn 0.000000 0.002201 0.099976
vn 0.000000 0.002201 0.099976
vn 0.000000 0.001729 0.099985
vn 0.000000 0.001729 0.099985
vn 0.000000 0.001233 0.099992
vn 0.000000 0.001233 0.099992
vn 0.000000 0.000712 0.099997
vn 0.000000 0.000712 0.099997
vn 0.000000 0.000163 0.100000
vn 0.000000 0.000163 0.100000
vn 0.000000 -0.000416 0.099999
vn 0.000000 -0.000416 0.099999
vn 0.000000 -0.001027 0.099995
vn 0.000000 -0.001027 0.099995
vn 0.000000 -0.001673 0.099986
vn 0.000000 -0.001673 0.099986
vn 0.000000 -0.002355 0.099972
vn 0.000000 -0.002355 0.099972
vn 0.000000 -0.003078 0.099953
vn 0.000000 -0.003078 0.099953
vn 0.000000 -0.003842 0.099926
vn 0.000000 -0.003842 0.099926
vn 0.000000 -0.004651 0.099892
vn 0.000000 -0.004651 0.099892
vn 0.000000 -0.005507 0.099848
vn 0.000000 -0.005507 0.099848
vn 0.000000 -0.006414 0.099794
vn 0.000000 -0.006414 0.099794
vn 0.000000 -0.007372 0.099728
vn 0.000000 -0.007372 0.099728
vn 0.000000 -0.008384 0.099648
vn 0.000000 -0.008384 0.099648
vn 0.000000 -0.009451 0.099552
vn 0.000000 -0.009451 0.099552
vn 0.000000 -0.010574 0.099439
vn 0.000000 -0.010574 0.099439
vn 0.000000 -0.011753 0.099307
vn 0.000000 -0.011753 0.099307
vn 0.000000 -0.012988 0.099153
vn 0.000000 -0.012988 0.099153
vn 0.000000 -0.014276 0.098976
vn 0.000000 -0.014276 0.098976
vn 0.000000 -0.017003 0.098544
vn 0.000000 -0.017003 0.098544
vn 0.000000 -0.019901 0.098000
vn 0.000000 -0.019901 0.098000
vn 0.000000 -0.022928 0.097336
vn 0.000000 -0.022928 0.097336
vn 0.000000 -0.026028 0.096553
vn 0.000000 -0.026028 0.096553
vn 0.000000 -0.029140 0.095660
vn 0.000000 -0.029140 0.095660
vn 0.000000 -0.032203 0.094673
vn 0.000000 -0.032203 0.094673
vn 0.000000 -0.035160 0.093615
vn 0.000000 -0.035160 0.093615
vn 0.000000 -0.037972 0.092510
vn 0.000000 -0.037972 0.092510
vn 0.000000 -0.040615 0.091381
vn 0.000000 -0.040615 0.091381
vn 0.000000 -0.043084 0.090243
vn 0.000000 -0.043084 0.090243
vn 0.000000 -0.045387 0.089107
vn 0.000000 -0.045387 0.089107
vn 0.000000 -0.047536 0.087979
vn 0.000000 -0.047536 0.087979
vn 0.000000 -0.049552 0.086860
vn 0.000000 -0.049552 0.086860
vn 0.000000 -0.051454 0.085747
vn 0.000000 -0.051454 0.085747
vn 0.000000 -0.053261 0.084636
vn 0.000000 -0.053261 0.084636
vn 0.000000 -0.054991 0.083523
vn 0.000000 -0.054991 0.083523
vn 0.000000 -0.056658 0.082401
vn 0.000000 -0.056658 0.082401
vn 0.000000 0.099984 0.001767
vn 0.000000 0.099984 0.001767
vn 0.000000 0.099984 0.001767
vn 0.000000 0.099984 0.001767
vn 0.000000 0.014612 -0.098927
vn 0.000000 0.014612 -0.098927
vn 0.000000 0.014612 -0.098927
vn 0.000000 0.014612 -0.098927
vn 0.000000 -0.100000 0.000000
vn 0.000000 -0.100000 0.000000
vn 0.000000 -0.100000 0.000000
vn 0.000000 -0.100000 0.000000
vn 0.100000 0.000000 0.000000
vn 0.100000 0.000000 0.000000
vn 0.100000 0.000000 0.000000
vn 0.100000 0.000000 0.000000
vn 0.100000 0.000000 0.000000
vn 0.100000 0.000000 0.000000
vn 0.100000 0.000000 0.000000
vn 0.100000 0.000000 0.000000
vn 0.100000 0.000000 0.000000
vn 0.100000 0.000000 0.000000
vn 0.100000 0.000000 0.000000
vn 0.100000 0.000000 0.000000
vn 0.100000 0.000000 0.000000
vn 0.100000 0.000000 0.000000
vn 0.100000 0.000000 0.000000
vn 0.100000 0.000000 0.000000
vn 0.100000 0.000000 0.000000
vn 0.100000 0.000000 0.000000
vn 0.100000 0.000000 0.000000
vn 0.100000 0.000000 0.000000
vn 0.100000 0.000000 0.000000
vn 0.100000 0.000000 0.000000
vn 0.100000 0.000000 0.000000
vn 0.100000 0.000000 0.000000
vn 0.100000 0.000000 0.000000
vn 0.100000 0.000000 0.000000
vn 0.100000 0.000000 0.000000
vn 0.100000 0.000000 0.000000
vn 0.100000 0.000000 0.000000
vn 0.100000 0.000000 0.000000
vn 0.100000 0.000000 0.000000
vn 0.100000 0.000000 0.000000
vn 0.100000 0.000000 0.000000
vn 0.100000 0.000000 0.000000
vn 0.100000 0.000000 0.000000
vn 0.100000 0.000000 0.000000
vn 0.100000 0.000000 0.000000
vn 0.100000 0.000000 0.000000
vn 0.100000 0.000000 0.000000
vn 0.100000 0.000000 0.000000
vn 0.100000 0.000000 0.000000
vn 0.100000 0.000000 0.000000
vn 0.100000 0.000000 0.000000
vn 0.100000 0.000000 0.000000
vn 0.100000 0.000000 0.000000
vn 0.100000 0.000000 0.000000
vn 0.100000 0.000000 0.000000
vn 0.100000 0.000000 0.000000
vn 0.100000 0.000000 0.000000
vn 0.100000 0.000000 0.000000
vn -0.100000 0.000000 0.000000
vn -0.100000 0.000000 0.000000
vn -0.100000 0.000000 0.000000
vn -0.100000 0.000000 0.000000
vn -0.100000 0.000000 0.000000
vn -0.100000 0.000000 0.000000
vn -0.100000 0.000000 0.000000
vn -0.100000 0.000000 0.000000
vn -0.100000 0.000000 0.000000
vn -0.100000 0.000000 0.000000
vn -0.100000 0.000000 0.000000
vn -0.100000 0.000000 0.000000
vn -0.100000 0.000000 0.000000
vn -0.100000 0.000000 0.000000
vn -0.100000 0.000000 0.000000
vn -0.100000 0.000000 0.000000
vn -0.100000 0.000000 0.000000
vn -0.100000 0.000000 0.000000
vn -0.100000 0.000000 0.000000
vn -0.100000 0.000000 0.000000
vn -0.100000 0.000000 0.000000
vn -0.100000 0.000000 0.000000
vn -0.100000 0.000000 0.000000
vn -0.100000 0.000000 0.000000
vn -0.100000 0.000000 0.000000
vn -0.100000 0.000000 0.000000
vn -0.100000 0.000000 0.000000
vn -0.100000 0.000000 0.000000
vn -0.100000 0.000000 0.000000
vn -0.100000 0.000000 0.000000
vn -0.100000 0.000000 0.000000
vn -0.100000 0.000000 0.000000
vn -0.100000 0.000000 0.000000
vn -0.100000 0.000000 0.000000
vn -0.100000 0.000000 0.000000
vn -0.100000 0.000000 0.000000
vn -0.100000 0.000000 0.000000
vn -0.100000 0.000000 0.000000
vn -0.100000 0.000000 0.000000
vn -0.100000 0.000000 0.000000
vn -0.100000 0.000000 0.000000
vn -0.100000 0.000000 0.000000
vn -0.100000 0.000000 0.000000
vn -0.100000 0.000000 0.000000
vn -0.100000 0.000000 0.000000
vn -0.100000 0.000000 0.000000
vn -0.100000 0.000000 0.000000
vn -0.100000 0.000000 0.000000
vn -0.100000 0.000000 0.000000
vn -0.100000 0.000000 0.000000
usemtl Steel_-_Satin
f 1/1/1 2/2/2 96/3/3
f 96/3/3 2/2/2 95/4/4
f 95/4/4 2/2/2 3/5/5
f 95/4/4 3/5/5 94/6/6
f 94/6/6 3/5/5 4/7/7
f 94/6/6 4/7/7 93/8/8
f 93/8/8 4/7/7 5/9/9
f 93/8/8 5/9/9 92/10/10
f 92/10/10 5/9/9 6/11/11
f 92/10/10 6/11/11 91/12/12
f 91/12/12 6/11/11 7/13/13
f 91/12/12 7/13/13 90/14/14
f 90/14/14 7/13/13 8/15/15
f 90/14/14 8/15/15 89/16/16
f 89/16/16 8/15/15 9/17/17
f 89/16/16 9/17/17 88/18/18
f 88/18/18 9/17/17 10/19/19
f 88/18/18 10/19/19 87/20/20
f 87/20/20 10/19/19 11/21/21
f 87/20/20 11/21/21 86/22/22
f 86/22/22 11/21/21 12/23/23
f 86/22/22 12/23/23 85/24/24
f 85/24/24 12/23/23 13/25/25
f 85/24/24 13/25/25 84/26/26
f 84/26/26 13/25/25 14/27/27
f 84/26/26 14/27/27 83/28/28
f 83/28/28 14/27/27 15/29/29
f 83/28/28 15/29/29 82/30/30
f 82/30/30 15/29/29 16/31/31
f 82/30/30 16/31/31 81/32/32
f 81/32/32 16/31/31 17/33/33
f 81/32/32 17/33/33 80/34/34
f 80/34/34 17/33/33 18/35/35
f 80/34/34 18/35/35 79/36/36
f 79/36/36 18/35/35 19/37/37
f 79/36/36 19/37/37 78/38/38
f 78/38/38 19/37/37 20/39/39
f 78/38/38 20/39/39 77/40/40
f 77/40/40 20/39/39 21/41/41
f 77/40/40 21/41/41 76/42/42
f 76/42/42 21/41/41 22/43/43
f 76/42/42 22/43/43 75/44/44
f 75/44/44 22/43/43 23/45/45
f 75/44/44 23/45/45 74/46/46
f 74/46/46 23/45/45 24/47/47
f 74/46/46 24/47/47 73/48/48
f 73/48/48 24/47/47 25/49/49
f 73/48/48 25/49/49 72/50/50
f 72/50/50 25/49/49 26/51/51
f 72/50/50 26/51/51 71/52/52
f 71/52/52 26/51/51 27/53/53
f 71/52/52 27/53/53 70/54/54
f 70/54/54 27/53/53 28/55/55
f 70/54/54 28/55/55 69/56/56
f 69/56/56 28/55/55 29/57/57
f 69/56/56 29/57/57 68/58/58
f 68/58/58 29/57/57 30/59/59
f 68/58/58 30/59/59 67/60/60
f 67/60/60 30/59/59 31/61/61
f 67/60/60 31/61/61 66/62/62
f 66/62/62 31/61/61 32/63/63
f 66/62/62 32/63/63 65/64/64
f 65/64/64 32/63/63 33/65/65
f 65/64/64 33/65/65 64/66/66
f 64/66/66 33/65/65 34/67/67
f 64/66/66 34/67/67 63/68/68
f 63/68/68 34/67/67 35/69/69
f 63/68/68 35/69/69 62/70/70
f 62/70/70 35/69/69 36/71/71
f 62/70/70 36/71/71 61/72/72
f 61/72/72 36/71/71 37/73/73
f 61/72/72 37/73/73 60/74/74
f 60/74/74 37/73/73 38/75/75
f 60/74/74 38/75/75 59/76/76
f 59/76/76 38/75/75 39/77/77
f 59/76/76 39/77/77 58/78/78
f 58/78/78 39/77/77 40/79/79
f 58/78/78 40/79/79 57/80/80
f 57/80/80 40/79/79 41/81/81
f 57/80/80 41/81/81 56/82/82
f 56/82/82 41/81/81 42/83/83
f 56/82/82 42/83/83 55/84/84
f 55/84/84 42/83/83 43/85/85
f 55/84/84 43/85/85 54/86/86
f 54/86/86 43/85/85 44/87/87
f 54/86/86 44/87/87 53/88/88
f 53/88/88 44/87/87 45/89/89
f 53/88/88 45/89/89 52/90/90
f 52/90/90 45/89/89 46/91/91
f 52/90/90 46/91/91 51/92/92
f 51/92/92 46/91/91 47/93/93
f 51/92/92 47/93/93 50/94/94
f 50/94/94 47/93/93 48/95/95
f 50/94/94 48/95/95 49/96/96
f 97/97/97 1/98/98 98/99/99
f 98/99/99 1/98/98 96/100/100
f 99/101/101 97/102/102 100/103/103
f 100/103/103 97/102/102 98/104/104
f 48/105/105 99/106/106 49/107/107
f 49/107/107 99/106/106 100/108/108
f 100/109/109 98/110/110 49/111/111
f 49/111/111 98/110/110 50/112/112
f 50/112/112 98/110/110 51/113/113
f 51/113/113 98/110/110 52/114/114
f 52/114/114 98/110/110 53/115/115
f 53/115/115 98/110/110 54/116/116
f 54/116/116 98/110/110 55/117/117
f 55/117/117 98/110/110 56/118/118
f 56/118/118 98/110/110 57/119/119
f 57/119/119 98/110/110 58/120/120
f 58/120/120 98/110/110 59/121/121
f 59/121/121 98/110/110 60/122/122
f 60/122/122 98/110/110 61/123/123
f 61/123/123 98/110/110 62/124/124
f 62/124/124 98/110/110 63/125/125
f 63/125/125 98/110/110 64/126/126
f 64/126/126 98/110/110 65/127/127
f 65/127/127 98/110/110 66/128/128
f 66/128/128 98/110/110 67/129/129
f 67/129/129 98/110/110 68/130/130
f 68/130/130 98/110/110 70/131/131
f 68/130/130 70/131/131 69/132/132
f 96/133/133 95/134/134 98/110/110
f 98/110/110 95/134/134 94/135/135
f 98/110/110 94/135/135 93/136/136
f 93/136/136 92/137/137 98/110/110
f 98/110/110 92/137/137 91/138/138
f 98/110/110 91/138/138 90/139/139
f 90/139/139 89/140/140 98/110/110
f 98/110/110 89/140/140 88/141/141
f 98/110/110 88/141/141 87/142/142
f 87/142/142 86/143/143 98/110/110
f 98/110/110 86/143/143 85/144/144
f 98/110/110 85/144/144 84/145/145
f 84/145/145 83/146/146 98/110/110
f 98/110/110 83/146/146 82/147/147
f 98/110/110 82/147/147 81/148/148
f 81/148/148 80/149/149 98/110/110
f 98/110/110 80/149/149 79/150/150
f 98/110/110 79/150/150 78/151/151
f 78/151/151 77/152/152 98/110/110
f 98/110/110 77/152/152 76/153/153
f 98/110/110 76/153/153 75/154/154
f 75/154/154 74/155/155 98/110/110
f 98/110/110 74/155/155 73/156/156
f 98/110/110 73/156/156 72/157/157
f 72/157/157 71/158/158 98/110/110
f 98/110/110 71/158/158 70/131/131
f 99/159/159 48/160/160 97/161/161
f 97/161/161 48/160/160 47/162/162
f 97/161/161 47/162/162 46/163/163
f 46/163/163 45/164/164 97/161/161
f 97/161/161 45/164/164 44/165/165
f 97/161/161 44/165/165 43/166/166
f 43/166/166 42/167/167 97/161/161
f 97/161/161 42/167/167 41/168/168
f 97/161/161 41/168/168 40/169/169
f 40/169/169 39/170/170 97/161/161
f 97/161/161 39/170/170 38/171/171
f 97/161/161 38/171/171 37/172/172
f 37/172/172 36/173/173 97/161/161
f 97/161/161 36/173/173 35/174/174
f 97/161/161 35/174/174 34/175/175
f 34/175/175 33/176/176 97/161/161
f 97/161/161 33/176/176 32/177/177
f 97/161/161 32/177/177 31/178/178
f 31/178/178 30/179/179 97/161/161
f 97/161/161 30/179/179 29/180/180
f 97/161/161 29/180/180 27/181/181
f 27/181/181 29/180/180 28/182/182
f 27/181/181 26/183/183 97/161/161
f 97/161/161 26/183/183 25/184/184
f 97/161/161 25/184/184 24/185/185
f 24/185/185 23/186/186 97/161/161
f 97/161/161 23/186/186 22/187/187
f 97/161/161 22/187/187 21/188/188
f 21/188/188 20/189/189 97/161/161
f 97/161/161 20/189/189 19/190/190
f 97/161/161 19/190/190 18/191/191
f 18/191/191 17/192/192 97/161/161
f 97/161/161 17/192/192 16/193/193
f 97/161/161 16/193/193 15/194/194
f 15/194/194 14/195/195 97/161/161
f 97/161/161 14/195/195 13/196/196
f 97/161/161 13/196/196 12/197/197
f 12/197/197 11/198/198 97/161/161
f 97/161/161 11/198/198 10/199/199
f 97/161/161 10/199/199 9/200/200
f 9/200/200 8/201/201 97/161/161
f 97/161/161 8/201/201 7/202/202
f 97/161/161 7/202/202 6/203/203
f 6/203/203 5/204/204 97/161/161
f 97/161/161 5/204/204 4/205/205
f 97/161/161 4/205/205 3/206/206
f 3/206/206 2/207/207 97/161/161
f 97/161/161 2/207/207 1/208/208
# 100 vertices
# 208 texture params
# 208 normals
# 196 facets

# 1 groups
