# WaveFront *.obj file (generated by Autodesk ATF)

mtllib Van v1_Van v1_Body36.mtl

g Body36

v -25.000000 -60.000000 0.000000
v -25.000000 -60.000000 -3.000000
v -25.000000 60.000000 -3.000000
v -25.000000 60.000000 0.000000
v -40.000000 60.000000 -3.000000
v -40.000000 60.000000 0.000000
v -40.000000 -60.000000 0.000000
v -40.000000 -60.000000 -3.000000
vt 17.857994 6.264858 0.000000
vt 5.857994 6.264858 0.000000
vt 17.857994 5.964858 0.000000
vt 5.857994 5.964858 0.000000
vt -1.500000 0.300000 0.000000
vt -3.000000 0.300000 0.000000
vt -1.500000 0.000000 0.000000
vt -3.000000 0.000000 0.000000
vt 0.000000 -6.000000 0.000000
vt 1.500000 -6.000000 0.000000
vt 0.000000 6.000000 0.000000
vt 1.500000 6.000000 0.000000
vt -12.000000 0.000000 0.000000
vt -0.000000 -0.000000 0.000000
vt -12.000000 0.300000 0.000000
vt -0.000000 0.300000 0.000000
vt -1.500000 -0.000000 0.000000
vt -0.000000 -0.000000 0.000000
vt -1.500000 0.300000 0.000000
vt -0.000000 0.300000 0.000000
vt -0.000000 -6.000000 0.000000
vt 1.500000 -6.000000 0.000000
vt -0.000000 6.000000 0.000000
vt 1.500000 6.000000 0.000000
vn 0.100000 0.000000 0.000000
vn 0.100000 0.000000 0.000000
vn 0.100000 0.000000 0.000000
vn 0.100000 0.000000 0.000000
vn 0.000000 0.100000 0.000000
vn 0.000000 0.100000 0.000000
vn 0.000000 0.100000 0.000000
vn 0.000000 0.100000 0.000000
vn 0.000000 0.000000 0.100000
vn 0.000000 0.000000 0.100000
vn 0.000000 0.000000 0.100000
vn 0.000000 0.000000 0.100000
vn -0.100000 0.000000 0.000000
vn -0.100000 0.000000 0.000000
vn -0.100000 0.000000 0.000000
vn -0.100000 0.000000 0.000000
vn 0.000000 -0.100000 0.000000
vn 0.000000 -0.100000 0.000000
vn 0.000000 -0.100000 0.000000
vn 0.000000 -0.100000 0.000000
vn 0.000000 0.000000 -0.100000
vn 0.000000 0.000000 -0.100000
vn 0.000000 0.000000 -0.100000
vn 0.000000 0.000000 -0.100000
usemtl Steel_-_Satin
f 2/1/1 3/2/2 1/3/3
f 1/3/3 3/2/2 4/4/4
f 3/5/5 5/6/6 4/7/7
f 4/7/7 5/6/6 6/8/8
f 4/9/9 6/10/10 1/11/11
f 1/11/11 6/10/10 7/12/12
f 7/13/13 6/14/14 8/15/15
f 8/15/15 6/14/14 5/16/16
f 1/17/17 7/18/18 2/19/19
f 2/19/19 7/18/18 8/20/20
f 2/21/21 8/22/22 3/23/23
f 3/23/23 8/22/22 5/24/24
# 8 vertices
# 24 texture params
# 24 normals
# 12 facets

# 1 groups
