# WaveFront *.obj file (generated by Autodesk ATF)

mtllib Houses v8_Houses v8_Body18.mtl

g Body18

v 80.204771 50.000000 50.000000
v 80.204771 50.000000 56.889623
v -21.554229 50.000000 56.889623
v -21.554229 50.000000 50.000000
v 80.204771 126.507624 50.000000
v -21.554229 126.507624 50.000000
v 80.204771 50.121278 56.878702
v -21.554229 50.121278 56.878702
v 80.204771 50.121281 56.878733
v -21.554229 50.121281 56.878733
vt 0.000000 0.000000 0.000000
vt 0.688962 0.000000 0.000000
vt 0.000000 10.175900 0.000000
vt 0.688962 10.175900 0.000000
vt -0.000000 0.000000 0.000000
vt 7.650762 0.000000 0.000000
vt 0.000000 10.175900 0.000000
vt 7.650762 10.175900 0.000000
vt 0.000000 0.000000 0.000000
vt 7.669544 0.000000 0.000000
vt 0.000000 10.175900 0.000000
vt 7.669544 10.175900 0.000000
vt -0.000000 0.000000 0.000000
vt 0.000003 -0.000000 0.000000
vt 0.000000 10.175900 0.000000
vt 0.000003 10.175900 0.000000
vt 0.000000 0.000000 0.000000
vt 0.012177 0.000000 0.000000
vt 0.000000 10.175900 0.000000
vt 0.012177 10.175900 0.000000
vt -4.491469 2.712145 0.000000
vt -4.503597 2.713234 0.000000
vt -4.491469 2.712142 0.000000
vt -4.503597 2.024272 0.000000
vt 3.147166 2.024272 0.000000
vt 2.712145 -4.491469 0.000000
vt 2.712142 -4.491469 0.000000
vt 2.713234 -4.503597 0.000000
vt 2.024272 -4.503597 0.000000
vt 2.024272 3.147166 0.000000
vn 0.000000 -0.100000 0.000000
vn 0.000000 -0.100000 0.000000
vn 0.000000 -0.100000 0.000000
vn 0.000000 -0.100000 0.000000
vn 0.000000 0.000000 -0.100000
vn 0.000000 0.000000 -0.100000
vn 0.000000 0.000000 -0.100000
vn 0.000000 0.000000 -0.100000
vn 0.000000 0.008969 0.099597
vn 0.000000 0.008969 0.099597
vn 0.000000 0.008969 0.099597
vn 0.000000 0.008969 0.099597
vn 0.000000 0.099597 -0.008969
vn 0.000000 0.099597 -0.008969
vn 0.000000 0.099597 -0.008969
vn 0.000000 0.099597 -0.008969
vn 0.000000 0.008943 0.099599
vn 0.000000 0.008943 0.099599
vn 0.000000 0.008943 0.099599
vn 0.000000 0.008943 0.099599
vn 0.100000 0.000000 0.000000
vn 0.100000 0.000000 0.000000
vn 0.100000 0.000000 0.000000
vn 0.100000 0.000000 0.000000
vn 0.100000 0.000000 0.000000
vn -0.100000 0.000000 0.000000
vn -0.100000 0.000000 0.000000
vn -0.100000 0.000000 0.000000
vn -0.100000 0.000000 0.000000
vn -0.100000 0.000000 0.000000
usemtl Steel_-_Satin
f 1/1/1 2/2/2 4/3/3
f 4/3/3 2/2/2 3/4/4
f 5/5/5 1/6/6 6/7/7
f 6/7/7 1/6/6 4/8/8
f 7/9/9 5/10/10 8/11/11
f 8/11/11 5/10/10 6/12/12
f 9/13/13 7/14/14 10/15/15
f 10/15/15 7/14/14 8/16/16
f 2/17/17 9/18/18 3/19/19
f 3/19/19 9/18/18 10/20/20
f 9/21/21 2/22/22 7/23/23
f 7/23/23 2/22/22 1/24/24
f 7/23/23 1/24/24 5/25/25
f 10/26/26 8/27/27 3/28/28
f 3/28/28 8/27/27 4/29/29
f 4/29/29 8/27/27 6/30/30
# 10 vertices
# 30 texture params
# 30 normals
# 16 facets

# 1 groups
