# WaveFront *.obj file (generated by Autodesk ATF)

mtllib Houses v8_Houses v8_Body531.mtl

g Body531

v -810.329045 -1350.668169 430.000000
v -810.329045 -1355.485015 462.374674
v -810.429045 -1355.485015 462.374674
v -810.429045 -1350.668169 430.000000
v -810.329045 -1346.381503 470.000000
v -810.429045 -1346.381503 470.000000
v -810.429045 -1331.921450 470.000000
v -810.329045 -1331.921450 470.000000
v -810.329045 -1320.000000 457.817926
v -810.429045 -1320.000000 457.817926
v -810.429045 -1320.000000 430.000000
v -810.329045 -1320.000000 430.000000
vt -3.273105 0.990000 0.000000
vt -0.000000 0.990000 0.000000
vt -3.273105 1.000000 0.000000
vt -0.000000 1.000000 0.000000
vt -2.224089 0.990000 0.000000
vt -1.036572 0.990000 0.000000
vt -2.224089 1.000000 0.000000
vt -1.036572 1.000000 0.000000
vt -6.712544 0.990000 0.000000
vt -5.008068 0.990000 0.000000
vt -6.712544 1.000000 0.000000
vt -5.008068 1.000000 0.000000
vt 0.933183 0.000000 0.000000
vt 4.000000 0.000000 0.000000
vt 0.933183 0.010000 0.000000
vt 4.000000 0.010000 0.000000
vt 1.548502 1.237467 0.000000
vt 0.638150 2.000000 0.000000
vt 1.066817 -2.000000 0.000000
vt -0.807855 2.000000 0.000000
vt -2.000000 0.781793 0.000000
vt -2.000000 -2.000000 0.000000
vt 2.781793 0.010000 0.000000
vt 0.000000 0.010000 0.000000
vt 2.781793 0.000000 0.000000
vt 0.000000 0.000000 0.000000
vt 2.638150 0.010000 0.000000
vt 1.192145 0.010000 0.000000
vt 2.638150 0.000000 0.000000
vt 1.192145 0.000000 0.000000
vt -1.237467 -1.548502 0.000000
vt 2.000000 -1.066817 0.000000
vt -2.000000 -0.638150 0.000000
vt -2.000000 0.807855 0.000000
vt -0.781793 2.000000 0.000000
vt 2.000000 2.000000 0.000000
vn 0.000000 -0.098911 -0.014716
vn 0.000000 -0.098911 -0.014716
vn 0.000000 -0.098911 -0.014716
vn 0.000000 -0.098911 -0.014716
vn 0.000000 -0.064212 0.076660
vn 0.000000 -0.064212 0.076660
vn 0.000000 -0.064212 0.076660
vn 0.000000 -0.064212 0.076660
vn 0.000000 0.071471 0.069942
vn 0.000000 0.071471 0.069942
vn 0.000000 0.071471 0.069942
vn 0.000000 0.071471 0.069942
vn 0.000000 0.000000 -0.100000
vn 0.000000 0.000000 -0.100000
vn 0.000000 0.000000 -0.100000
vn 0.000000 0.000000 -0.100000
vn -0.100000 0.000000 0.000000
vn -0.100000 0.000000 0.000000
vn -0.100000 0.000000 0.000000
vn -0.100000 0.000000 0.000000
vn -0.100000 0.000000 0.000000
vn -0.100000 0.000000 0.000000
vn 0.000000 0.100000 0.000000
vn 0.000000 0.100000 0.000000
vn 0.000000 0.100000 0.000000
vn 0.000000 0.100000 0.000000
vn 0.000000 0.000000 0.100000
vn 0.000000 0.000000 0.100000
vn 0.000000 0.000000 0.100000
vn 0.000000 0.000000 0.100000
vn 0.100000 0.000000 0.000000
vn 0.100000 0.000000 0.000000
vn 0.100000 0.000000 0.000000
vn 0.100000 0.000000 0.000000
vn 0.100000 0.000000 0.000000
vn 0.100000 0.000000 0.000000
usemtl Steel_-_Satin
f 1/1/1 2/2/2 4/3/3
f 4/3/3 2/2/2 3/4/4
f 2/5/5 5/6/6 3/7/7
f 3/7/7 5/6/6 6/8/8
f 8/9/9 9/10/10 7/11/11
f 7/11/11 9/10/10 10/12/12
f 4/13/13 11/14/14 1/15/15
f 1/15/15 11/14/14 12/16/16
f 3/17/17 6/18/18 4/19/19
f 4/19/19 6/18/18 7/20/20
f 4/19/19 7/20/20 10/21/21
f 10/21/21 11/22/22 4/19/19
f 9/23/23 12/24/24 10/25/25
f 10/25/25 12/24/24 11/26/26
f 5/27/27 8/28/28 6/29/29
f 6/29/29 8/28/28 7/30/30
f 2/31/31 1/32/32 5/33/33
f 5/33/33 1/32/32 8/34/34
f 8/34/34 1/32/32 9/35/35
f 9/35/35 1/32/32 12/36/36
# 12 vertices
# 36 texture params
# 36 normals
# 20 facets

# 1 groups
