# WaveFront *.obj file (generated by Autodesk ATF)

mtllib Houses v8_Houses v8_Body259.mtl

g Body259

v 839.539165 1033.031790 270.000000
v 839.539165 1033.031790 310.000000
v 839.539165 1032.031790 310.000000
v 839.539165 1032.031790 270.000000
v 879.539165 1033.031790 270.000000
v 879.539165 1032.031790 270.000000
v 879.539165 1033.031790 310.000000
v 879.539165 1032.031790 310.000000
v 836.789165 1033.031790 267.250000
v 882.289165 1033.031790 267.250000
v 882.289165 1032.031790 267.250000
v 836.789165 1032.031790 267.250000
v 836.789165 1033.031790 312.750000
v 836.789165 1032.031790 312.750000
v 882.289165 1033.031790 312.750000
v 882.289165 1032.031790 312.750000
vt 0.000000 0.000000 0.000000
vt 4.000000 0.000000 0.000000
vt 0.000000 0.100000 0.000000
vt 4.000000 0.100000 0.000000
vt 0.000000 0.000000 0.000000
vt 4.000000 -0.000000 0.000000
vt 0.000000 0.100000 0.000000
vt 4.000000 0.100000 0.000000
vt 0.000000 0.000000 0.000000
vt 4.000000 0.000000 0.000000
vt 0.000000 0.100000 0.000000
vt 4.000000 0.100000 0.000000
vt 0.000000 0.000000 0.000000
vt 4.000000 0.000000 0.000000
vt -0.000000 0.100000 0.000000
vt 4.000000 0.100000 0.000000
vt 0.000000 0.000000 0.000000
vt 4.550000 0.000000 0.000000
vt -0.000000 0.100000 0.000000
vt 4.550000 0.100000 0.000000
vt 0.000000 0.000000 0.000000
vt 4.550000 0.000000 0.000000
vt 0.000000 0.100000 0.000000
vt 4.550000 0.100000 0.000000
vt 0.000000 0.000000 0.000000
vt 4.550000 -0.000000 0.000000
vt 0.000000 0.100000 0.000000
vt 4.550000 0.100000 0.000000
vt 0.000000 0.000000 0.000000
vt 4.550000 0.000000 0.000000
vt 0.000000 0.100000 0.000000
vt 4.550000 0.100000 0.000000
vt -2.000000 2.000000 0.000000
vt -2.275000 -2.275000 0.000000
vt -2.000000 -2.000000 0.000000
vt 2.275000 -2.275000 0.000000
vt 2.000000 -2.000000 0.000000
vt 2.000000 2.000000 0.000000
vt 2.275000 2.275000 0.000000
vt -2.275000 2.275000 0.000000
vt 2.000000 2.000000 0.000000
vt -2.275000 2.275000 0.000000
vt -2.000000 2.000000 0.000000
vt -2.275000 -2.275000 0.000000
vt -2.000000 -2.000000 0.000000
vt 2.275000 -2.275000 0.000000
vt 2.000000 -2.000000 0.000000
vt 2.275000 2.275000 0.000000
vn 0.100000 0.000000 0.000000
vn 0.100000 0.000000 0.000000
vn 0.100000 0.000000 0.000000
vn 0.100000 0.000000 0.000000
vn 0.000000 0.000000 0.100000
vn 0.000000 0.000000 0.100000
vn 0.000000 0.000000 0.100000
vn 0.000000 0.000000 0.100000
vn -0.100000 -0.000000 0.000000
vn -0.100000 -0.000000 0.000000
vn -0.100000 -0.000000 0.000000
vn -0.100000 -0.000000 0.000000
vn 0.000000 0.000000 -0.100000
vn 0.000000 0.000000 -0.100000
vn 0.000000 0.000000 -0.100000
vn 0.000000 0.000000 -0.100000
vn 0.000000 0.000000 -0.100000
vn 0.000000 0.000000 -0.100000
vn 0.000000 0.000000 -0.100000
vn 0.000000 0.000000 -0.100000
vn -0.100000 -0.000000 0.000000
vn -0.100000 -0.000000 0.000000
vn -0.100000 -0.000000 0.000000
vn -0.100000 -0.000000 0.000000
vn 0.000000 0.000000 0.100000
vn 0.000000 0.000000 0.100000
vn 0.000000 0.000000 0.100000
vn 0.000000 0.000000 0.100000
vn 0.100000 0.000000 0.000000
vn 0.100000 0.000000 0.000000
vn 0.100000 0.000000 0.000000
vn 0.100000 0.000000 0.000000
vn 0.000000 -0.100000 0.000000
vn 0.000000 -0.100000 0.000000
vn 0.000000 -0.100000 0.000000
vn 0.000000 -0.100000 0.000000
vn 0.000000 -0.100000 0.000000
vn 0.000000 -0.100000 0.000000
vn 0.000000 -0.100000 0.000000
vn 0.000000 -0.100000 0.000000
vn -0.000000 0.100000 -0.000000
vn -0.000000 0.100000 -0.000000
vn -0.000000 0.100000 -0.000000
vn -0.000000 0.100000 -0.000000
vn -0.000000 0.100000 -0.000000
vn -0.000000 0.100000 -0.000000
vn -0.000000 0.100000 -0.000000
vn -0.000000 0.100000 -0.000000
usemtl Steel_-_Satin
f 1/1/1 2/2/2 4/3/3
f 4/3/3 2/2/2 3/4/4
f 5/5/5 1/6/6 6/7/7
f 6/7/7 1/6/6 4/8/8
f 7/9/9 5/10/10 8/11/11
f 8/11/11 5/10/10 6/12/12
f 2/13/13 7/14/14 3/15/15
f 3/15/15 7/14/14 8/16/16
f 9/17/17 10/18/18 12/19/19
f 12/19/19 10/18/18 11/20/20
f 13/21/21 9/22/22 14/23/23
f 14/23/23 9/22/22 12/24/24
f 15/25/25 13/26/26 16/27/27
f 16/27/27 13/26/26 14/28/28
f 10/29/29 15/30/30 11/31/31
f 11/31/31 15/30/30 16/32/32
f 8/33/33 14/34/34 3/35/35
f 3/35/35 14/34/34 12/36/36
f 3/35/35 12/36/36 4/37/37
f 4/37/37 12/36/36 6/38/38
f 6/38/38 12/36/36 11/39/39
f 6/38/38 11/39/39 16/40/40
f 14/34/34 8/33/33 16/40/40
f 16/40/40 8/33/33 6/38/38
f 2/41/41 15/42/42 7/43/43
f 7/43/43 15/42/42 10/44/44
f 7/43/43 10/44/44 5/45/45
f 5/45/45 10/44/44 9/46/46
f 5/45/45 9/46/46 1/47/47
f 1/47/47 9/46/46 2/41/41
f 2/41/41 9/46/46 13/48/48
f 2/41/41 13/48/48 15/42/42
# 16 vertices
# 48 texture params
# 48 normals
# 32 facets

# 1 groups
