# WaveFront *.obj file (generated by Autodesk ATF)

mtllib Houses v8_Houses v8_Body709.mtl

g Body709

v -911.992936 -1151.000982 0.000000
v -1093.617375 -1069.158854 0.000000
v -1093.617375 -1069.158854 20.000000
v -911.992936 -1151.000982 20.000000
v -920.000000 -1170.000000 0.000000
v -920.000000 -1170.000000 20.000000
v -1079.570292 -1102.749705 0.000000
v -1079.570292 -1102.749705 20.000000
vt 0.000000 0.000000 0.000000
vt 19.921238 0.000000 0.000000
vt 0.000000 2.000000 0.000000
vt 19.921238 2.000000 0.000000
vt 0.000000 0.000000 0.000000
vt 2.061737 0.000000 0.000000
vt 0.000000 2.000000 0.000000
vt 2.061737 2.000000 0.000000
vt 0.000000 0.000000 0.000000
vt 17.316258 0.000000 0.000000
vt 0.000000 2.000000 0.000000
vt 17.316258 2.000000 0.000000
vt 0.000000 0.000000 0.000000
vt 3.640969 0.000000 0.000000
vt 0.000000 2.000000 0.000000
vt 3.640969 2.000000 0.000000
vt -9.081222 5.042057 0.000000
vt -7.676514 1.682972 0.000000
vt 9.081222 -3.142156 0.000000
vt 8.280516 -5.042057 0.000000
vt 9.081222 5.042057 0.000000
vt -9.081222 -3.142156 0.000000
vt 7.676514 1.682972 0.000000
vt -8.280516 -5.042057 0.000000
vn 0.041083 0.091171 0.000000
vn 0.041083 0.091171 0.000000
vn 0.041083 0.091171 0.000000
vn 0.041083 0.091171 0.000000
vn 0.092151 -0.038837 0.000000
vn 0.092151 -0.038837 0.000000
vn 0.092151 -0.038837 0.000000
vn 0.092151 -0.038837 0.000000
vn -0.038837 -0.092151 0.000000
vn -0.038837 -0.092151 0.000000
vn -0.038837 -0.092151 0.000000
vn -0.038837 -0.092151 0.000000
vn -0.092258 -0.038581 0.000000
vn -0.092258 -0.038581 0.000000
vn -0.092258 -0.038581 0.000000
vn -0.092258 -0.038581 0.000000
vn 0.000000 0.000000 0.100000
vn 0.000000 0.000000 0.100000
vn 0.000000 0.000000 0.100000
vn 0.000000 0.000000 0.100000
vn 0.000000 0.000000 -0.100000
vn 0.000000 0.000000 -0.100000
vn 0.000000 0.000000 -0.100000
vn 0.000000 0.000000 -0.100000
usemtl Steel_-_Satin
f 1/1/1 2/2/2 4/3/3
f 4/3/3 2/2/2 3/4/4
f 5/5/5 1/6/6 6/7/7
f 6/7/7 1/6/6 4/8/8
f 7/9/9 5/10/10 8/11/11
f 8/11/11 5/10/10 6/12/12
f 2/13/13 7/14/14 3/15/15
f 3/15/15 7/14/14 8/16/16
f 3/17/17 8/18/18 4/19/19
f 4/19/19 8/18/18 6/20/20
f 2/21/21 1/22/22 7/23/23
f 7/23/23 1/22/22 5/24/24
# 8 vertices
# 24 texture params
# 24 normals
# 12 facets

# 1 groups
