# WaveFront *.obj file (generated by Autodesk ATF)

mtllib Houses v8_Houses v8_Body406.mtl

g Body406

v 1127.705995 1076.011844 34.198419
v 1127.335421 1075.641269 32.268302
v 1128.042528 1074.934163 32.268302
v 1128.413102 1075.304737 34.198419
v 1149.956370 1098.262219 25.654458
v 1150.663477 1097.555112 25.654458
v 1149.585796 1097.891644 23.724342
v 1150.292902 1097.184538 23.724342
vt -0.000000 0.000000 0.000000
vt 0.200000 -0.000000 0.000000
vt 0.000000 0.100000 0.000000
vt 0.200000 0.100000 0.000000
vt -0.000000 0.000000 0.000000
vt 3.260610 0.000000 0.000000
vt -0.000000 0.100000 0.000000
vt 3.260610 0.100000 0.000000
vt 0.000000 0.000000 0.000000
vt 0.200000 0.000000 0.000000
vt -0.000000 0.100000 0.000000
vt 0.200000 0.100000 0.000000
vt 0.000000 0.000000 0.000000
vt 3.260610 -0.000000 0.000000
vt 0.000000 0.100000 0.000000
vt 3.260610 0.100000 0.000000
vt 0.523704 1.547136 0.000000
vt 0.330692 1.599543 0.000000
vt -0.330692 -1.599543 0.000000
vt -0.523704 -1.547136 0.000000
vt -1.547136 -0.523704 0.000000
vt 1.599543 0.330692 0.000000
vt -1.599543 -0.330692 0.000000
vt 1.547136 0.523704 0.000000
vn -0.068240 -0.068240 0.026204
vn -0.068240 -0.068240 0.026204
vn -0.068240 -0.068240 0.026204
vn -0.068240 -0.068240 0.026204
vn 0.018529 0.018529 0.096506
vn 0.018529 0.018529 0.096506
vn 0.018529 0.018529 0.096506
vn 0.018529 0.018529 0.096506
vn 0.068240 0.068240 -0.026204
vn 0.068240 0.068240 -0.026204
vn 0.068240 0.068240 -0.026204
vn 0.068240 0.068240 -0.026204
vn -0.018529 -0.018529 -0.096506
vn -0.018529 -0.018529 -0.096506
vn -0.018529 -0.018529 -0.096506
vn -0.018529 -0.018529 -0.096506
vn 0.070711 -0.070711 -0.000000
vn 0.070711 -0.070711 -0.000000
vn 0.070711 -0.070711 -0.000000
vn 0.070711 -0.070711 -0.000000
vn -0.070711 0.070711 -0.000000
vn -0.070711 0.070711 -0.000000
vn -0.070711 0.070711 -0.000000
vn -0.070711 0.070711 -0.000000
usemtl Steel_-_Satin
f 1/1/1 2/2/2 4/3/3
f 4/3/3 2/2/2 3/4/4
f 5/5/5 1/6/6 6/7/7
f 6/7/7 1/6/6 4/8/8
f 7/9/9 5/10/10 8/11/11
f 8/11/11 5/10/10 6/12/12
f 2/13/13 7/14/14 3/15/15
f 3/15/15 7/14/14 8/16/16
f 8/17/17 6/18/18 3/19/19
f 3/19/19 6/18/18 4/20/20
f 7/21/21 2/22/22 5/23/23
f 5/23/23 2/22/22 1/24/24
# 8 vertices
# 24 texture params
# 24 normals
# 12 facets

# 1 groups
