# WaveFront *.obj file (generated by Autodesk ATF)

mtllib Houses v8_Houses v8_Body518.mtl

g Body518

v -800.429045 -1173.461942 518.645446
v -820.429045 -1173.461942 518.645446
v -820.429045 -1183.461942 511.845446
v -810.429045 -1183.461942 511.845446
v -810.429045 -1193.461942 505.045446
v -800.429045 -1193.461942 505.045446
v -800.429045 -1173.461942 0.000000
v -820.429045 -1173.461942 0.000000
v -800.429045 -1193.461942 0.000000
v -810.429045 -1193.461942 450.000000
v -820.429045 -1193.461942 450.000000
v -820.429045 -1193.461942 0.000000
v -810.429045 -1183.461942 450.000000
v -820.429045 -1183.461942 450.000000
vt -4.587897 -0.000000 0.000000
vt -2.169302 -0.000000 0.000000
vt -3.378599 1.000000 0.000000
vt -2.169302 2.000000 0.000000
vt -3.378599 2.000000 0.000000
vt -4.587897 1.000000 0.000000
vt 0.000000 8.135455 0.000000
vt 2.000000 8.135455 0.000000
vt 0.000000 60.000000 0.000000
vt 2.000000 60.000000 0.000000
vt 0.000000 8.135455 0.000000
vt 2.000000 9.495455 0.000000
vt 0.000000 60.000000 0.000000
vt 2.000000 60.000000 0.000000
vt 1.000000 9.495455 0.000000
vt 1.000000 15.000000 0.000000
vt 0.000000 9.495455 0.000000
vt 0.000000 60.000000 0.000000
vt 2.000000 60.000000 0.000000
vt 2.000000 15.000000 0.000000
vt -0.000000 8.815455 0.000000
vt -0.000000 15.000000 0.000000
vt -1.000000 9.495455 0.000000
vt -1.000000 15.000000 0.000000
vt 17.957095 20.653806 0.000000
vt 18.957095 20.653806 0.000000
vt 17.957095 21.653806 0.000000
vt 18.957095 21.653806 0.000000
vt -37.914191 8.815455 0.000000
vt -36.914191 8.815455 0.000000
vt -37.914191 15.000000 0.000000
vt -36.914191 15.000000 0.000000
vt 1.000000 8.815455 0.000000
vt 2.000000 8.135455 0.000000
vt 1.000000 15.000000 0.000000
vt 2.000000 60.000000 0.000000
vt 0.000000 60.000000 0.000000
vt 0.000000 15.000000 0.000000
vt 1.000000 1.000000 0.000000
vt -1.000000 1.000000 0.000000
vt 1.000000 -1.000000 0.000000
vt -1.000000 -1.000000 0.000000
vn 0.000000 -0.056231 0.082693
vn 0.000000 -0.056231 0.082693
vn 0.000000 -0.056231 0.082693
vn 0.000000 -0.056231 0.082693
vn 0.000000 -0.056231 0.082693
vn 0.000000 -0.056231 0.082693
vn 0.000000 0.100000 0.000000
vn 0.000000 0.100000 0.000000
vn 0.000000 0.100000 0.000000
vn 0.000000 0.100000 0.000000
vn 0.100000 0.000000 0.000000
vn 0.100000 0.000000 0.000000
vn 0.100000 0.000000 0.000000
vn 0.100000 0.000000 0.000000
vn 0.000000 -0.100000 0.000000
vn 0.000000 -0.100000 0.000000
vn 0.000000 -0.100000 0.000000
vn 0.000000 -0.100000 0.000000
vn 0.000000 -0.100000 0.000000
vn 0.000000 -0.100000 0.000000
vn -0.100000 0.000000 -0.000000
vn -0.100000 0.000000 -0.000000
vn -0.100000 0.000000 -0.000000
vn -0.100000 0.000000 -0.000000
vn 0.000000 0.000000 0.100000
vn 0.000000 0.000000 0.100000
vn 0.000000 0.000000 0.100000
vn 0.000000 0.000000 0.100000
vn 0.000000 -0.100000 0.000000
vn 0.000000 -0.100000 0.000000
vn 0.000000 -0.100000 0.000000
vn 0.000000 -0.100000 0.000000
vn -0.100000 0.000000 0.000000
vn -0.100000 0.000000 0.000000
vn -0.100000 0.000000 0.000000
vn -0.100000 0.000000 0.000000
vn -0.100000 0.000000 0.000000
vn -0.100000 0.000000 0.000000
vn 0.000000 0.000000 -0.100000
vn 0.000000 0.000000 -0.100000
vn 0.000000 0.000000 -0.100000
vn 0.000000 0.000000 -0.100000
usemtl Steel_-_Satin
f 6/1/1 1/2/2 4/3/3
f 4/3/3 1/2/2 2/4/4
f 4/3/3 2/4/4 3/5/5
f 4/3/3 5/6/6 6/1/1
f 2/7/7 1/8/8 8/9/9
f 8/9/9 1/8/8 7/10/10
f 1/11/11 6/12/12 7/13/13
f 7/13/13 6/12/12 9/14/14
f 5/15/15 10/16/16 6/17/17
f 6/17/17 10/16/16 9/18/18
f 9/18/18 10/16/16 12/19/19
f 12/19/19 10/16/16 11/20/20
f 4/21/21 13/22/22 5/23/23
f 5/23/23 13/22/22 10/24/24
f 11/25/25 10/26/26 14/27/27
f 14/27/27 10/26/26 13/28/28
f 4/29/29 3/30/30 13/31/31
f 13/31/31 3/30/30 14/32/32
f 3/33/33 2/34/34 14/35/35
f 14/35/35 2/34/34 8/36/36
f 14/35/35 8/36/36 12/37/37
f 12/37/37 11/38/38 14/35/35
f 8/39/39 7/40/40 12/41/41
f 12/41/41 7/40/40 9/42/42
# 14 vertices
# 42 texture params
# 42 normals
# 24 facets

# 1 groups
