# WaveFront *.obj file (generated by Autodesk ATF)

mtllib Houses v8_Houses v8_Body476.mtl

g Body476

v -1199.570955 -1616.538058 398.059038
v -1189.570955 -1616.538058 398.059038
v -1189.570955 -1616.538058 370.149888
v -1192.882458 -1616.538058 380.787938
v -1199.570955 -1616.538058 357.035700
v -1199.570955 -1607.082258 357.035700
v -1192.882458 -1612.557103 380.787938
v -1189.570955 -1610.105053 370.149888
v -1199.570955 -1606.538058 354.674725
v -1199.570955 -1606.538058 0.000000
v -1199.570955 -1626.538058 0.000000
v -1199.570955 -1626.538058 441.443351
v -1179.570955 -1626.538058 441.443351
v -1179.570955 -1606.538058 354.674725
v -1179.570955 -1626.538058 0.000000
v -1179.570955 -1606.538058 0.000000
vt 14.004264 -6.773456 0.000000
vt 14.004264 -2.671122 0.000000
vt 13.335414 -4.398233 0.000000
vt 13.004264 -2.671122 0.000000
vt 13.004264 -5.462038 0.000000
vt -2.467600 0.945580 0.000000
vt -2.467600 0.000000 0.000000
vt 0.000000 0.398096 0.000000
vt 0.000000 0.000000 0.000000
vt -0.000000 0.643301 0.000000
vt -1.114155 0.398096 0.000000
vt -0.000000 0.000000 0.000000
vt -1.114155 0.000000 0.000000
vt -0.000000 0.000000 0.000000
vt -2.790915 0.643301 0.000000
vt -2.790915 0.000000 0.000000
vt 1.000000 20.194096 0.000000
vt 1.000000 24.296430 0.000000
vt 0.000000 15.855665 0.000000
vt 0.000000 60.000000 0.000000
vt 2.000000 60.000000 0.000000
vt 1.945580 24.296430 0.000000
vt 2.000000 24.532527 0.000000
vt -8.904378 39.914191 0.000000
vt -8.904378 37.914191 0.000000
vt -4.452189 38.914191 0.000000
vt -0.000000 37.914191 0.000000
vt -1.588094 38.914191 0.000000
vt -0.000000 39.914191 0.000000
vt -0.242288 39.914191 0.000000
vt -2.679792 39.245341 0.000000
vt -4.452189 39.914191 0.000000
vt 0.000000 15.855665 0.000000
vt 2.000000 15.855665 0.000000
vt 0.000000 60.000000 0.000000
vt 2.000000 60.000000 0.000000
vt 0.000000 24.532527 0.000000
vt 2.000000 24.532527 0.000000
vt 0.000000 60.000000 0.000000
vt 2.000000 60.000000 0.000000
vt 2.000000 15.855665 0.000000
vt 2.000000 60.000000 0.000000
vt 0.000000 24.532527 0.000000
vt 0.000000 60.000000 0.000000
vt 1.000000 1.000000 0.000000
vt -1.000000 1.000000 0.000000
vt 1.000000 -1.000000 0.000000
vt -1.000000 -1.000000 0.000000
vn -0.000000 0.100000 -0.000000
vn -0.000000 0.100000 -0.000000
vn -0.000000 0.100000 -0.000000
vn -0.000000 0.100000 -0.000000
vn -0.000000 0.100000 -0.000000
vn -0.096256 0.000000 0.027105
vn -0.096256 0.000000 0.027105
vn -0.096256 0.000000 0.027105
vn -0.096256 0.000000 0.027105
vn 0.095481 -0.000000 0.029722
vn 0.095481 -0.000000 0.029722
vn 0.095481 -0.000000 0.029722
vn 0.095481 -0.000000 0.029722
vn -0.100000 0.000000 -0.000000
vn -0.100000 0.000000 -0.000000
vn -0.100000 0.000000 -0.000000
vn -0.100000 0.000000 0.000000
vn -0.100000 0.000000 0.000000
vn -0.100000 0.000000 0.000000
vn -0.100000 0.000000 0.000000
vn -0.100000 0.000000 0.000000
vn -0.100000 0.000000 0.000000
vn -0.100000 0.000000 0.000000
vn 0.000000 0.097445 0.022461
vn 0.000000 0.097445 0.022461
vn 0.000000 0.097445 0.022461
vn 0.000000 0.097445 0.022461
vn 0.000000 0.097445 0.022461
vn 0.000000 0.097445 0.022461
vn 0.000000 0.097445 0.022461
vn 0.000000 0.097445 0.022461
vn 0.000000 0.097445 0.022461
vn 0.000000 -0.100000 0.000000
vn 0.000000 -0.100000 0.000000
vn 0.000000 -0.100000 0.000000
vn 0.000000 -0.100000 0.000000
vn 0.000000 0.100000 0.000000
vn 0.000000 0.100000 0.000000
vn 0.000000 0.100000 0.000000
vn 0.000000 0.100000 0.000000
vn 0.100000 0.000000 0.000000
vn 0.100000 0.000000 0.000000
vn 0.100000 0.000000 0.000000
vn 0.100000 0.000000 0.000000
vn 0.000000 0.000000 -0.100000
vn 0.000000 0.000000 -0.100000
vn 0.000000 0.000000 -0.100000
vn 0.000000 0.000000 -0.100000
usemtl Steel_-_Satin
f 5/1/1 1/2/2 4/3/3
f 4/3/3 1/2/2 2/4/4
f 4/3/3 2/4/4 3/5/5
f 6/6/6 5/7/7 7/8/8
f 7/8/8 5/7/7 4/9/9
f 8/10/10 7/11/11 3/12/12
f 3/12/12 7/11/11 4/13/13
f 2/14/14 8/15/15 3/16/16
f 1/17/17 5/18/18 12/19/19
f 12/19/19 5/18/18 11/20/20
f 11/20/20 5/18/18 10/21/21
f 10/21/21 5/18/18 6/22/22
f 10/21/21 6/22/22 9/23/23
f 12/24/24 13/25/25 2/26/26
f 2/26/26 13/25/25 14/27/27
f 2/26/26 14/27/27 8/28/28
f 8/28/28 14/27/27 9/29/29
f 8/28/28 9/29/29 6/30/30
f 6/30/30 7/31/31 8/28/28
f 2/26/26 1/32/32 12/24/24
f 13/33/33 12/34/34 15/35/35
f 15/35/35 12/34/34 11/36/36
f 9/37/37 14/38/38 10/39/39
f 10/39/39 14/38/38 16/40/40
f 13/41/41 15/42/42 14/43/43
f 14/43/43 15/42/42 16/44/44
f 10/45/45 16/46/46 11/47/47
f 11/47/47 16/46/46 15/48/48
# 16 vertices
# 48 texture params
# 48 normals
# 28 facets

# 1 groups
