# WaveFront *.obj file (generated by Autodesk ATF)

mtllib Houses v8_Houses v8_Body188.mtl

g Body188

v -144.070955 443.461942 600.000000
v -144.070955 856.538058 600.000000
v -144.070955 856.538058 580.000000
v -144.070955 443.461942 580.000000
v -139.570955 443.461942 600.000000
v -139.570955 443.461942 580.000000
v -139.570955 856.538058 600.000000
v -139.570955 856.538058 580.000000
vt 0.000000 0.000000 0.000000
vt 41.307612 0.000000 0.000000
vt 0.000000 2.000000 0.000000
vt 41.307612 2.000000 0.000000
vt 0.000000 0.000000 0.000000
vt 0.450000 0.000000 0.000000
vt 0.000000 2.000000 0.000000
vt 0.450000 2.000000 0.000000
vt 0.000000 0.000000 0.000000
vt 41.307612 0.000000 0.000000
vt 0.000000 2.000000 0.000000
vt 41.307612 2.000000 0.000000
vt 0.000000 0.000000 0.000000
vt 0.450000 0.000000 0.000000
vt 0.000000 2.000000 0.000000
vt 0.450000 2.000000 0.000000
vt -0.225000 -20.653806 0.000000
vt 0.225000 -20.653806 0.000000
vt -0.225000 20.653806 0.000000
vt 0.225000 20.653806 0.000000
vt 0.225000 20.653806 0.000000
vt -0.225000 20.653806 0.000000
vt 0.225000 -20.653806 0.000000
vt -0.225000 -20.653806 0.000000
vn -0.100000 0.000000 0.000000
vn -0.100000 0.000000 0.000000
vn -0.100000 0.000000 0.000000
vn -0.100000 0.000000 0.000000
vn 0.000000 -0.100000 0.000000
vn 0.000000 -0.100000 0.000000
vn 0.000000 -0.100000 0.000000
vn 0.000000 -0.100000 0.000000
vn 0.100000 0.000000 0.000000
vn 0.100000 0.000000 0.000000
vn 0.100000 0.000000 0.000000
vn 0.100000 0.000000 0.000000
vn 0.000000 0.100000 0.000000
vn 0.000000 0.100000 0.000000
vn 0.000000 0.100000 0.000000
vn 0.000000 0.100000 0.000000
vn 0.000000 0.000000 0.100000
vn 0.000000 0.000000 0.100000
vn 0.000000 0.000000 0.100000
vn 0.000000 0.000000 0.100000
vn 0.000000 0.000000 -0.100000
vn 0.000000 0.000000 -0.100000
vn 0.000000 0.000000 -0.100000
vn 0.000000 0.000000 -0.100000
usemtl Steel_-_Satin
f 1/1/1 2/2/2 4/3/3
f 4/3/3 2/2/2 3/4/4
f 5/5/5 1/6/6 6/7/7
f 6/7/7 1/6/6 4/8/8
f 7/9/9 5/10/10 8/11/11
f 8/11/11 5/10/10 6/12/12
f 2/13/13 7/14/14 3/15/15
f 3/15/15 7/14/14 8/16/16
f 7/17/17 2/18/18 5/19/19
f 5/19/19 2/18/18 1/20/20
f 3/21/21 8/22/22 4/23/23
f 4/23/23 8/22/22 6/24/24
# 8 vertices
# 24 texture params
# 24 normals
# 12 facets

# 1 groups
