# WaveFront *.obj file (generated by Autodesk ATF)

mtllib Houses v8_Houses v8_Body441.mtl

g Body441

v 752.000000 152.869078 27.423067
v 752.000000 153.545446 29.305227
v 753.000000 153.545446 29.305227
v 753.000000 152.869078 27.423067
v 752.000000 125.295137 37.331957
v 753.000000 125.295137 37.331957
v 752.000000 125.971505 39.214117
v 753.000000 125.971505 39.214117
vt 0.000000 0.000000 0.000000
vt 0.200000 0.000000 0.000000
vt -0.000000 0.100000 0.000000
vt 0.200000 0.100000 0.000000
vt 0.000000 0.000000 0.000000
vt 2.930031 0.000000 0.000000
vt 0.000000 0.100000 0.000000
vt 2.930031 0.100000 0.000000
vt 0.000000 0.000000 0.000000
vt 0.200000 -0.000000 0.000000
vt 0.000000 0.100000 0.000000
vt 0.200000 0.100000 0.000000
vt 0.000000 0.000000 0.000000
vt 2.930031 -0.000000 0.000000
vt 0.000000 0.100000 0.000000
vt 2.930031 0.100000 0.000000
vt 0.470095 1.391144 0.000000
vt 0.276700 1.442119 0.000000
vt -0.276700 -1.442119 0.000000
vt -0.470095 -1.391144 0.000000
vt -1.391144 -0.470095 0.000000
vt 1.442119 0.276700 0.000000
vt -1.442119 -0.276700 0.000000
vt 1.391144 0.470095 0.000000
vn -0.000000 0.094108 -0.033818
vn -0.000000 0.094108 -0.033818
vn -0.000000 0.094108 -0.033818
vn -0.000000 0.094108 -0.033818
vn 0.000000 -0.033818 -0.094108
vn 0.000000 -0.033818 -0.094108
vn 0.000000 -0.033818 -0.094108
vn 0.000000 -0.033818 -0.094108
vn 0.000000 -0.094108 0.033818
vn 0.000000 -0.094108 0.033818
vn 0.000000 -0.094108 0.033818
vn 0.000000 -0.094108 0.033818
vn -0.000000 0.033818 0.094108
vn -0.000000 0.033818 0.094108
vn -0.000000 0.033818 0.094108
vn -0.000000 0.033818 0.094108
vn 0.100000 0.000000 -0.000000
vn 0.100000 0.000000 -0.000000
vn 0.100000 0.000000 -0.000000
vn 0.100000 0.000000 -0.000000
vn -0.100000 -0.000000 0.000000
vn -0.100000 -0.000000 0.000000
vn -0.100000 -0.000000 0.000000
vn -0.100000 -0.000000 0.000000
usemtl Steel_-_Satin
f 1/1/1 2/2/2 4/3/3
f 4/3/3 2/2/2 3/4/4
f 5/5/5 1/6/6 6/7/7
f 6/7/7 1/6/6 4/8/8
f 7/9/9 5/10/10 8/11/11
f 8/11/11 5/10/10 6/12/12
f 2/13/13 7/14/14 3/15/15
f 3/15/15 7/14/14 8/16/16
f 8/17/17 6/18/18 3/19/19
f 3/19/19 6/18/18 4/20/20
f 7/21/21 2/22/22 5/23/23
f 5/23/23 2/22/22 1/24/24
# 8 vertices
# 24 texture params
# 24 normals
# 12 facets

# 1 groups
