# WaveFront *.obj file (generated by Autodesk ATF)

mtllib Houses v8_Houses v8_Body572.mtl

g Body572

v -808.429045 -1314.999992 426.500000
v -808.451834 -1314.999992 426.239528
v -808.519506 -1314.999992 425.986970
v -808.630007 -1314.999992 425.750000
v -808.779979 -1314.999992 425.535819
v -808.964864 -1314.999992 425.350934
v -809.179045 -1314.999992 425.200962
v -809.416015 -1314.999992 425.090461
v -809.668573 -1314.999992 425.022789
v -809.929045 -1314.999992 425.000000
v -810.429045 -1314.999992 425.000000
v -810.429045 -1314.999992 427.250000
v -808.429045 -1314.999992 427.250000
v -808.429045 -1350.147423 426.500000
v -808.451834 -1350.108669 426.239528
v -808.519506 -1350.071092 425.986970
v -808.630007 -1350.035835 425.750000
v -808.779979 -1350.003968 425.535819
v -808.964864 -1349.976460 425.350934
v -809.179045 -1349.954147 425.200962
v -809.416015 -1349.937706 425.090461
v -809.668573 -1349.927637 425.022789
v -809.929045 -1349.924247 425.000000
v -808.451834 -1345.126362 426.239528
v -808.451834 -1340.105300 426.239528
v -808.451834 -1335.084239 426.239528
v -808.451834 -1330.063177 426.239528
v -808.451834 -1325.042115 426.239528
v -808.451834 -1320.021054 426.239528
v -808.519506 -1345.126362 425.986970
v -808.519506 -1340.105300 425.986970
v -808.519506 -1335.084239 425.986970
v -808.519506 -1330.063177 425.986970
v -808.519506 -1325.042115 425.986970
v -808.519506 -1320.021054 425.986970
v -808.630007 -1345.126362 425.750000
v -808.630007 -1340.105300 425.750000
v -808.630007 -1335.084239 425.750000
v -808.630007 -1330.063177 425.750000
v -808.630007 -1325.042115 425.750000
v -808.630007 -1320.021054 425.750000
v -808.779979 -1345.126362 425.535819
v -808.779979 -1340.105300 425.535819
v -808.779979 -1335.084239 425.535819
v -808.779979 -1330.063177 425.535819
v -808.779979 -1325.042115 425.535819
v -808.779979 -1320.021054 425.535819
v -808.964864 -1345.126362 425.350934
v -808.964864 -1340.105300 425.350934
v -808.964864 -1335.084239 425.350934
v -808.964864 -1330.063177 425.350934
v -808.964864 -1325.042115 425.350934
v -808.964864 -1320.021054 425.350934
v -809.179045 -1345.126362 425.200962
v -809.179045 -1340.105300 425.200962
v -809.179045 -1335.084239 425.200962
v -809.179045 -1330.063177 425.200962
v -809.179045 -1325.042115 425.200962
v -809.179045 -1320.021054 425.200962
v -809.416015 -1345.126362 425.090461
v -809.416015 -1340.105300 425.090461
v -809.416015 -1335.084239 425.090461
v -809.416015 -1330.063177 425.090461
v -809.416015 -1325.042115 425.090461
v -809.416015 -1320.021054 425.090461
v -809.668573 -1345.126362 425.022789
v -809.668573 -1340.105300 425.022789
v -809.668573 -1335.084239 425.022789
v -809.668573 -1330.063177 425.022789
v -809.668573 -1325.042115 425.022789
v -809.668573 -1320.021054 425.022789
v -808.429045 -1350.259012 427.250000
v -810.429045 -1349.924247 425.000000
v -810.429045 -1350.259012 427.250000
vt 0.225000 0.200000 0.000000
vt 0.150000 0.200000 0.000000
vt 0.225000 0.000000 0.000000
vt 0.123953 0.197721 0.000000
vt 0.098697 0.190954 0.000000
vt 0.075000 0.179904 0.000000
vt 0.053582 0.164907 0.000000
vt 0.035093 0.146418 0.000000
vt 0.020096 0.125000 0.000000
vt 0.009046 0.101303 0.000000
vt 0.002279 0.076047 0.000000
vt 0.000000 0.050000 0.000000
vt 0.000000 0.000000 0.000000
vt -0.256840 -0.091630 0.000000
vt -0.755071 -0.091630 0.000000
vt -0.252965 -0.117810 0.000000
vt -1.257177 -0.091630 0.000000
vt -1.759283 -0.091630 0.000000
vt -1.759283 -0.065450 0.000000
vt -2.261389 -0.065450 0.000000
vt -2.261389 -0.039270 0.000000
vt -2.763495 -0.039270 0.000000
vt -2.763495 -0.013090 0.000000
vt -3.265602 -0.013090 0.000000
vt -3.265602 0.013090 0.000000
vt -3.767708 0.013090 0.000000
vt -3.767708 0.039270 0.000000
vt -3.265602 0.039270 0.000000
vt -3.767708 0.065450 0.000000
vt -3.265602 0.065450 0.000000
vt -3.767708 0.091630 0.000000
vt -3.265602 0.091630 0.000000
vt -3.767708 0.117810 0.000000
vt -2.763495 0.091630 0.000000
vt -2.261389 0.091630 0.000000
vt -2.261389 0.065450 0.000000
vt -1.759283 0.065450 0.000000
vt -1.759283 0.039270 0.000000
vt -1.257177 0.039270 0.000000
vt -1.257177 0.013090 0.000000
vt -0.755071 0.013090 0.000000
vt -0.755071 -0.013090 0.000000
vt -0.270061 0.013090 0.000000
vt -0.267310 -0.013090 0.000000
vt -0.755071 -0.039270 0.000000
vt -0.264123 -0.039270 0.000000
vt -0.755071 -0.065450 0.000000
vt -0.260598 -0.065450 0.000000
vt -0.272292 0.039270 0.000000
vt -0.755071 0.039270 0.000000
vt -1.257177 0.065450 0.000000
vt -1.759283 0.091630 0.000000
vt -0.275282 0.117810 0.000000
vt -0.273936 0.065450 0.000000
vt -0.755071 0.065450 0.000000
vt -1.257177 0.091630 0.000000
vt -0.274943 0.091630 0.000000
vt -0.755071 0.091630 0.000000
vt -3.767708 -0.013090 0.000000
vt -3.265602 -0.039270 0.000000
vt -2.763495 -0.065450 0.000000
vt -2.261389 -0.091630 0.000000
vt -3.767708 -0.039270 0.000000
vt -3.265602 -0.065450 0.000000
vt -2.763495 -0.091630 0.000000
vt -3.767708 -0.117810 0.000000
vt -3.767708 -0.065450 0.000000
vt -3.265602 -0.091630 0.000000
vt -3.767708 -0.091630 0.000000
vt -1.257177 -0.065450 0.000000
vt -1.257177 -0.039270 0.000000
vt -1.257177 -0.013090 0.000000
vt -1.759283 -0.039270 0.000000
vt -2.261389 -0.013090 0.000000
vt -2.763495 0.013090 0.000000
vt -1.759283 -0.013090 0.000000
vt -1.759283 0.013090 0.000000
vt -2.261389 0.013090 0.000000
vt -2.763495 0.039270 0.000000
vt -2.261389 0.039270 0.000000
vt -2.763495 0.065450 0.000000
vt -0.112500 -1.014097 0.000000
vt -0.037500 -1.002938 0.000000
vt -0.112500 2.511805 0.000000
vt -0.037500 2.511805 0.000000
vt 1.531185 0.000000 0.000000
vt 5.023610 0.000000 0.000000
vt 1.531185 0.050000 0.000000
vt 5.023610 0.050000 0.000000
vt 3.525902 0.200000 0.000000
vt -0.000000 0.200000 0.000000
vt 3.525902 0.000000 0.000000
vt -0.000000 0.000000 0.000000
vt 1.014097 0.112500 0.000000
vt -2.511805 0.112500 0.000000
vt 0.980620 -0.112500 0.000000
vt -2.511805 -0.112500 0.000000
vt -3.778609 1.000000 0.000000
vt -3.778609 0.950000 0.000000
vt -3.551132 1.000000 0.000000
vt -3.776305 0.923953 0.000000
vt -3.769463 0.898697 0.000000
vt -3.758291 0.875000 0.000000
vt -3.743129 0.853582 0.000000
vt -3.724437 0.835093 0.000000
vt -3.702783 0.820096 0.000000
vt -3.678825 0.809046 0.000000
vt -3.653291 0.802279 0.000000
vt -3.626958 0.800000 0.000000
vt -3.551132 0.800000 0.000000
vn 0.000000 0.100000 0.000000
vn 0.000000 0.100000 0.000000
vn 0.000000 0.100000 0.000000
vn 0.000000 0.100000 0.000000
vn 0.000000 0.100000 0.000000
vn 0.000000 0.100000 0.000000
vn 0.000000 0.100000 0.000000
vn 0.000000 0.100000 0.000000
vn 0.000000 0.100000 0.000000
vn 0.000000 0.100000 0.000000
vn 0.000000 0.100000 0.000000
vn 0.000000 0.100000 0.000000
vn 0.000000 0.100000 0.000000
vn 0.098481 0.000000 -0.017365
vn 0.098481 0.000000 -0.017365
vn 0.100000 0.000000 -0.000000
vn 0.098481 0.000000 -0.017365
vn 0.098481 0.000000 -0.017365
vn 0.093969 0.000000 -0.034202
vn 0.093969 0.000000 -0.034202
vn 0.086603 0.000000 -0.050000
vn 0.086603 0.000000 -0.050000
vn 0.076604 0.000000 -0.064279
vn 0.076604 0.000000 -0.064279
vn 0.064279 0.000000 -0.076604
vn 0.064279 0.000000 -0.076604
vn 0.050000 0.000000 -0.086603
vn 0.050000 0.000000 -0.086603
vn 0.034202 0.000000 -0.093969
vn 0.034202 0.000000 -0.093969
vn 0.017365 0.000000 -0.098481
vn 0.017365 0.000000 -0.098481
vn 0.000000 0.000000 -0.100000
vn 0.017365 0.000000 -0.098481
vn 0.017365 0.000000 -0.098481
vn 0.034202 0.000000 -0.093969
vn 0.034202 0.000000 -0.093969
vn 0.050000 0.000000 -0.086603
vn 0.050000 0.000000 -0.086603
vn 0.064279 0.000000 -0.076604
vn 0.064279 0.000000 -0.076604
vn 0.076604 0.000000 -0.064279
vn 0.064279 0.000000 -0.076604
vn 0.076604 0.000000 -0.064279
vn 0.086603 0.000000 -0.050000
vn 0.086603 0.000000 -0.050000
vn 0.093969 0.000000 -0.034202
vn 0.093969 0.000000 -0.034202
vn 0.050000 0.000000 -0.086603
vn 0.050000 0.000000 -0.086603
vn 0.034202 0.000000 -0.093969
vn 0.017365 0.000000 -0.098481
vn 0.000000 0.000000 -0.100000
vn 0.034202 0.000000 -0.093969
vn 0.034202 0.000000 -0.093969
vn 0.017365 0.000000 -0.098481
vn 0.017365 0.000000 -0.098481
vn 0.017365 0.000000 -0.098481
vn 0.076604 0.000000 -0.064279
vn 0.086603 0.000000 -0.050000
vn 0.093969 0.000000 -0.034202
vn 0.098481 0.000000 -0.017365
vn 0.086603 0.000000 -0.050000
vn 0.093969 0.000000 -0.034202
vn 0.098481 0.000000 -0.017365
vn 0.100000 0.000000 -0.000000
vn 0.093969 0.000000 -0.034202
vn 0.098481 0.000000 -0.017365
vn 0.098481 0.000000 -0.017365
vn 0.093969 0.000000 -0.034202
vn 0.086603 0.000000 -0.050000
vn 0.076604 0.000000 -0.064279
vn 0.086603 0.000000 -0.050000
vn 0.076604 0.000000 -0.064279
vn 0.064279 0.000000 -0.076604
vn 0.076604 0.000000 -0.064279
vn 0.064279 0.000000 -0.076604
vn 0.064279 0.000000 -0.076604
vn 0.050000 0.000000 -0.086603
vn 0.050000 0.000000 -0.086603
vn 0.034202 0.000000 -0.093969
vn 0.100000 0.000000 0.000000
vn 0.100000 0.000000 0.000000
vn 0.000000 0.000000 -0.100000
vn 0.000000 0.000000 -0.100000
vn 0.000000 0.000000 0.100000
vn 0.000000 0.000000 0.100000
vn 0.000000 0.000000 0.100000
vn 0.000000 0.000000 0.100000
vn -0.100000 0.000000 0.000000
vn -0.100000 0.000000 0.000000
vn -0.100000 0.000000 0.000000
vn -0.100000 0.000000 0.000000
vn 0.000000 -0.098911 -0.014716
vn 0.000000 -0.098911 -0.014716
vn 0.000000 -0.098911 -0.014716
vn 0.000000 -0.098911 -0.014716
vn 0.000000 -0.098911 -0.014716
vn 0.000000 -0.098911 -0.014716
vn 0.000000 -0.098911 -0.014716
vn 0.000000 -0.098911 -0.014716
vn 0.000000 -0.098911 -0.014716
vn 0.000000 -0.098911 -0.014716
vn 0.000000 -0.098911 -0.014716
vn 0.000000 -0.098911 -0.014716
vn 0.000000 -0.098911 -0.014716
usemtl Steel_-_Satin
f 13/1/1 1/2/2 12/3/3
f 12/3/3 1/2/2 2/4/4
f 12/3/3 2/4/4 3/5/5
f 3/5/5 4/6/6 12/3/3
f 12/3/3 4/6/6 5/7/7
f 12/3/3 5/7/7 6/8/8
f 6/8/8 7/9/9 12/3/3
f 12/3/3 7/9/9 8/10/10
f 12/3/3 8/10/10 9/11/11
f 9/11/11 10/12/12 12/3/3
f 12/3/3 10/12/12 11/13/13
f 15/14/14 24/15/15 14/16/16
f 14/16/16 24/15/15 25/17/17
f 14/16/16 25/17/17 26/18/18
f 26/18/18 25/17/17 32/19/19
f 26/18/18 32/19/19 33/20/20
f 33/20/20 32/19/19 39/21/21
f 33/20/20 39/21/21 40/22/22
f 40/22/22 39/21/21 46/23/23
f 40/22/22 46/23/23 47/24/24
f 47/24/24 46/23/23 53/25/25
f 47/24/24 53/25/25 6/26/26
f 6/26/26 53/25/25 7/27/27
f 7/27/27 53/25/25 59/28/28
f 7/27/27 59/28/28 8/29/29
f 8/29/29 59/28/28 65/30/30
f 8/29/29 65/30/30 9/31/31
f 9/31/31 65/30/30 71/32/32
f 9/31/31 71/32/32 10/33/33
f 10/33/33 71/32/32 70/34/34
f 10/33/33 70/34/34 69/35/35
f 69/35/35 70/34/34 63/36/36
f 69/35/35 63/36/36 62/37/37
f 62/37/37 63/36/36 56/38/38
f 62/37/37 56/38/38 55/39/39
f 55/39/39 56/38/38 49/40/40
f 55/39/39 49/40/40 48/41/41
f 48/41/41 49/40/40 42/42/42
f 48/41/41 42/42/42 19/43/43
f 19/43/43 42/42/42 18/44/44
f 18/44/44 42/42/42 36/45/45
f 18/44/44 36/45/45 17/46/46
f 17/46/46 36/45/45 30/47/47
f 17/46/46 30/47/47 16/48/48
f 16/48/48 30/47/47 24/15/15
f 16/48/48 24/15/15 15/14/14
f 19/43/43 20/49/49 48/41/41
f 48/41/41 20/49/49 54/50/50
f 48/41/41 54/50/50 55/39/39
f 55/39/39 54/50/50 61/51/51
f 55/39/39 61/51/51 62/37/37
f 62/37/37 61/51/51 68/52/52
f 62/37/37 68/52/52 69/35/35
f 69/35/35 68/52/52 23/53/53
f 69/35/35 23/53/53 10/33/33
f 20/49/49 21/54/54 54/50/50
f 54/50/50 21/54/54 60/55/55
f 54/50/50 60/55/55 61/51/51
f 61/51/51 60/55/55 67/56/56
f 61/51/51 67/56/56 68/52/52
f 68/52/52 67/56/56 23/53/53
f 21/54/54 22/57/57 60/55/55
f 60/55/55 22/57/57 66/58/58
f 60/55/55 66/58/58 67/56/56
f 67/56/56 66/58/58 23/53/53
f 22/57/57 23/53/53 66/58/58
f 6/26/26 5/59/59 47/24/24
f 47/24/24 5/59/59 41/60/60
f 47/24/24 41/60/60 40/22/22
f 40/22/22 41/60/60 34/61/61
f 40/22/22 34/61/61 33/20/20
f 33/20/20 34/61/61 27/62/62
f 33/20/20 27/62/62 26/18/18
f 26/18/18 27/62/62 14/16/16
f 5/59/59 4/63/63 41/60/60
f 41/60/60 4/63/63 35/64/64
f 41/60/60 35/64/64 34/61/61
f 34/61/61 35/64/64 28/65/65
f 34/61/61 28/65/65 27/62/62
f 27/62/62 28/65/65 1/66/66
f 27/62/62 1/66/66 14/16/16
f 4/63/63 3/67/67 35/64/64
f 35/64/64 3/67/67 29/68/68
f 35/64/64 29/68/68 28/65/65
f 28/65/65 29/68/68 1/66/66
f 3/67/67 2/69/69 29/68/68
f 29/68/68 2/69/69 1/66/66
f 25/17/17 24/15/15 31/70/70
f 31/70/70 24/15/15 30/47/47
f 31/70/70 30/47/47 37/71/71
f 37/71/71 30/47/47 36/45/45
f 37/71/71 36/45/45 43/72/72
f 43/72/72 36/45/45 42/42/42
f 43/72/72 42/42/42 49/40/40
f 25/17/17 31/70/70 32/19/19
f 32/19/19 31/70/70 38/73/73
f 32/19/19 38/73/73 39/21/21
f 39/21/21 38/73/73 45/74/74
f 39/21/21 45/74/74 46/23/23
f 46/23/23 45/74/74 52/75/75
f 46/23/23 52/75/75 53/25/25
f 53/25/25 52/75/75 59/28/28
f 38/73/73 31/70/70 37/71/71
f 38/73/73 37/71/71 44/76/76
f 44/76/76 37/71/71 43/72/72
f 44/76/76 43/72/72 50/77/77
f 50/77/77 43/72/72 49/40/40
f 50/77/77 49/40/40 56/38/38
f 38/73/73 44/76/76 45/74/74
f 45/74/74 44/76/76 51/78/78
f 45/74/74 51/78/78 52/75/75
f 52/75/75 51/78/78 58/79/79
f 52/75/75 58/79/79 59/28/28
f 59/28/28 58/79/79 65/30/30
f 51/78/78 44/76/76 50/77/77
f 51/78/78 50/77/77 57/80/80
f 57/80/80 50/77/77 56/38/38
f 57/80/80 56/38/38 63/36/36
f 51/78/78 57/80/80 58/79/79
f 58/79/79 57/80/80 64/81/81
f 58/79/79 64/81/81 65/30/30
f 65/30/30 64/81/81 71/32/32
f 64/81/81 57/80/80 63/36/36
f 71/32/32 64/81/81 70/34/34
f 70/34/34 64/81/81 63/36/36
f 72/82/82 14/83/16 13/84/83
f 13/84/83 14/83/16 1/85/66
f 73/86/84 11/87/85 23/88/53
f 23/88/53 11/87/85 10/89/33
f 72/90/86 13/91/87 74/92/88
f 74/92/88 13/91/87 12/93/89
f 74/94/90 12/95/91 73/96/92
f 73/96/92 12/95/91 11/97/93
f 73/98/94 23/99/95 74/100/96
f 74/100/96 23/99/95 22/101/97
f 74/100/96 22/101/97 21/102/98
f 21/102/98 20/103/99 74/100/96
f 74/100/96 20/103/99 19/104/100
f 74/100/96 19/104/100 18/105/101
f 18/105/101 17/106/102 74/100/96
f 74/100/96 17/106/102 16/107/103
f 74/100/96 16/107/103 15/108/104
f 15/108/104 14/109/105 74/100/96
f 74/100/96 14/109/105 72/110/106
# 74 vertices
# 110 texture params
# 106 normals
# 144 facets

# 1 groups
