# WaveFront *.obj file (generated by Autodesk ATF)

mtllib Houses v8_Houses v8_Body1.mtl

g Body1

v 100.600000 5.949948 18.958473
v 100.600000 5.957545 19.045297
v 100.600000 5.980102 19.129483
v 100.600000 6.016936 19.208473
v 100.600000 6.066926 19.279867
v 100.600000 6.128555 19.341495
v 100.600000 6.199948 19.391486
v 100.600000 6.278938 19.428319
v 100.600000 6.363124 19.450877
v 100.600000 6.449948 19.458473
v 100.600000 6.536773 19.450877
v 100.600000 6.620958 19.428319
v 100.600000 6.699948 19.391486
v 100.600000 6.771342 19.341495
v 100.600000 6.832971 19.279867
v 100.600000 6.882961 19.208473
v 100.600000 6.919795 19.129483
v 100.600000 6.942352 19.045297
v 100.600000 6.949948 18.958473
v 100.600000 6.942352 18.871649
v 100.600000 6.919795 18.787463
v 100.600000 6.882961 18.708473
v 100.600000 6.832971 18.637079
v 100.600000 6.771342 18.575451
v 100.600000 6.699948 18.525460
v 100.600000 6.620958 18.488627
v 100.600000 6.536773 18.466069
v 100.600000 6.449948 18.458473
v 100.600000 6.363124 18.466069
v 100.600000 6.278938 18.488627
v 100.600000 6.199948 18.525460
v 100.600000 6.128555 18.575451
v 100.600000 6.066926 18.637079
v 100.600000 6.016936 18.708473
v 100.600000 5.980102 18.787463
v 100.600000 5.957545 18.871649
v 100.000000 5.949948 18.958473
v 100.000000 5.957545 18.871649
v 100.000000 5.980102 18.787463
v 100.000000 6.016936 18.708473
v 100.000000 6.066926 18.637079
v 100.000000 6.128555 18.575451
v 100.000000 6.199948 18.525460
v 100.000000 6.278938 18.488627
v 100.000000 6.363124 18.466069
v 100.000000 6.449948 18.458473
v 100.000000 6.536773 18.466069
v 100.000000 6.620958 18.488627
v 100.000000 6.699948 18.525460
v 100.000000 6.771342 18.575451
v 100.000000 6.832971 18.637079
v 100.000000 6.882961 18.708473
v 100.000000 6.919795 18.787463
v 100.000000 6.942352 18.871649
v 100.000000 6.949948 18.958473
v 100.000000 6.942352 19.045297
v 100.000000 6.919795 19.129483
v 100.000000 6.882961 19.208473
v 100.000000 6.832971 19.279867
v 100.000000 6.771342 19.341495
v 100.000000 6.699948 19.391486
v 100.000000 6.620958 19.428319
v 100.000000 6.536773 19.450877
v 100.000000 6.449948 19.458473
v 100.000000 6.363124 19.450877
v 100.000000 6.278938 19.428319
v 100.000000 6.199948 19.391486
v 100.000000 6.128555 19.341495
v 100.000000 6.066926 19.279867
v 100.000000 6.016936 19.208473
v 100.000000 5.980102 19.129483
v 100.000000 5.957545 19.045297
v 100.000000 0.000000 99.646130
v 100.000000 50.000000 60.000000
v -50.000000 50.000000 60.000000
v -50.000000 0.000000 99.646130
v 100.000000 -50.000000 60.000000
v -50.000000 -50.000000 60.000000
v 80.204771 126.731827 0.000000
v -21.553737 126.731827 0.000000
v -21.553737 126.731827 50.000000
v 80.204771 126.731827 50.000000
v 80.204771 50.000000 0.000000
v 80.204771 50.000000 50.000000
v -21.553737 50.000000 0.000000
v -21.553737 50.000000 50.000000
v 100.000000 -50.000000 0.000000
v 100.000000 50.000000 0.000000
v -50.000000 -50.000000 0.000000
v -50.000000 50.000000 0.000000
vt -0.060000 0.148353 0.000000
vt -0.000000 0.148353 0.000000
vt -0.060000 0.157080 0.000000
vt -0.000000 0.157080 0.000000
vt -0.060000 -0.157080 0.000000
vt -0.000000 -0.157080 0.000000
vt -0.060000 -0.148353 0.000000
vt -0.000000 -0.148353 0.000000
vt -0.060000 -0.139626 0.000000
vt -0.000000 -0.139626 0.000000
vt -0.060000 -0.130900 0.000000
vt -0.000000 -0.130900 0.000000
vt -0.060000 -0.122173 0.000000
vt -0.000000 -0.122173 0.000000
vt -0.060000 -0.113446 0.000000
vt -0.000000 -0.113446 0.000000
vt -0.060000 -0.104720 0.000000
vt -0.000000 -0.104720 0.000000
vt -0.060000 -0.095993 0.000000
vt -0.000000 -0.095993 0.000000
vt -0.060000 -0.087266 0.000000
vt -0.000000 -0.087266 0.000000
vt -0.060000 -0.078540 0.000000
vt -0.000000 -0.078540 0.000000
vt -0.060000 -0.069813 0.000000
vt -0.000000 -0.069813 0.000000
vt -0.060000 -0.061087 0.000000
vt -0.000000 -0.061087 0.000000
vt -0.060000 -0.052360 0.000000
vt -0.000000 -0.052360 0.000000
vt -0.060000 -0.043633 0.000000
vt -0.000000 -0.043633 0.000000
vt -0.060000 -0.034907 0.000000
vt -0.000000 -0.034907 0.000000
vt -0.060000 -0.026180 0.000000
vt -0.000000 -0.026180 0.000000
vt -0.060000 -0.017453 0.000000
vt -0.000000 -0.017453 0.000000
vt -0.060000 -0.008727 0.000000
vt -0.000000 -0.008727 0.000000
vt -0.060000 0.000000 0.000000
vt -0.000000 0.000000 0.000000
vt -0.060000 0.008727 0.000000
vt -0.000000 0.008727 0.000000
vt -0.060000 0.017453 0.000000
vt -0.000000 0.017453 0.000000
vt -0.060000 0.026180 0.000000
vt -0.000000 0.026180 0.000000
vt -0.060000 0.034907 0.000000
vt -0.000000 0.034907 0.000000
vt -0.060000 0.043633 0.000000
vt -0.000000 0.043633 0.000000
vt -0.060000 0.052360 0.000000
vt -0.000000 0.052360 0.000000
vt -0.060000 0.061087 0.000000
vt -0.000000 0.061087 0.000000
vt -0.060000 0.069813 0.000000
vt -0.000000 0.069813 0.000000
vt -0.060000 0.078540 0.000000
vt -0.000000 0.078540 0.000000
vt -0.060000 0.087266 0.000000
vt -0.000000 0.087266 0.000000
vt -0.060000 0.095993 0.000000
vt -0.000000 0.095993 0.000000
vt -0.060000 0.104720 0.000000
vt -0.000000 0.104720 0.000000
vt -0.060000 0.113446 0.000000
vt -0.000000 0.113446 0.000000
vt -0.060000 0.122173 0.000000
vt -0.000000 0.122173 0.000000
vt -0.060000 0.130900 0.000000
vt -0.000000 0.130900 0.000000
vt -0.060000 0.139626 0.000000
vt -0.000000 0.139626 0.000000
vt -0.049240 -0.008682 0.000000
vt 0.049240 -0.008682 0.000000
vt -0.050000 0.000000 0.000000
vt 0.050000 0.000000 0.000000
vt -0.049240 0.008682 0.000000
vt 0.049240 0.008682 0.000000
vt -0.046985 0.017101 0.000000
vt 0.046985 0.017101 0.000000
vt -0.043301 0.025000 0.000000
vt 0.043301 0.025000 0.000000
vt -0.038302 0.032139 0.000000
vt 0.038302 0.032139 0.000000
vt -0.032139 0.038302 0.000000
vt 0.032139 0.038302 0.000000
vt -0.025000 0.043301 0.000000
vt 0.025000 0.043301 0.000000
vt -0.017101 0.046985 0.000000
vt 0.017101 0.046985 0.000000
vt -0.008682 0.049240 0.000000
vt 0.008682 0.049240 0.000000
vt 0.000000 0.050000 0.000000
vt 0.046985 -0.017101 0.000000
vt -0.046985 -0.017101 0.000000
vt 0.043301 -0.025000 0.000000
vt -0.043301 -0.025000 0.000000
vt 0.038302 -0.032139 0.000000
vt -0.038302 -0.032139 0.000000
vt 0.032139 -0.038302 0.000000
vt -0.032139 -0.038302 0.000000
vt 0.025000 -0.043301 0.000000
vt -0.025000 -0.043301 0.000000
vt 0.017101 -0.046985 0.000000
vt -0.017101 -0.046985 0.000000
vt 0.008682 -0.049240 0.000000
vt -0.008682 -0.049240 0.000000
vt 0.000000 -0.050000 0.000000
vt 0.000000 0.000000 0.000000
vt 6.381078 0.000000 0.000000
vt 0.000000 15.000000 0.000000
vt 6.381078 15.000000 0.000000
vt 0.000000 0.000000 0.000000
vt 6.381078 0.000000 0.000000
vt 0.000000 15.000000 0.000000
vt 6.381078 15.000000 0.000000
vt 0.000000 0.000000 0.000000
vt 10.175851 0.000000 0.000000
vt 0.000000 5.000000 0.000000
vt 10.175851 5.000000 0.000000
vt 0.000000 0.000000 0.000000
vt 7.673183 0.000000 0.000000
vt 0.000000 5.000000 0.000000
vt 7.673183 5.000000 0.000000
vt 0.000000 0.000000 0.000000
vt 7.673183 0.000000 0.000000
vt 0.000000 5.000000 0.000000
vt 7.673183 5.000000 0.000000
vt -5.087925 -3.836591 0.000000
vt 5.087925 -3.836591 0.000000
vt -5.087925 3.836591 0.000000
vt 5.087925 3.836591 0.000000
vt 5.595754 1.887165 0.000000
vt 5.594995 1.895847 0.000000
vt 0.000000 0.000000 0.000000
vt 5.595754 1.904530 0.000000
vt 5.598010 1.912948 0.000000
vt 0.000000 6.000000 0.000000
vt 5.601694 1.920847 0.000000
vt 5.606693 1.927987 0.000000
vt 5.612855 1.934150 0.000000
vt 5.619995 1.939149 0.000000
vt 5.627894 1.942832 0.000000
vt 5.000000 9.964613 0.000000
vt 5.636312 1.945088 0.000000
vt 5.644995 1.945847 0.000000
vt 10.000000 6.000000 0.000000
vt 5.653677 1.945088 0.000000
vt 5.662096 1.942832 0.000000
vt 5.669995 1.939149 0.000000
vt 5.677134 1.934150 0.000000
vt 5.683297 1.927987 0.000000
vt 5.688296 1.920847 0.000000
vt 5.691979 1.912948 0.000000
vt 10.000000 0.000000 0.000000
vt 5.694235 1.904530 0.000000
vt 5.694995 1.895847 0.000000
vt 5.694235 1.887165 0.000000
vt 5.691979 1.878746 0.000000
vt 5.688296 1.870847 0.000000
vt 5.683297 1.863708 0.000000
vt 5.677134 1.857545 0.000000
vt 5.669995 1.852546 0.000000
vt 5.662096 1.848863 0.000000
vt 5.653677 1.846607 0.000000
vt 5.644995 1.845847 0.000000
vt 5.636312 1.846607 0.000000
vt 5.627894 1.848863 0.000000
vt 5.619995 1.852546 0.000000
vt 5.612855 1.857545 0.000000
vt 5.606693 1.863708 0.000000
vt 5.601694 1.870847 0.000000
vt 5.598010 1.878746 0.000000
vt 0.000000 0.000000 0.000000
vt 15.000000 0.000000 0.000000
vt 0.000000 6.000000 0.000000
vt 15.000000 6.000000 0.000000
vt -0.000000 0.000000 0.000000
vt 10.000000 0.000000 0.000000
vt -0.000000 6.000000 0.000000
vt 10.000000 6.000000 0.000000
vt 5.000000 9.964613 0.000000
vt 12.155374 0.000000 0.000000
vt 15.000000 0.000000 0.000000
vt 12.155374 5.000000 0.000000
vt 15.000000 6.000000 0.000000
vt -0.000000 6.000000 0.000000
vt 1.979523 5.000000 0.000000
vt -0.000000 0.000000 0.000000
vt 1.979523 0.000000 0.000000
vt 7.500000 5.000000 0.000000
vt 4.655374 5.000000 0.000000
vt 7.500000 -5.000000 0.000000
vt -7.500000 -5.000000 0.000000
vt -5.520477 5.000000 0.000000
vt -7.500000 5.000000 0.000000
vt 4.655374 12.673183 0.000000
vt -5.520477 12.673183 0.000000
vn 0.000000 -0.098481 0.017365
vn 0.000000 -0.098481 0.017365
vn 0.000000 -0.100000 0.000000
vn 0.000000 -0.100000 0.000000
vn 0.000000 -0.098481 -0.017365
vn 0.000000 -0.098481 -0.017365
vn 0.000000 -0.093969 -0.034202
vn 0.000000 -0.093969 -0.034202
vn 0.000000 -0.086603 -0.050000
vn 0.000000 -0.086603 -0.050000
vn 0.000000 -0.076604 -0.064279
vn 0.000000 -0.076604 -0.064279
vn 0.000000 -0.064279 -0.076604
vn 0.000000 -0.064279 -0.076604
vn 0.000000 -0.050000 -0.086603
vn 0.000000 -0.050000 -0.086603
vn 0.000000 -0.034202 -0.093969
vn 0.000000 -0.034202 -0.093969
vn 0.000000 -0.017365 -0.098481
vn 0.000000 -0.017365 -0.098481
vn -0.000000 0.000000 -0.100000
vn -0.000000 0.000000 -0.100000
vn -0.000000 0.017365 -0.098481
vn -0.000000 0.017365 -0.098481
vn -0.000000 0.034202 -0.093969
vn -0.000000 0.034202 -0.093969
vn -0.000000 0.050000 -0.086603
vn -0.000000 0.050000 -0.086603
vn -0.000000 0.064279 -0.076604
vn -0.000000 0.064279 -0.076604
vn -0.000000 0.076604 -0.064279
vn -0.000000 0.076604 -0.064279
vn -0.000000 0.086603 -0.050000
vn -0.000000 0.086603 -0.050000
vn -0.000000 0.093969 -0.034202
vn -0.000000 0.093969 -0.034202
vn -0.000000 0.098481 -0.017365
vn -0.000000 0.098481 -0.017365
vn -0.000000 0.100000 -0.000000
vn -0.000000 0.100000 -0.000000
vn 0.000000 0.098481 0.017365
vn 0.000000 0.098481 0.017365
vn 0.000000 0.093969 0.034202
vn 0.000000 0.093969 0.034202
vn 0.000000 0.086603 0.050000
vn 0.000000 0.086603 0.050000
vn 0.000000 0.076604 0.064279
vn 0.000000 0.076604 0.064279
vn 0.000000 0.064279 0.076604
vn 0.000000 0.064279 0.076604
vn 0.000000 0.050000 0.086603
vn 0.000000 0.050000 0.086603
vn 0.000000 0.034202 0.093969
vn 0.000000 0.034202 0.093969
vn 0.000000 0.017365 0.098481
vn 0.000000 0.017365 0.098481
vn 0.000000 0.000000 0.100000
vn 0.000000 0.000000 0.100000
vn 0.000000 -0.017365 0.098481
vn 0.000000 -0.017365 0.098481
vn 0.000000 -0.034202 0.093969
vn 0.000000 -0.034202 0.093969
vn 0.000000 -0.050000 0.086603
vn 0.000000 -0.050000 0.086603
vn 0.000000 -0.064279 0.076604
vn 0.000000 -0.064279 0.076604
vn 0.000000 -0.076604 0.064279
vn 0.000000 -0.076604 0.064279
vn 0.000000 -0.086603 0.050000
vn 0.000000 -0.086603 0.050000
vn 0.000000 -0.093969 0.034202
vn 0.000000 -0.093969 0.034202
vn 0.100000 0.000000 0.000000
vn 0.100000 0.000000 0.000000
vn 0.100000 0.000000 0.000000
vn 0.100000 0.000000 0.000000
vn 0.100000 0.000000 0.000000
vn 0.100000 0.000000 0.000000
vn 0.100000 0.000000 0.000000
vn 0.100000 0.000000 0.000000
vn 0.100000 0.000000 0.000000
vn 0.100000 0.000000 0.000000
vn 0.100000 0.000000 0.000000
vn 0.100000 0.000000 0.000000
vn 0.100000 0.000000 0.000000
vn 0.100000 0.000000 0.000000
vn 0.100000 0.000000 0.000000
vn 0.100000 0.000000 0.000000
vn 0.100000 0.000000 0.000000
vn 0.100000 0.000000 0.000000
vn 0.100000 0.000000 0.000000
vn 0.100000 0.000000 0.000000
vn 0.100000 0.000000 0.000000
vn 0.100000 0.000000 0.000000
vn 0.100000 0.000000 0.000000
vn 0.100000 0.000000 0.000000
vn 0.100000 0.000000 0.000000
vn 0.100000 0.000000 0.000000
vn 0.100000 0.000000 0.000000
vn 0.100000 0.000000 0.000000
vn 0.100000 0.000000 0.000000
vn 0.100000 0.000000 0.000000
vn 0.100000 0.000000 0.000000
vn 0.100000 0.000000 0.000000
vn 0.100000 0.000000 0.000000
vn 0.100000 0.000000 0.000000
vn 0.100000 0.000000 0.000000
vn 0.100000 0.000000 0.000000
vn 0.000000 0.062131 0.078357
vn 0.000000 0.062131 0.078357
vn 0.000000 0.062131 0.078357
vn 0.000000 0.062131 0.078357
vn 0.000000 -0.062131 0.078357
vn 0.000000 -0.062131 0.078357
vn 0.000000 -0.062131 0.078357
vn 0.000000 -0.062131 0.078357
vn 0.000000 0.100000 0.000000
vn 0.000000 0.100000 0.000000
vn 0.000000 0.100000 0.000000
vn 0.000000 0.100000 0.000000
vn 0.100000 0.000000 0.000000
vn 0.100000 0.000000 0.000000
vn 0.100000 0.000000 0.000000
vn 0.100000 0.000000 0.000000
vn -0.100000 0.000000 0.000000
vn -0.100000 0.000000 0.000000
vn -0.100000 0.000000 0.000000
vn -0.100000 0.000000 0.000000
vn 0.000000 0.000000 0.100000
vn 0.000000 0.000000 0.100000
vn 0.000000 0.000000 0.100000
vn 0.000000 0.000000 0.100000
vn 0.100000 0.000000 0.000000
vn 0.100000 0.000000 0.000000
vn 0.100000 0.000000 0.000000
vn 0.100000 0.000000 0.000000
vn 0.100000 0.000000 0.000000
vn 0.100000 0.000000 0.000000
vn 0.100000 0.000000 0.000000
vn 0.100000 0.000000 0.000000
vn 0.100000 0.000000 0.000000
vn 0.100000 0.000000 0.000000
vn 0.100000 0.000000 0.000000
vn 0.100000 0.000000 0.000000
vn 0.100000 0.000000 0.000000
vn 0.100000 0.000000 0.000000
vn 0.100000 0.000000 0.000000
vn 0.100000 0.000000 0.000000
vn 0.100000 0.000000 0.000000
vn 0.100000 0.000000 0.000000
vn 0.100000 0.000000 0.000000
vn 0.100000 0.000000 0.000000
vn 0.100000 0.000000 0.000000
vn 0.100000 0.000000 0.000000
vn 0.100000 0.000000 0.000000
vn 0.100000 0.000000 0.000000
vn 0.100000 0.000000 0.000000
vn 0.100000 0.000000 0.000000
vn 0.100000 0.000000 0.000000
vn 0.100000 0.000000 0.000000
vn 0.100000 0.000000 0.000000
vn 0.100000 0.000000 0.000000
vn 0.100000 0.000000 0.000000
vn 0.100000 0.000000 0.000000
vn 0.100000 0.000000 0.000000
vn 0.100000 0.000000 0.000000
vn 0.100000 0.000000 0.000000
vn 0.100000 0.000000 0.000000
vn 0.100000 0.000000 0.000000
vn 0.100000 0.000000 0.000000
vn 0.100000 0.000000 0.000000
vn 0.100000 0.000000 0.000000
vn 0.100000 0.000000 0.000000
vn 0.000000 -0.100000 0.000000
vn 0.000000 -0.100000 0.000000
vn 0.000000 -0.100000 0.000000
vn 0.000000 -0.100000 0.000000
vn -0.100000 0.000000 0.000000
vn -0.100000 0.000000 0.000000
vn -0.100000 0.000000 0.000000
vn -0.100000 0.000000 0.000000
vn -0.100000 0.000000 0.000000
vn 0.000000 0.100000 0.000000
vn 0.000000 0.100000 0.000000
vn 0.000000 0.100000 0.000000
vn 0.000000 0.100000 0.000000
vn 0.000000 0.100000 0.000000
vn 0.000000 0.100000 0.000000
vn 0.000000 0.100000 0.000000
vn 0.000000 0.100000 0.000000
vn -0.000000 0.000000 -0.100000
vn -0.000000 0.000000 -0.100000
vn -0.000000 0.000000 -0.100000
vn -0.000000 0.000000 -0.100000
vn -0.000000 0.000000 -0.100000
vn -0.000000 0.000000 -0.100000
vn -0.000000 0.000000 -0.100000
vn -0.000000 0.000000 -0.100000
usemtl Steel_-_Satin
f 2/1/1 72/2/2 1/3/3
f 1/3/3 72/2/2 37/4/4
f 1/5/3 37/6/4 36/7/5
f 36/7/5 37/6/4 38/8/6
f 36/7/5 38/8/6 35/9/7
f 35/9/7 38/8/6 39/10/8
f 35/9/7 39/10/8 34/11/9
f 34/11/9 39/10/8 40/12/10
f 34/11/9 40/12/10 33/13/11
f 33/13/11 40/12/10 41/14/12
f 33/13/11 41/14/12 32/15/13
f 32/15/13 41/14/12 42/16/14
f 32/15/13 42/16/14 31/17/15
f 31/17/15 42/16/14 43/18/16
f 31/17/15 43/18/16 30/19/17
f 30/19/17 43/18/16 44/20/18
f 30/19/17 44/20/18 29/21/19
f 29/21/19 44/20/18 45/22/20
f 29/21/19 45/22/20 28/23/21
f 28/23/21 45/22/20 46/24/22
f 28/23/21 46/24/22 27/25/23
f 27/25/23 46/24/22 47/26/24
f 27/25/23 47/26/24 26/27/25
f 26/27/25 47/26/24 48/28/26
f 26/27/25 48/28/26 25/29/27
f 25/29/27 48/28/26 49/30/28
f 25/29/27 49/30/28 24/31/29
f 24/31/29 49/30/28 50/32/30
f 24/31/29 50/32/30 23/33/31
f 23/33/31 50/32/30 51/34/32
f 23/33/31 51/34/32 22/35/33
f 22/35/33 51/34/32 52/36/34
f 22/35/33 52/36/34 21/37/35
f 21/37/35 52/36/34 53/38/36
f 21/37/35 53/38/36 20/39/37
f 20/39/37 53/38/36 54/40/38
f 20/39/37 54/40/38 19/41/39
f 19/41/39 54/40/38 55/42/40
f 19/41/39 55/42/40 18/43/41
f 18/43/41 55/42/40 56/44/42
f 18/43/41 56/44/42 17/45/43
f 17/45/43 56/44/42 57/46/44
f 17/45/43 57/46/44 16/47/45
f 16/47/45 57/46/44 58/48/46
f 16/47/45 58/48/46 15/49/47
f 15/49/47 58/48/46 59/50/48
f 15/49/47 59/50/48 14/51/49
f 14/51/49 59/50/48 60/52/50
f 14/51/49 60/52/50 13/53/51
f 13/53/51 60/52/50 61/54/52
f 13/53/51 61/54/52 12/55/53
f 12/55/53 61/54/52 62/56/54
f 12/55/53 62/56/54 11/57/55
f 11/57/55 62/56/54 63/58/56
f 11/57/55 63/58/56 10/59/57
f 10/59/57 63/58/56 64/60/58
f 10/59/57 64/60/58 9/61/59
f 9/61/59 64/60/58 65/62/60
f 9/61/59 65/62/60 8/63/61
f 8/63/61 65/62/60 66/64/62
f 8/63/61 66/64/62 7/65/63
f 7/65/63 66/64/62 67/66/64
f 7/65/63 67/66/64 6/67/65
f 6/67/65 67/66/64 68/68/66
f 6/67/65 68/68/66 5/69/67
f 5/69/67 68/68/66 69/70/68
f 5/69/67 69/70/68 4/71/69
f 4/71/69 69/70/68 70/72/70
f 4/71/69 70/72/70 3/73/71
f 3/73/71 70/72/70 71/74/72
f 3/73/71 71/74/72 2/1/1
f 2/1/1 71/74/72 72/2/2
f 36/75/73 20/76/74 1/77/75
f 1/77/75 20/76/74 19/78/76
f 1/77/75 19/78/76 2/79/77
f 2/79/77 19/78/76 18/80/78
f 2/79/77 18/80/78 3/81/79
f 3/81/79 18/80/78 17/82/80
f 3/81/79 17/82/80 4/83/81
f 4/83/81 17/82/80 16/84/82
f 4/83/81 16/84/82 5/85/83
f 5/85/83 16/84/82 15/86/84
f 5/85/83 15/86/84 6/87/85
f 6/87/85 15/86/84 14/88/86
f 6/87/85 14/88/86 7/89/87
f 7/89/87 14/88/86 13/90/88
f 7/89/87 13/90/88 8/91/89
f 8/91/89 13/90/88 12/92/90
f 8/91/89 12/92/90 9/93/91
f 9/93/91 12/92/90 11/94/92
f 9/93/91 11/94/92 10/95/93
f 20/76/74 36/75/73 21/96/94
f 21/96/94 36/75/73 35/97/95
f 21/96/94 35/97/95 22/98/96
f 22/98/96 35/97/95 34/99/97
f 22/98/96 34/99/97 23/100/98
f 23/100/98 34/99/97 33/101/99
f 23/100/98 33/101/99 24/102/100
f 24/102/100 33/101/99 32/103/101
f 24/102/100 32/103/101 25/104/102
f 25/104/102 32/103/101 31/105/103
f 25/104/102 31/105/103 26/106/104
f 26/106/104 31/105/103 30/107/105
f 26/106/104 30/107/105 27/108/106
f 27/108/106 30/107/105 29/109/107
f 27/108/106 29/109/107 28/110/108
f 73/111/109 74/112/110 76/113/111
f 76/113/111 74/112/110 75/114/112
f 77/115/113 73/116/114 78/117/115
f 78/117/115 73/116/114 76/118/116
f 79/119/117 80/120/118 82/121/119
f 82/121/119 80/120/118 81/122/120
f 83/123/121 79/124/122 84/125/123
f 84/125/123 79/124/122 82/126/124
f 80/127/125 85/128/126 81/129/127
f 81/129/127 85/128/126 86/130/128
f 86/131/129 84/132/130 81/133/131
f 81/133/131 84/132/130 82/134/132
f 38/135/133 37/136/134 87/137/135
f 87/137/135 37/136/134 72/138/136
f 87/137/135 72/138/136 71/139/137
f 87/137/135 71/139/137 77/140/138
f 77/140/138 71/139/137 70/141/139
f 77/140/138 70/141/139 69/142/140
f 69/142/140 68/143/141 77/140/138
f 77/140/138 68/143/141 67/144/142
f 77/140/138 67/144/142 66/145/143
f 77/140/138 66/145/143 73/146/144
f 73/146/144 66/145/143 65/147/145
f 73/146/144 65/147/145 64/148/146
f 73/146/144 64/148/146 74/149/147
f 74/149/147 64/148/146 63/150/148
f 74/149/147 63/150/148 62/151/149
f 62/151/149 61/152/150 74/149/147
f 74/149/147 61/152/150 60/153/151
f 74/149/147 60/153/151 59/154/152
f 59/154/152 58/155/153 74/149/147
f 74/149/147 58/155/153 57/156/154
f 74/149/147 57/156/154 88/157/155
f 88/157/155 57/156/154 56/158/156
f 88/157/155 56/158/156 55/159/157
f 55/159/157 54/160/158 88/157/155
f 88/157/155 54/160/158 53/161/159
f 88/157/155 53/161/159 52/162/160
f 52/162/160 51/163/161 88/157/155
f 88/157/155 51/163/161 50/164/162
f 88/157/155 50/164/162 49/165/163
f 49/165/163 48/166/164 88/157/155
f 88/157/155 48/166/164 47/167/165
f 88/157/155 47/167/165 46/168/166
f 88/157/155 46/168/166 87/137/135
f 87/137/135 46/168/166 45/169/167
f 87/137/135 45/169/167 44/170/168
f 44/170/168 43/171/169 87/137/135
f 87/137/135 43/171/169 42/172/170
f 87/137/135 42/172/170 41/173/171
f 41/173/171 40/174/172 87/137/135
f 87/137/135 40/174/172 39/175/173
f 87/137/135 39/175/173 38/135/133
f 89/176/174 87/177/175 78/178/176
f 78/178/176 87/177/175 77/179/177
f 90/180/178 89/181/179 75/182/180
f 75/182/180 89/181/179 78/183/181
f 75/182/180 78/183/181 76/184/182
f 85/185/183 90/186/184 86/187/185
f 86/187/185 90/186/184 75/188/186
f 86/187/185 75/188/186 74/189/187
f 86/187/185 74/189/187 84/190/188
f 84/190/188 74/189/187 88/191/189
f 84/190/188 88/191/189 83/192/190
f 90/193/191 85/194/192 89/195/193
f 89/195/193 85/194/192 87/196/194
f 87/196/194 85/194/192 83/197/195
f 87/196/194 83/197/195 88/198/196
f 80/199/197 79/200/198 85/194/192
f 85/194/192 79/200/198 83/197/195
# 90 vertices
# 200 texture params
# 198 normals
# 176 facets

# 1 groups
