# WaveFront *.obj file (generated by Autodesk ATF)

mtllib Houses v8_Houses v8_Body515.mtl

g Body515

v -810.429045 -1262.750000 429.140601
v -809.429045 -1262.750000 429.140601
v -809.429045 -1260.000000 430.021177
v -810.429045 -1260.000000 430.021177
v -809.429045 -1217.250000 462.448946
v -810.429045 -1217.250000 462.448946
v -810.429045 -1220.000000 457.514060
v -809.429045 -1220.000000 457.514060
v -809.429045 -1260.000000 430.000000
v -810.429045 -1260.000000 430.000000
v -809.429045 -1262.750000 427.250000
v -809.429045 -1217.250000 427.250000
v -809.429045 -1220.000000 430.000000
v -810.429045 -1220.000000 430.000000
v -810.429045 -1262.750000 427.250000
v -810.429045 -1217.250000 427.250000
vt -3.442965 0.900000 0.000000
vt -3.154211 0.900000 0.000000
vt -3.442965 1.000000 0.000000
vt -3.154211 1.000000 0.000000
vt -4.870014 1.000000 0.000000
vt -5.434953 1.000000 0.000000
vt -4.870014 0.900000 0.000000
vt -5.434953 0.900000 0.000000
vt 0.002118 0.100000 0.000000
vt 0.000000 0.100000 0.000000
vt 0.002118 0.000000 0.000000
vt 0.000000 0.000000 0.000000
vt 1.997882 -2.000000 0.000000
vt 2.085940 -2.275000 0.000000
vt 2.000000 -2.000000 0.000000
vt 2.275000 -2.275000 0.000000
vt 2.000000 2.000000 0.000000
vt 2.275000 2.275000 0.000000
vt -0.751406 2.000000 0.000000
vt -1.244895 2.275000 0.000000
vt 1.248594 0.000000 0.000000
vt 4.000000 0.000000 0.000000
vt 1.248594 0.100000 0.000000
vt 4.000000 0.100000 0.000000
vt 0.000000 0.000000 0.000000
vt 4.000000 0.000000 0.000000
vt 0.000000 0.100000 0.000000
vt 4.000000 0.100000 0.000000
vt 0.000000 0.000000 0.000000
vt 4.550000 0.000000 0.000000
vt 0.000000 0.100000 0.000000
vt 4.550000 0.100000 0.000000
vt 4.360940 0.000000 0.000000
vt 4.550000 0.000000 0.000000
vt 4.360940 0.100000 0.000000
vt 4.550000 0.100000 0.000000
vt 3.519895 0.100000 0.000000
vt 0.000000 0.100000 0.000000
vt 3.519895 0.000000 0.000000
vt 0.000000 0.000000 0.000000
vt 2.000000 -1.997882 0.000000
vt 2.000000 -2.000000 0.000000
vt 2.275000 -2.085940 0.000000
vt 2.275000 -2.275000 0.000000
vt -2.000000 -2.000000 0.000000
vt -2.275000 -2.275000 0.000000
vt -2.000000 0.751406 0.000000
vt -2.275000 1.244895 0.000000
vn 0.000000 -0.030496 0.095237
vn 0.000000 -0.030496 0.095237
vn 0.000000 -0.030496 0.095237
vn 0.000000 -0.030496 0.095237
vn 0.000000 -0.087353 0.048678
vn 0.000000 -0.087353 0.048678
vn 0.000000 -0.087353 0.048678
vn 0.000000 -0.087353 0.048678
vn 0.000000 0.100000 0.000000
vn 0.000000 0.100000 0.000000
vn 0.000000 0.100000 0.000000
vn 0.000000 0.100000 0.000000
vn 0.100000 0.000000 0.000000
vn 0.100000 0.000000 0.000000
vn 0.100000 0.000000 0.000000
vn 0.100000 0.000000 0.000000
vn 0.100000 0.000000 0.000000
vn 0.100000 0.000000 0.000000
vn 0.100000 0.000000 0.000000
vn 0.100000 0.000000 0.000000
vn 0.000000 -0.100000 0.000000
vn 0.000000 -0.100000 0.000000
vn 0.000000 -0.100000 0.000000
vn 0.000000 -0.100000 0.000000
vn 0.000000 0.000000 0.100000
vn 0.000000 0.000000 0.100000
vn 0.000000 0.000000 0.100000
vn 0.000000 0.000000 0.100000
vn 0.000000 0.000000 -0.100000
vn 0.000000 0.000000 -0.100000
vn 0.000000 0.000000 -0.100000
vn 0.000000 0.000000 -0.100000
vn 0.000000 -0.100000 0.000000
vn 0.000000 -0.100000 0.000000
vn 0.000000 -0.100000 0.000000
vn 0.000000 -0.100000 0.000000
vn 0.000000 0.100000 0.000000
vn 0.000000 0.100000 0.000000
vn 0.000000 0.100000 0.000000
vn 0.000000 0.100000 0.000000
vn -0.100000 0.000000 0.000000
vn -0.100000 0.000000 0.000000
vn -0.100000 0.000000 0.000000
vn -0.100000 0.000000 0.000000
vn -0.100000 0.000000 0.000000
vn -0.100000 0.000000 0.000000
vn -0.100000 0.000000 0.000000
vn -0.100000 0.000000 0.000000
usemtl Steel_-_Satin
f 2/1/1 3/2/2 1/3/3
f 1/3/3 3/2/2 4/4/4
f 6/5/5 7/6/6 5/7/7
f 5/7/7 7/6/6 8/8/8
f 3/9/9 9/10/10 4/11/11
f 4/11/11 9/10/10 10/12/12
f 3/13/13 2/14/14 9/15/15
f 9/15/15 2/14/14 11/16/16
f 9/15/15 11/16/16 13/17/17
f 13/17/17 11/16/16 12/18/18
f 13/17/17 12/18/18 8/19/19
f 8/19/19 12/18/18 5/20/20
f 7/21/21 14/22/22 8/23/23
f 8/23/23 14/22/22 13/24/24
f 14/25/25 10/26/26 13/27/27
f 13/27/27 10/26/26 9/28/28
f 15/29/29 16/30/30 11/31/31
f 11/31/31 16/30/30 12/32/32
f 1/33/33 15/34/34 2/35/35
f 2/35/35 15/34/34 11/36/36
f 5/37/37 12/38/38 6/39/39
f 6/39/39 12/38/38 16/40/40
f 4/41/41 10/42/42 1/43/43
f 1/43/43 10/42/42 15/44/44
f 15/44/44 10/42/42 14/45/45
f 15/44/44 14/45/45 16/46/46
f 16/46/46 14/45/45 7/47/47
f 16/46/46 7/47/47 6/48/48
# 16 vertices
# 48 texture params
# 48 normals
# 28 facets

# 1 groups
