# WaveFront *.obj file (generated by Autodesk ATF)

mtllib Houses v8_Houses v8_Body707.mtl

g Body707

v -1262.182371 -1065.494398 0.000000
v -1273.786483 -1040.453946 0.000000
v -1273.786483 -1040.453946 8.000000
v -1262.182371 -1065.494398 8.000000
v -1250.000000 -1040.000000 0.000000
v -1250.000000 -1040.000000 8.000000
v -1254.626682 -1003.786448 0.000000
v -1254.626682 -1003.786448 8.000000
v -1213.322952 -956.782190 0.000000
v -1213.322952 -956.782190 8.000000
v -1130.000000 -1030.000000 0.000000
v -1130.000000 -1030.000000 8.000000
v -1260.000000 -1170.000000 0.000000
v -1260.000000 -1170.000000 8.000000
v -1296.714315 -1208.510460 0.000000
v -1296.714315 -1208.510460 8.000000
v -1290.000000 -1150.000000 0.000000
v -1290.000000 -1150.000000 8.000000
v -1314.095504 -1152.830610 0.000000
v -1314.095504 -1152.830610 8.000000
v -1300.048421 -1110.078618 0.000000
v -1300.048421 -1110.078618 8.000000
v -1322.035159 -1094.199307 0.000000
v -1322.035159 -1094.199307 8.000000
v -1278.061682 -1077.709253 0.000000
v -1278.061682 -1077.709253 8.000000
vt 0.000000 0.000000 0.000000
vt 2.759854 0.000000 0.000000
vt 0.000000 0.800000 0.000000
vt 2.759854 0.800000 0.000000
vt 0.000000 0.000000 0.000000
vt 2.825552 0.000000 0.000000
vt 0.000000 0.800000 0.000000
vt 2.825552 0.800000 0.000000
vt 0.000000 0.000000 0.000000
vt 3.650791 0.000000 0.000000
vt 0.000000 0.800000 0.000000
vt 3.650791 0.800000 0.000000
vt 0.000000 0.000000 0.000000
vt 6.257314 0.000000 0.000000
vt 0.000000 0.800000 0.000000
vt 6.257314 0.800000 0.000000
vt 0.000000 0.000000 0.000000
vt 11.092142 0.000000 0.000000
vt 0.000000 0.800000 0.000000
vt 11.092142 0.800000 0.000000
vt 0.000000 0.000000 0.000000
vt 19.104973 0.000000 0.000000
vt 0.000000 0.800000 0.000000
vt 19.104973 0.800000 0.000000
vt 0.000000 0.000000 0.000000
vt 5.320711 0.000000 0.000000
vt 0.000000 0.800000 0.000000
vt 5.320711 0.800000 0.000000
vt 0.000000 0.000000 0.000000
vt 5.889445 0.000000 0.000000
vt 0.000000 0.800000 0.000000
vt 5.889445 0.800000 0.000000
vt 0.000000 0.000000 0.000000
vt 2.426120 0.000000 0.000000
vt 0.000000 0.800000 0.000000
vt 2.426120 0.800000 0.000000
vt 0.000000 0.000000 0.000000
vt 4.500059 0.000000 0.000000
vt 0.000000 0.800000 0.000000
vt 4.500059 0.800000 0.000000
vt 0.000000 0.000000 0.000000
vt 2.712138 0.000000 0.000000
vt 0.000000 0.800000 0.000000
vt 2.712138 0.800000 0.000000
vt 0.000000 0.000000 0.000000
vt 4.696369 0.000000 0.000000
vt 0.000000 0.800000 0.000000
vt 4.696369 0.800000 0.000000
vt 0.000000 0.000000 0.000000
vt 3.749980 0.000000 0.000000
vt 0.000000 0.800000 0.000000
vt 3.749980 0.800000 0.000000
vt -4.776890 4.219238 0.000000
vt -5.204410 0.493707 0.000000
vt -3.616479 1.715193 0.000000
vt -3.398242 -8.735367 0.000000
vt 9.601758 5.264633 0.000000
vt -9.601758 -1.155298 0.000000
vt -7.403084 -2.743229 0.000000
vt -6.398242 -6.735367 0.000000
vt -7.069674 -12.586413 0.000000
vt -8.807792 -7.018428 0.000000
vt -2.398242 4.264633 0.000000
vt 1.269463 12.586413 0.000000
vt -2.860910 7.885988 0.000000
vt 4.776890 4.219238 0.000000
vt 3.616479 1.715193 0.000000
vt 5.204410 0.493707 0.000000
vt 3.398242 -8.735367 0.000000
vt 6.398242 -6.735367 0.000000
vt 7.069674 -12.586413 0.000000
vt -9.601758 5.264633 0.000000
vt 2.398242 4.264633 0.000000
vt -1.269463 12.586413 0.000000
vt 2.860910 7.885988 0.000000
vt 8.807792 -7.018428 0.000000
vt 7.403084 -2.743229 0.000000
vt 9.601758 -1.155298 0.000000
vn 0.090731 0.042046 0.000000
vn 0.090731 0.042046 0.000000
vn 0.090731 0.042046 0.000000
vn 0.090731 0.042046 0.000000
vn -0.090228 0.043115 0.000000
vn -0.090228 0.043115 0.000000
vn -0.090228 0.043115 0.000000
vn -0.090228 0.043115 0.000000
vn -0.099194 -0.012673 0.000000
vn -0.099194 -0.012673 0.000000
vn -0.099194 -0.012673 0.000000
vn -0.099194 -0.012673 0.000000
vn -0.075119 0.066009 0.000000
vn -0.075119 0.066009 0.000000
vn -0.075119 0.066009 0.000000
vn -0.075119 0.066009 0.000000
vn 0.066009 0.075119 0.000000
vn 0.066009 0.075119 0.000000
vn 0.066009 0.075119 0.000000
vn 0.066009 0.075119 0.000000
vn 0.073279 -0.068045 0.000000
vn 0.073279 -0.068045 0.000000
vn 0.073279 -0.068045 0.000000
vn 0.073279 -0.068045 0.000000
vn 0.072378 -0.069003 0.000000
vn 0.072378 -0.069003 0.000000
vn 0.072378 -0.069003 0.000000
vn 0.072378 -0.069003 0.000000
vn -0.099348 0.011401 0.000000
vn -0.099348 0.011401 0.000000
vn -0.099348 0.011401 0.000000
vn -0.099348 0.011401 0.000000
vn 0.011667 -0.099317 0.000000
vn 0.011667 -0.099317 0.000000
vn 0.011667 -0.099317 0.000000
vn 0.011667 -0.099317 0.000000
vn -0.095003 0.031215 0.000000
vn -0.095003 0.031215 0.000000
vn -0.095003 0.031215 0.000000
vn -0.095003 0.031215 0.000000
vn -0.058549 -0.081068 0.000000
vn -0.058549 -0.081068 0.000000
vn -0.058549 -0.081068 0.000000
vn -0.058549 -0.081068 0.000000
vn -0.035112 0.093633 0.000000
vn -0.035112 0.093633 0.000000
vn -0.035112 0.093633 0.000000
vn -0.035112 0.093633 0.000000
vn -0.099348 0.011401 0.000000
vn -0.099348 0.011401 0.000000
vn -0.099348 0.011401 0.000000
vn -0.099348 0.011401 0.000000
vn 0.000000 0.000000 0.100000
vn 0.000000 0.000000 0.100000
vn 0.000000 0.000000 0.100000
vn 0.000000 0.000000 0.100000
vn 0.000000 0.000000 0.100000
vn 0.000000 0.000000 0.100000
vn 0.000000 0.000000 0.100000
vn 0.000000 0.000000 0.100000
vn 0.000000 0.000000 0.100000
vn 0.000000 0.000000 0.100000
vn 0.000000 0.000000 0.100000
vn 0.000000 0.000000 0.100000
vn 0.000000 0.000000 0.100000
vn -0.000000 0.000000 -0.100000
vn -0.000000 0.000000 -0.100000
vn -0.000000 0.000000 -0.100000
vn -0.000000 0.000000 -0.100000
vn -0.000000 0.000000 -0.100000
vn -0.000000 0.000000 -0.100000
vn -0.000000 0.000000 -0.100000
vn -0.000000 0.000000 -0.100000
vn -0.000000 0.000000 -0.100000
vn -0.000000 0.000000 -0.100000
vn -0.000000 0.000000 -0.100000
vn -0.000000 0.000000 -0.100000
vn -0.000000 0.000000 -0.100000
usemtl Steel_-_Satin
f 1/1/1 2/2/2 4/3/3
f 4/3/3 2/2/2 3/4/4
f 5/5/5 1/6/6 6/7/7
f 6/7/7 1/6/6 4/8/8
f 7/9/9 5/10/10 8/11/11
f 8/11/11 5/10/10 6/12/12
f 9/13/13 7/14/14 10/15/15
f 10/15/15 7/14/14 8/16/16
f 11/17/17 9/18/18 12/19/19
f 12/19/19 9/18/18 10/20/20
f 13/21/21 11/22/22 14/23/23
f 14/23/23 11/22/22 12/24/24
f 15/25/25 13/26/26 16/27/27
f 16/27/27 13/26/26 14/28/28
f 17/29/29 15/30/30 18/31/31
f 18/31/31 15/30/30 16/32/32
f 19/33/33 17/34/34 20/35/35
f 20/35/35 17/34/34 18/36/36
f 21/37/37 19/38/38 22/39/39
f 22/39/39 19/38/38 20/40/40
f 23/41/41 21/42/42 24/43/43
f 24/43/43 21/42/42 22/44/44
f 25/45/45 23/46/46 26/47/47
f 26/47/47 23/46/46 24/48/48
f 2/49/49 25/50/50 3/51/51
f 3/51/51 25/50/50 26/52/52
f 3/53/53 26/54/54 4/55/55
f 4/55/55 26/54/54 14/56/56
f 4/55/55 14/56/56 12/57/57
f 24/58/58 22/59/59 26/54/54
f 26/54/54 22/59/59 18/60/60
f 26/54/54 18/60/60 14/56/56
f 14/56/56 18/60/60 16/61/61
f 22/59/59 20/62/62 18/60/60
f 4/55/55 12/57/57 6/63/63
f 6/63/63 12/57/57 10/64/64
f 6/63/63 10/64/64 8/65/65
f 2/66/66 1/67/67 25/68/68
f 25/68/68 1/67/67 13/69/69
f 25/68/68 13/69/69 17/70/70
f 17/70/70 13/69/69 15/71/71
f 13/69/69 1/67/67 11/72/72
f 11/72/72 1/67/67 5/73/73
f 11/72/72 5/73/73 9/74/74
f 9/74/74 5/73/73 7/75/75
f 19/76/76 21/77/77 17/70/70
f 17/70/70 21/77/77 25/68/68
f 21/77/77 23/78/78 25/68/68
# 26 vertices
# 78 texture params
# 78 normals
# 48 facets

# 1 groups
