# WaveFront *.obj file (generated by Autodesk ATF)

mtllib Houses v8_Houses v8_Body335.mtl

g Body335

v 1142.265511 1092.551259 39.972704
v 1142.281625 1092.567372 39.712232
v 1142.329477 1092.615224 39.459674
v 1142.407613 1092.693360 39.222704
v 1142.513658 1092.799406 39.008523
v 1142.644392 1092.930140 38.823638
v 1142.795841 1093.081589 38.673666
v 1142.963404 1093.249152 38.563165
v 1143.141989 1093.427737 38.495493
v 1143.326171 1093.611919 38.472704
v 1143.510353 1093.796101 38.495493
v 1143.688938 1093.974686 38.563165
v 1143.856501 1094.142249 38.673666
v 1144.007950 1094.293698 38.823638
v 1144.138684 1094.424432 39.008523
v 1144.244730 1094.530477 39.222704
v 1144.322866 1094.608613 39.459674
v 1144.370718 1094.656465 39.712232
v 1144.386831 1094.672579 39.972704
v 1144.370718 1094.656465 40.233177
v 1144.322866 1094.608613 40.485734
v 1144.244730 1094.530477 40.722704
v 1144.138684 1094.424432 40.936886
v 1144.007950 1094.293698 41.121771
v 1143.856501 1094.142249 41.271742
v 1143.688938 1093.974686 41.382243
v 1143.510353 1093.796101 41.449916
v 1143.326171 1093.611919 41.472704
v 1143.141989 1093.427737 41.449916
v 1142.963404 1093.249152 41.382243
v 1142.795841 1093.081589 41.271742
v 1142.644392 1092.930140 41.121771
v 1142.513658 1092.799406 40.936886
v 1142.407613 1092.693360 40.722704
v 1142.329477 1092.615224 40.485734
v 1142.281625 1092.567372 40.233177
v 1142.194800 1092.621969 39.972704
v 1142.210914 1092.638083 40.233177
v 1142.258766 1092.685935 40.485734
v 1142.336902 1092.764071 40.722704
v 1142.442948 1092.870117 40.936886
v 1142.573681 1093.000850 41.121771
v 1142.725130 1093.152299 41.271742
v 1142.892693 1093.319862 41.382243
v 1143.071279 1093.498448 41.449916
v 1143.255460 1093.682629 41.472704
v 1143.439642 1093.866811 41.449916
v 1143.618228 1094.045397 41.382243
v 1143.785791 1094.212960 41.271742
v 1143.937240 1094.364409 41.121771
v 1144.067973 1094.495142 40.936886
v 1144.174019 1094.601188 40.722704
v 1144.252155 1094.679324 40.485734
v 1144.300007 1094.727176 40.233177
v 1144.316121 1094.743290 39.972704
v 1144.300007 1094.727176 39.712232
v 1144.252155 1094.679324 39.459674
v 1144.174019 1094.601188 39.222704
v 1144.067973 1094.495142 39.008523
v 1143.937240 1094.364409 38.823638
v 1143.785791 1094.212960 38.673666
v 1143.618228 1094.045397 38.563165
v 1143.439642 1093.866811 38.495493
v 1143.255460 1093.682629 38.472704
v 1143.071279 1093.498448 38.495493
v 1142.892693 1093.319862 38.563165
v 1142.725130 1093.152299 38.673666
v 1142.573681 1093.000850 38.823638
v 1142.442948 1092.870117 39.008523
v 1142.336902 1092.764071 39.222704
v 1142.258766 1092.685935 39.459674
v 1142.210914 1092.638083 39.712232
v 1130.975041 1081.402210 60.000000
v 1130.975041 1081.402210 20.000000
v 1131.045752 1081.331500 20.000000
v 1131.045752 1081.331500 60.000000
v 1145.117177 1095.544346 60.000000
v 1145.187888 1095.473635 60.000000
v 1145.117177 1095.544346 20.000000
v 1145.187888 1095.473635 20.000000
vt 0.010000 -0.445059 0.000000
vt 0.000000 -0.445059 0.000000
vt 0.010000 -0.471239 0.000000
vt -0.000000 -0.471239 0.000000
vt 0.010000 0.471239 0.000000
vt -0.000000 0.471239 0.000000
vt 0.010000 0.445059 0.000000
vt 0.000000 0.445059 0.000000
vt 0.010000 0.418879 0.000000
vt 0.000000 0.418879 0.000000
vt 0.010000 0.392699 0.000000
vt 0.000000 0.392699 0.000000
vt 0.010000 0.366519 0.000000
vt 0.000000 0.366519 0.000000
vt 0.010000 0.340339 0.000000
vt 0.000000 0.340339 0.000000
vt 0.010000 0.314159 0.000000
vt 0.000000 0.314159 0.000000
vt 0.010000 0.287979 0.000000
vt 0.000000 0.287979 0.000000
vt 0.010000 0.261799 0.000000
vt 0.000000 0.261799 0.000000
vt 0.010000 0.235619 0.000000
vt 0.000000 0.235619 0.000000
vt 0.010000 0.209440 0.000000
vt 0.000000 0.209440 0.000000
vt 0.010000 0.183260 0.000000
vt 0.000000 0.183260 0.000000
vt 0.010000 0.157080 0.000000
vt 0.000000 0.157080 0.000000
vt 0.010000 0.130900 0.000000
vt -0.000000 0.130900 0.000000
vt 0.010000 0.104720 0.000000
vt -0.000000 0.104720 0.000000
vt 0.010000 0.078540 0.000000
vt 0.000000 0.078540 0.000000
vt 0.010000 0.052360 0.000000
vt 0.000000 0.052360 0.000000
vt 0.010000 0.026180 0.000000
vt -0.000000 0.026180 0.000000
vt 0.010000 -0.000000 0.000000
vt 0.000000 -0.000000 0.000000
vt 0.010000 -0.026180 0.000000
vt -0.000000 -0.026180 0.000000
vt 0.010000 -0.052360 0.000000
vt -0.000000 -0.052360 0.000000
vt 0.010000 -0.078540 0.000000
vt -0.000000 -0.078540 0.000000
vt 0.010000 -0.104720 0.000000
vt -0.000000 -0.104720 0.000000
vt 0.010000 -0.130900 0.000000
vt -0.000000 -0.130900 0.000000
vt 0.010000 -0.157080 0.000000
vt -0.000000 -0.157080 0.000000
vt 0.010000 -0.183260 0.000000
vt -0.000000 -0.183260 0.000000
vt 0.010000 -0.209440 0.000000
vt -0.000000 -0.209440 0.000000
vt 0.010000 -0.235619 0.000000
vt -0.000000 -0.235619 0.000000
vt 0.010000 -0.261799 0.000000
vt -0.000000 -0.261799 0.000000
vt 0.010000 -0.287979 0.000000
vt -0.000000 -0.287979 0.000000
vt 0.010000 -0.314159 0.000000
vt -0.000000 -0.314159 0.000000
vt 0.010000 -0.340339 0.000000
vt 0.000000 -0.340339 0.000000
vt 0.010000 -0.366519 0.000000
vt 0.000000 -0.366519 0.000000
vt 0.010000 -0.392699 0.000000
vt -0.000000 -0.392699 0.000000
vt 0.010000 -0.418879 0.000000
vt -0.000000 -0.418879 0.000000
vt 0.000000 0.000000 0.000000
vt 4.000000 -0.000000 0.000000
vt 0.000000 0.010000 0.000000
vt 4.000000 0.010000 0.000000
vt -0.000000 0.000000 0.000000
vt 2.000000 0.000000 0.000000
vt 0.000000 0.010000 0.000000
vt 2.000000 0.010000 0.000000
vt 0.000000 0.000000 0.000000
vt 4.000000 0.000000 0.000000
vt -0.000000 0.010000 0.000000
vt 4.000000 0.010000 0.000000
vt 0.000000 0.000000 0.000000
vt 2.000000 -0.000000 0.000000
vt 0.000000 0.010000 0.000000
vt 2.000000 0.010000 0.000000
vt 0.588992 0.023318 0.000000
vt -1.000000 2.000000 0.000000
vt 0.586714 -0.002730 0.000000
vt -1.000000 -2.000000 0.000000
vt 0.588992 -0.028777 0.000000
vt 0.595760 -0.054033 0.000000
vt 0.606810 -0.077730 0.000000
vt 1.000000 -2.000000 0.000000
vt 0.621807 -0.099148 0.000000
vt 0.640295 -0.117636 0.000000
vt 0.661714 -0.132633 0.000000
vt 0.685411 -0.143683 0.000000
vt 0.710666 -0.150451 0.000000
vt 0.736714 -0.152730 0.000000
vt 0.762761 -0.150451 0.000000
vt 0.788017 -0.143683 0.000000
vt 0.811714 -0.132633 0.000000
vt 0.833132 -0.117636 0.000000
vt 0.851620 -0.099148 0.000000
vt 0.866617 -0.077730 0.000000
vt 0.877667 -0.054033 0.000000
vt 0.884435 -0.028777 0.000000
vt 0.886714 -0.002730 0.000000
vt 1.000000 2.000000 0.000000
vt 0.884435 0.023318 0.000000
vt 0.877667 0.048573 0.000000
vt 0.866617 0.072270 0.000000
vt 0.851620 0.093689 0.000000
vt 0.833132 0.112177 0.000000
vt 0.811714 0.127174 0.000000
vt 0.788017 0.138224 0.000000
vt 0.762761 0.144992 0.000000
vt 0.736714 0.147270 0.000000
vt 0.710666 0.144992 0.000000
vt 0.685411 0.138224 0.000000
vt 0.661714 0.127174 0.000000
vt 0.640295 0.112177 0.000000
vt 0.621807 0.093689 0.000000
vt 0.606810 0.072270 0.000000
vt 0.595760 0.048573 0.000000
vt -0.588992 -0.028777 0.000000
vt 1.000000 -2.000000 0.000000
vt -0.586714 -0.002730 0.000000
vt 1.000000 2.000000 0.000000
vt -0.588992 0.023318 0.000000
vt -0.595760 0.048573 0.000000
vt -0.606810 0.072270 0.000000
vt -1.000000 2.000000 0.000000
vt -0.621807 0.093689 0.000000
vt -0.640295 0.112177 0.000000
vt -0.661714 0.127174 0.000000
vt -0.685411 0.138224 0.000000
vt -0.710666 0.144992 0.000000
vt -0.736714 0.147270 0.000000
vt -0.762761 0.144992 0.000000
vt -0.788017 0.138224 0.000000
vt -0.811714 0.127174 0.000000
vt -0.833132 0.112177 0.000000
vt -0.851620 0.093689 0.000000
vt -0.866617 0.072270 0.000000
vt -0.877667 0.048573 0.000000
vt -0.884435 0.023318 0.000000
vt -0.886714 -0.002730 0.000000
vt -1.000000 -2.000000 0.000000
vt -0.884435 -0.028777 0.000000
vt -0.877667 -0.054033 0.000000
vt -0.866617 -0.077730 0.000000
vt -0.851620 -0.099148 0.000000
vt -0.833132 -0.117636 0.000000
vt -0.811714 -0.132633 0.000000
vt -0.788017 -0.143683 0.000000
vt -0.762761 -0.150451 0.000000
vt -0.736714 -0.152730 0.000000
vt -0.710666 -0.150451 0.000000
vt -0.685411 -0.143683 0.000000
vt -0.661714 -0.132633 0.000000
vt -0.640295 -0.117636 0.000000
vt -0.621807 -0.099148 0.000000
vt -0.606810 -0.077730 0.000000
vt -0.595760 -0.054033 0.000000
vn 0.069636 0.069636 0.017365
vn 0.069636 0.069636 0.017365
vn 0.070711 0.070711 0.000000
vn 0.070711 0.070711 0.000000
vn 0.069636 0.069636 -0.017365
vn 0.069636 0.069636 -0.017365
vn 0.066446 0.066446 -0.034202
vn 0.066446 0.066446 -0.034202
vn 0.061237 0.061237 -0.050000
vn 0.061237 0.061237 -0.050000
vn 0.054168 0.054168 -0.064279
vn 0.054168 0.054168 -0.064279
vn 0.045452 0.045452 -0.076604
vn 0.045452 0.045452 -0.076604
vn 0.035355 0.035355 -0.086603
vn 0.035355 0.035355 -0.086603
vn 0.024184 0.024184 -0.093969
vn 0.024184 0.024184 -0.093969
vn 0.012279 0.012279 -0.098481
vn 0.012279 0.012279 -0.098481
vn -0.000000 -0.000000 -0.100000
vn 0.000000 -0.000000 -0.100000
vn -0.012279 -0.012279 -0.098481
vn -0.012279 -0.012279 -0.098481
vn -0.024184 -0.024184 -0.093969
vn -0.024184 -0.024184 -0.093969
vn -0.035355 -0.035355 -0.086603
vn -0.035355 -0.035355 -0.086603
vn -0.045452 -0.045452 -0.076604
vn -0.045452 -0.045452 -0.076604
vn -0.054168 -0.054168 -0.064279
vn -0.054168 -0.054168 -0.064279
vn -0.061237 -0.061237 -0.050000
vn -0.061237 -0.061237 -0.050000
vn -0.066446 -0.066446 -0.034202
vn -0.066446 -0.066446 -0.034202
vn -0.069636 -0.069636 -0.017365
vn -0.069636 -0.069636 -0.017365
vn -0.070711 -0.070711 0.000000
vn -0.070711 -0.070711 -0.000000
vn -0.069636 -0.069636 0.017365
vn -0.069636 -0.069636 0.017365
vn -0.066446 -0.066446 0.034202
vn -0.066446 -0.066446 0.034202
vn -0.061237 -0.061237 0.050000
vn -0.061237 -0.061237 0.050000
vn -0.054168 -0.054168 0.064279
vn -0.054168 -0.054168 0.064279
vn -0.045452 -0.045452 0.076604
vn -0.045452 -0.045452 0.076604
vn -0.035355 -0.035355 0.086603
vn -0.035355 -0.035355 0.086603
vn -0.024184 -0.024184 0.093969
vn -0.024184 -0.024184 0.093969
vn -0.012279 -0.012279 0.098481
vn -0.012279 -0.012279 0.098481
vn -0.000000 -0.000000 0.100000
vn -0.000000 -0.000000 0.100000
vn 0.012279 0.012279 0.098481
vn 0.012279 0.012279 0.098481
vn 0.024184 0.024184 0.093969
vn 0.024184 0.024184 0.093969
vn 0.035355 0.035355 0.086603
vn 0.035355 0.035355 0.086603
vn 0.045452 0.045452 0.076604
vn 0.045452 0.045452 0.076604
vn 0.054168 0.054168 0.064279
vn 0.054168 0.054168 0.064279
vn 0.061237 0.061237 0.050000
vn 0.061237 0.061237 0.050000
vn 0.066446 0.066446 0.034202
vn 0.066446 0.066446 0.034202
vn -0.070711 -0.070711 -0.000000
vn -0.070711 -0.070711 -0.000000
vn -0.070711 -0.070711 -0.000000
vn -0.070711 -0.070711 -0.000000
vn -0.000000 0.000000 0.100000
vn -0.000000 0.000000 0.100000
vn -0.000000 0.000000 0.100000
vn -0.000000 0.000000 0.100000
vn 0.070711 0.070711 0.000000
vn 0.070711 0.070711 0.000000
vn 0.070711 0.070711 0.000000
vn 0.070711 0.070711 0.000000
vn 0.000000 -0.000000 -0.100000
vn 0.000000 -0.000000 -0.100000
vn 0.000000 -0.000000 -0.100000
vn 0.000000 -0.000000 -0.100000
vn 0.070711 -0.070711 0.000000
vn 0.070711 -0.070711 0.000000
vn 0.070711 -0.070711 0.000000
vn 0.070711 -0.070711 0.000000
vn 0.070711 -0.070711 0.000000
vn 0.070711 -0.070711 0.000000
vn 0.070711 -0.070711 0.000000
vn 0.070711 -0.070711 0.000000
vn 0.070711 -0.070711 0.000000
vn 0.070711 -0.070711 0.000000
vn 0.070711 -0.070711 0.000000
vn 0.070711 -0.070711 0.000000
vn 0.070711 -0.070711 0.000000
vn 0.070711 -0.070711 0.000000
vn 0.070711 -0.070711 0.000000
vn 0.070711 -0.070711 0.000000
vn 0.070711 -0.070711 0.000000
vn 0.070711 -0.070711 0.000000
vn 0.070711 -0.070711 0.000000
vn 0.070711 -0.070711 0.000000
vn 0.070711 -0.070711 0.000000
vn 0.070711 -0.070711 0.000000
vn 0.070711 -0.070711 0.000000
vn 0.070711 -0.070711 0.000000
vn 0.070711 -0.070711 0.000000
vn 0.070711 -0.070711 0.000000
vn 0.070711 -0.070711 0.000000
vn 0.070711 -0.070711 0.000000
vn 0.070711 -0.070711 0.000000
vn 0.070711 -0.070711 0.000000
vn 0.070711 -0.070711 0.000000
vn 0.070711 -0.070711 0.000000
vn 0.070711 -0.070711 0.000000
vn 0.070711 -0.070711 0.000000
vn 0.070711 -0.070711 0.000000
vn 0.070711 -0.070711 0.000000
vn 0.070711 -0.070711 0.000000
vn 0.070711 -0.070711 0.000000
vn 0.070711 -0.070711 0.000000
vn 0.070711 -0.070711 0.000000
vn -0.070711 0.070711 -0.000000
vn -0.070711 0.070711 -0.000000
vn -0.070711 0.070711 -0.000000
vn -0.070711 0.070711 -0.000000
vn -0.070711 0.070711 -0.000000
vn -0.070711 0.070711 -0.000000
vn -0.070711 0.070711 -0.000000
vn -0.070711 0.070711 -0.000000
vn -0.070711 0.070711 -0.000000
vn -0.070711 0.070711 -0.000000
vn -0.070711 0.070711 -0.000000
vn -0.070711 0.070711 -0.000000
vn -0.070711 0.070711 -0.000000
vn -0.070711 0.070711 -0.000000
vn -0.070711 0.070711 -0.000000
vn -0.070711 0.070711 -0.000000
vn -0.070711 0.070711 -0.000000
vn -0.070711 0.070711 -0.000000
vn -0.070711 0.070711 -0.000000
vn -0.070711 0.070711 -0.000000
vn -0.070711 0.070711 -0.000000
vn -0.070711 0.070711 -0.000000
vn -0.070711 0.070711 -0.000000
vn -0.070711 0.070711 -0.000000
vn -0.070711 0.070711 -0.000000
vn -0.070711 0.070711 -0.000000
vn -0.070711 0.070711 -0.000000
vn -0.070711 0.070711 -0.000000
vn -0.070711 0.070711 -0.000000
vn -0.070711 0.070711 -0.000000
vn -0.070711 0.070711 -0.000000
vn -0.070711 0.070711 -0.000000
vn -0.070711 0.070711 -0.000000
vn -0.070711 0.070711 -0.000000
vn -0.070711 0.070711 -0.000000
vn -0.070711 0.070711 -0.000000
vn -0.070711 0.070711 -0.000000
vn -0.070711 0.070711 -0.000000
vn -0.070711 0.070711 -0.000000
vn -0.070711 0.070711 -0.000000
usemtl Steel_-_Satin
f 2/1/1 72/2/2 1/3/3
f 1/3/3 72/2/2 37/4/4
f 1/5/3 37/6/4 36/7/5
f 36/7/5 37/6/4 38/8/6
f 36/7/5 38/8/6 35/9/7
f 35/9/7 38/8/6 39/10/8
f 35/9/7 39/10/8 34/11/9
f 34/11/9 39/10/8 40/12/10
f 34/11/9 40/12/10 33/13/11
f 33/13/11 40/12/10 41/14/12
f 33/13/11 41/14/12 32/15/13
f 32/15/13 41/14/12 42/16/14
f 32/15/13 42/16/14 31/17/15
f 31/17/15 42/16/14 43/18/16
f 31/17/15 43/18/16 30/19/17
f 30/19/17 43/18/16 44/20/18
f 30/19/17 44/20/18 29/21/19
f 29/21/19 44/20/18 45/22/20
f 29/21/19 45/22/20 28/23/21
f 28/23/21 45/22/20 46/24/22
f 28/23/21 46/24/22 27/25/23
f 27/25/23 46/24/22 47/26/24
f 27/25/23 47/26/24 26/27/25
f 26/27/25 47/26/24 48/28/26
f 26/27/25 48/28/26 25/29/27
f 25/29/27 48/28/26 49/30/28
f 25/29/27 49/30/28 24/31/29
f 24/31/29 49/30/28 50/32/30
f 24/31/29 50/32/30 23/33/31
f 23/33/31 50/32/30 51/34/32
f 23/33/31 51/34/32 22/35/33
f 22/35/33 51/34/32 52/36/34
f 22/35/33 52/36/34 21/37/35
f 21/37/35 52/36/34 53/38/36
f 21/37/35 53/38/36 20/39/37
f 20/39/37 53/38/36 54/40/38
f 20/39/37 54/40/38 19/41/39
f 19/41/39 54/40/38 55/42/40
f 19/41/39 55/42/40 18/43/41
f 18/43/41 55/42/40 56/44/42
f 18/43/41 56/44/42 17/45/43
f 17/45/43 56/44/42 57/46/44
f 17/45/43 57/46/44 16/47/45
f 16/47/45 57/46/44 58/48/46
f 16/47/45 58/48/46 15/49/47
f 15/49/47 58/48/46 59/50/48
f 15/49/47 59/50/48 14/51/49
f 14/51/49 59/50/48 60/52/50
f 14/51/49 60/52/50 13/53/51
f 13/53/51 60/52/50 61/54/52
f 13/53/51 61/54/52 12/55/53
f 12/55/53 61/54/52 62/56/54
f 12/55/53 62/56/54 11/57/55
f 11/57/55 62/56/54 63/58/56
f 11/57/55 63/58/56 10/59/57
f 10/59/57 63/58/56 64/60/58
f 10/59/57 64/60/58 9/61/59
f 9/61/59 64/60/58 65/62/60
f 9/61/59 65/62/60 8/63/61
f 8/63/61 65/62/60 66/64/62
f 8/63/61 66/64/62 7/65/63
f 7/65/63 66/64/62 67/66/64
f 7/65/63 67/66/64 6/67/65
f 6/67/65 67/66/64 68/68/66
f 6/67/65 68/68/66 5/69/67
f 5/69/67 68/68/66 69/70/68
f 5/69/67 69/70/68 4/71/69
f 4/71/69 69/70/68 70/72/70
f 4/71/69 70/72/70 3/73/71
f 3/73/71 70/72/70 71/74/72
f 3/73/71 71/74/72 2/1/1
f 2/1/1 71/74/72 72/2/2
f 73/75/73 74/76/74 76/77/75
f 76/77/75 74/76/74 75/78/76
f 77/79/77 73/80/78 78/81/79
f 78/81/79 73/80/78 76/82/80
f 79/83/81 77/84/82 80/85/83
f 80/85/83 77/84/82 78/86/84
f 74/87/85 79/88/86 75/89/87
f 75/89/87 79/88/86 80/90/88
f 36/91/89 76/92/90 1/93/91
f 1/93/91 76/92/90 75/94/92
f 1/93/91 75/94/92 2/95/93
f 2/95/93 75/94/92 3/96/94
f 3/96/94 75/94/92 4/97/95
f 4/97/95 75/94/92 80/98/96
f 4/97/95 80/98/96 5/99/97
f 5/99/97 80/98/96 6/100/98
f 6/100/98 80/98/96 7/101/99
f 7/101/99 80/98/96 8/102/100
f 8/102/100 80/98/96 9/103/101
f 9/103/101 80/98/96 10/104/102
f 10/104/102 80/98/96 11/105/103
f 11/105/103 80/98/96 12/106/104
f 12/106/104 80/98/96 13/107/105
f 13/107/105 80/98/96 14/108/106
f 14/108/106 80/98/96 15/109/107
f 15/109/107 80/98/96 16/110/108
f 16/110/108 80/98/96 17/111/109
f 17/111/109 80/98/96 18/112/110
f 18/112/110 80/98/96 19/113/111
f 19/113/111 80/98/96 78/114/112
f 19/113/111 78/114/112 20/115/113
f 20/115/113 78/114/112 21/116/114
f 21/116/114 78/114/112 22/117/115
f 22/117/115 78/114/112 23/118/116
f 23/118/116 78/114/112 24/119/117
f 24/119/117 78/114/112 25/120/118
f 25/120/118 78/114/112 26/121/119
f 26/121/119 78/114/112 27/122/120
f 27/122/120 78/114/112 28/123/121
f 28/123/121 78/114/112 29/124/122
f 29/124/122 78/114/112 30/125/123
f 30/125/123 78/114/112 31/126/124
f 31/126/124 78/114/112 32/127/125
f 32/127/125 78/114/112 33/128/126
f 33/128/126 78/114/112 34/129/127
f 34/129/127 78/114/112 76/92/90
f 34/129/127 76/92/90 35/130/128
f 35/130/128 76/92/90 36/91/89
f 72/131/129 74/132/130 37/133/131
f 37/133/131 74/132/130 73/134/132
f 37/133/131 73/134/132 38/135/133
f 38/135/133 73/134/132 39/136/134
f 39/136/134 73/134/132 40/137/135
f 40/137/135 73/134/132 77/138/136
f 40/137/135 77/138/136 41/139/137
f 41/139/137 77/138/136 42/140/138
f 42/140/138 77/138/136 43/141/139
f 43/141/139 77/138/136 44/142/140
f 44/142/140 77/138/136 45/143/141
f 45/143/141 77/138/136 46/144/142
f 46/144/142 77/138/136 47/145/143
f 47/145/143 77/138/136 48/146/144
f 48/146/144 77/138/136 49/147/145
f 49/147/145 77/138/136 50/148/146
f 50/148/146 77/138/136 51/149/147
f 51/149/147 77/138/136 52/150/148
f 52/150/148 77/138/136 53/151/149
f 53/151/149 77/138/136 54/152/150
f 54/152/150 77/138/136 55/153/151
f 55/153/151 77/138/136 79/154/152
f 55/153/151 79/154/152 56/155/153
f 56/155/153 79/154/152 57/156/154
f 57/156/154 79/154/152 58/157/155
f 58/157/155 79/154/152 59/158/156
f 59/158/156 79/154/152 60/159/157
f 60/159/157 79/154/152 61/160/158
f 61/160/158 79/154/152 62/161/159
f 62/161/159 79/154/152 63/162/160
f 63/162/160 79/154/152 64/163/161
f 64/163/161 79/154/152 65/164/162
f 65/164/162 79/154/152 66/165/163
f 66/165/163 79/154/152 67/166/164
f 67/166/164 79/154/152 68/167/165
f 68/167/165 79/154/152 69/168/166
f 69/168/166 79/154/152 70/169/167
f 70/169/167 79/154/152 74/132/130
f 70/169/167 74/132/130 71/170/168
f 71/170/168 74/132/130 72/131/129
# 80 vertices
# 170 texture params
# 168 normals
# 160 facets

# 1 groups
