# WaveFront *.obj file (generated by Autodesk ATF)

mtllib Houses v8_Houses v8_Body565.mtl

g Body565

v -1189.570955 -1183.461942 511.845446
v -1179.570955 -1183.461942 511.845446
v -1179.570955 -1173.461942 518.645446
v -1199.570955 -1173.461942 518.645446
v -1199.570955 -1193.461942 505.045446
v -1189.570955 -1193.461942 505.045446
v -1199.570955 -1173.461942 0.000000
v -1199.570955 -1193.461942 0.000000
v -1179.570955 -1173.461942 0.000000
v -1179.570955 -1183.461942 450.000000
v -1179.570955 -1193.461942 450.000000
v -1179.570955 -1193.461942 0.000000
v -1189.570955 -1183.461942 450.000000
v -1189.570955 -1193.461942 450.000000
vt -3.378599 37.914191 0.000000
vt -2.169302 37.914191 0.000000
vt -3.378599 38.914191 0.000000
vt -2.169302 39.914191 0.000000
vt -4.587897 39.914191 0.000000
vt -4.587897 38.914191 0.000000
vt 2.000000 8.135455 0.000000
vt 2.000000 60.000000 0.000000
vt 0.000000 9.495455 0.000000
vt 0.000000 60.000000 0.000000
vt 0.000000 8.135455 0.000000
vt 2.000000 8.135455 0.000000
vt 0.000000 60.000000 0.000000
vt 2.000000 60.000000 0.000000
vt 1.000000 8.815455 0.000000
vt 1.000000 15.000000 0.000000
vt 0.000000 8.135455 0.000000
vt 0.000000 60.000000 0.000000
vt 2.000000 60.000000 0.000000
vt 2.000000 15.000000 0.000000
vt -0.000000 8.815455 0.000000
vt -1.000000 15.000000 0.000000
vt -0.000000 15.000000 0.000000
vt -17.957095 21.653806 0.000000
vt -18.957095 21.653806 0.000000
vt -17.957095 20.653806 0.000000
vt -18.957095 20.653806 0.000000
vt -43.307612 8.815455 0.000000
vt -42.307612 9.495455 0.000000
vt -43.307612 15.000000 0.000000
vt -42.307612 15.000000 0.000000
vt 1.000000 9.495455 0.000000
vt 2.000000 9.495455 0.000000
vt 1.000000 15.000000 0.000000
vt 2.000000 60.000000 0.000000
vt 0.000000 60.000000 0.000000
vt 0.000000 15.000000 0.000000
vt 1.000000 1.000000 0.000000
vt -1.000000 1.000000 0.000000
vt 1.000000 -1.000000 0.000000
vt -1.000000 -1.000000 0.000000
vn 0.000000 -0.056231 0.082693
vn 0.000000 -0.056231 0.082693
vn 0.000000 -0.056231 0.082693
vn 0.000000 -0.056231 0.082693
vn 0.000000 -0.056231 0.082693
vn 0.000000 -0.056231 0.082693
vn -0.100000 0.000000 0.000000
vn -0.100000 0.000000 0.000000
vn -0.100000 0.000000 0.000000
vn -0.100000 0.000000 0.000000
vn 0.000000 0.100000 0.000000
vn 0.000000 0.100000 0.000000
vn 0.000000 0.100000 0.000000
vn 0.000000 0.100000 0.000000
vn 0.100000 0.000000 0.000000
vn 0.100000 0.000000 0.000000
vn 0.100000 0.000000 0.000000
vn 0.100000 0.000000 0.000000
vn 0.100000 0.000000 0.000000
vn 0.100000 0.000000 0.000000
vn 0.000000 -0.100000 0.000000
vn 0.000000 -0.100000 0.000000
vn 0.000000 -0.100000 0.000000
vn 0.000000 -0.100000 0.000000
vn 0.000000 0.000000 0.100000
vn 0.000000 0.000000 0.100000
vn 0.000000 0.000000 0.100000
vn 0.000000 0.000000 0.100000
vn 0.100000 0.000000 0.000000
vn 0.100000 0.000000 0.000000
vn 0.100000 0.000000 0.000000
vn 0.100000 0.000000 0.000000
vn 0.000000 -0.100000 0.000000
vn 0.000000 -0.100000 0.000000
vn 0.000000 -0.100000 0.000000
vn 0.000000 -0.100000 0.000000
vn 0.000000 -0.100000 0.000000
vn 0.000000 -0.100000 0.000000
vn 0.000000 0.000000 -0.100000
vn 0.000000 0.000000 -0.100000
vn 0.000000 0.000000 -0.100000
vn 0.000000 0.000000 -0.100000
usemtl Steel_-_Satin
f 2/1/1 3/2/2 1/3/3
f 1/3/3 3/2/2 4/4/4
f 1/3/3 4/4/4 5/5/5
f 5/5/5 6/6/6 1/3/3
f 4/7/7 7/8/8 5/9/9
f 5/9/9 7/8/8 8/10/10
f 4/11/11 3/12/12 7/13/13
f 7/13/13 3/12/12 9/14/14
f 2/15/15 10/16/16 3/17/17
f 3/17/17 10/16/16 9/18/18
f 9/18/18 10/16/16 12/19/19
f 12/19/19 10/16/16 11/20/20
f 2/15/21 1/21/22 10/22/23
f 10/22/23 1/21/22 13/23/24
f 10/24/25 13/25/26 11/26/27
f 11/26/27 13/25/26 14/27/28
f 1/28/29 6/29/30 13/30/31
f 13/30/31 6/29/30 14/31/32
f 6/32/33 5/33/34 14/34/35
f 14/34/35 5/33/34 8/35/36
f 14/34/35 8/35/36 12/36/37
f 12/36/37 11/37/38 14/34/35
f 7/38/39 9/39/40 8/40/41
f 8/40/41 9/39/40 12/41/42
# 14 vertices
# 41 texture params
# 42 normals
# 24 facets

# 1 groups
