# WaveFront *.obj file (generated by Autodesk ATF)

mtllib Houses v8_Houses v8_Body570.mtl

g Body570

v -860.429045 -1483.934235 415.000000
v -859.938960 -1483.916016 415.024076
v -859.453594 -1483.861536 415.096074
v -858.977622 -1483.771320 415.215298
v -858.515628 -1483.646235 415.380602
v -858.072062 -1483.487488 415.590394
v -857.651194 -1483.296605 415.842652
v -857.257079 -1483.075427 416.134948
v -856.893511 -1482.826083 416.464466
v -856.563993 -1482.550974 416.828034
v -856.271697 -1482.252749 417.222149
v -855.809648 -1481.598638 418.086583
v -855.525119 -1480.888886 419.024548
v -855.429045 -1480.150768 420.000000
v -855.429045 -1476.367301 425.000000
v -860.429045 -1476.367301 425.000000
v -855.429045 -1397.836557 420.000000
v -855.525119 -1397.157465 419.024548
v -855.809648 -1396.504470 418.086583
v -856.271697 -1395.902667 417.222149
v -856.563993 -1395.628291 416.828034
v -856.893511 -1395.375182 416.464466
v -857.257079 -1395.145777 416.134948
v -857.651194 -1394.942286 415.842652
v -858.072062 -1394.766669 415.590394
v -858.515628 -1394.620616 415.380602
v -858.977622 -1394.505534 415.215298
v -859.453594 -1394.422532 415.096074
v -859.938960 -1394.372409 415.024076
v -860.429045 -1394.355647 415.000000
v -860.429045 -1401.317466 425.000000
v -855.429045 -1401.317466 425.000000
v -855.505007 -1466.018517 419.131759
v -855.505007 -1448.102800 419.131759
v -855.505007 -1430.187082 419.131759
v -855.505007 -1412.271365 419.131759
v -855.730582 -1466.018517 418.289899
v -855.730582 -1448.102800 418.289899
v -855.730582 -1430.187082 418.289899
v -855.730582 -1412.271365 418.289899
v -856.098918 -1466.018517 417.500000
v -856.098918 -1448.102800 417.500000
v -856.098918 -1430.187082 417.500000
v -856.098918 -1412.271365 417.500000
v -856.598823 -1466.018517 416.786062
v -856.598823 -1448.102800 416.786062
v -856.598823 -1430.187082 416.786062
v -856.598823 -1412.271365 416.786062
v -857.215107 -1466.018517 416.169778
v -857.215107 -1448.102800 416.169778
v -857.215107 -1430.187082 416.169778
v -857.215107 -1412.271365 416.169778
v -857.929045 -1466.018517 415.669873
v -857.929045 -1448.102800 415.669873
v -857.929045 -1430.187082 415.669873
v -857.929045 -1412.271365 415.669873
v -858.718945 -1466.018517 415.301537
v -858.718945 -1448.102800 415.301537
v -858.718945 -1430.187082 415.301537
v -858.718945 -1412.271365 415.301537
v -859.560804 -1466.018517 415.075961
v -859.560804 -1448.102800 415.075961
v -859.560804 -1430.187082 415.075961
v -859.560804 -1412.271365 415.075961
vt -7.731841 1.000000 0.000000
vt -7.728822 0.950991 0.000000
vt -6.477814 1.000000 0.000000
vt -7.719793 0.902455 0.000000
vt -7.704842 0.854858 0.000000
vt -7.684113 0.808658 0.000000
vt -7.657804 0.764302 0.000000
vt -7.626171 0.722215 0.000000
vt -7.589516 0.682803 0.000000
vt -7.548193 0.646447 0.000000
vt -7.104828 0.500000 0.000000
vt -7.502601 0.613495 0.000000
vt -7.453178 0.584265 0.000000
vt -7.344775 0.538060 0.000000
vt -7.227152 0.509607 0.000000
vt -6.477814 0.500000 0.000000
vt -2.412289 0.509607 0.000000
vt -2.298000 0.538060 0.000000
vt -2.531145 0.500000 0.000000
vt -2.192672 0.584265 0.000000
vt -2.144650 0.613495 0.000000
vt -2.100350 0.646447 0.000000
vt -3.140380 1.000000 0.000000
vt -3.140380 0.500000 0.000000
vt -2.060200 0.682803 0.000000
vt -2.024584 0.722215 0.000000
vt -1.993847 0.764302 0.000000
vt -1.968285 0.808658 0.000000
vt -1.948143 0.854858 0.000000
vt -1.933616 0.902455 0.000000
vt -1.924843 0.950991 0.000000
vt -1.921910 1.000000 0.000000
vt -2.661111 -0.294524 0.000000
vt -4.148148 -0.305433 0.000000
vt -2.734923 -0.392699 0.000000
vt -5.939720 -0.305433 0.000000
vt -7.731292 -0.305433 0.000000
vt -7.731292 -0.218166 0.000000
vt -9.522864 -0.218166 0.000000
vt -9.522864 -0.130900 0.000000
vt -11.099553 -0.196350 0.000000
vt -11.159733 -0.098175 0.000000
vt -9.522864 -0.043633 0.000000
vt -11.187171 -0.049087 0.000000
vt -11.212482 0.000000 0.000000
vt -9.522864 0.043633 0.000000
vt -11.235422 0.049087 0.000000
vt -11.255771 0.098175 0.000000
vt -9.522864 0.130900 0.000000
vt -11.273333 0.147262 0.000000
vt -11.287938 0.196350 0.000000
vt -9.522864 0.218166 0.000000
vt -11.299447 0.245437 0.000000
vt -9.522864 0.305433 0.000000
vt -11.307747 0.294524 0.000000
vt -11.312759 0.343612 0.000000
vt -11.314435 0.392699 0.000000
vt -7.731292 0.305433 0.000000
vt -5.939720 0.305433 0.000000
vt -5.939720 0.218166 0.000000
vt -4.148148 0.218166 0.000000
vt -4.148148 0.130900 0.000000
vt -2.385376 0.196350 0.000000
vt -2.401251 0.147262 0.000000
vt -2.420339 0.098175 0.000000
vt -4.148148 0.043633 0.000000
vt -2.442457 0.049087 0.000000
vt -2.467392 0.000000 0.000000
vt -4.148148 -0.043633 0.000000
vt -2.494903 -0.049087 0.000000
vt -2.524725 -0.098175 0.000000
vt -4.148148 -0.130900 0.000000
vt -2.590136 -0.196350 0.000000
vt -4.148148 -0.218166 0.000000
vt -2.372868 0.245437 0.000000
vt -4.148148 0.305433 0.000000
vt -2.358398 0.343612 0.000000
vt -2.356577 0.392699 0.000000
vt -2.363846 0.294524 0.000000
vt -11.034253 -0.294524 0.000000
vt -9.522864 -0.305433 0.000000
vt -10.966344 -0.392699 0.000000
vt -5.939720 -0.218166 0.000000
vt -5.939720 -0.130900 0.000000
vt -5.939720 -0.043633 0.000000
vt -5.939720 0.043633 0.000000
vt -5.939720 0.130900 0.000000
vt -7.731292 -0.130900 0.000000
vt -7.731292 -0.043633 0.000000
vt -7.731292 0.043633 0.000000
vt -7.731292 0.130900 0.000000
vt -7.731292 0.218166 0.000000
vt 8.393423 -0.500000 0.000000
vt 7.636730 0.500000 0.000000
vt -0.564435 -0.500000 0.000000
vt 0.131747 0.500000 0.000000
vt 29.136730 0.500000 0.000000
vt 21.631747 0.500000 0.000000
vt 29.136730 0.000000 0.000000
vt 21.631747 0.000000 0.000000
vt 0.000000 -8.015077 0.000000
vt 0.000000 0.216344 0.000000
vt -0.500000 -7.636730 0.000000
vt -0.500000 -0.131747 0.000000
vn 0.000000 -0.079743 0.060341
vn 0.000000 -0.079743 0.060341
vn 0.000000 -0.079743 0.060341
vn 0.000000 -0.079743 0.060341
vn 0.000000 -0.079743 0.060341
vn 0.000000 -0.079743 0.060341
vn 0.000000 -0.079743 0.060341
vn 0.000000 -0.079743 0.060341
vn 0.000000 -0.079743 0.060341
vn 0.000000 -0.079743 0.060341
vn 0.000000 -0.079743 0.060341
vn 0.000000 -0.079743 0.060341
vn 0.000000 -0.079743 0.060341
vn 0.000000 -0.079743 0.060341
vn 0.000000 -0.079743 0.060341
vn 0.000000 -0.079743 0.060341
vn 0.000000 0.082070 0.057136
vn 0.000000 0.082070 0.057136
vn 0.000000 0.082070 0.057136
vn 0.000000 0.082070 0.057136
vn 0.000000 0.082070 0.057136
vn 0.000000 0.082070 0.057136
vn 0.000000 0.082070 0.057136
vn 0.000000 0.082070 0.057136
vn 0.000000 0.082070 0.057136
vn 0.000000 0.082070 0.057136
vn 0.000000 0.082070 0.057136
vn 0.000000 0.082070 0.057136
vn 0.000000 0.082070 0.057136
vn 0.000000 0.082070 0.057136
vn 0.000000 0.082070 0.057136
vn 0.000000 0.082070 0.057136
vn 0.098079 0.000000 -0.019509
vn 0.098481 0.000000 -0.017365
vn 0.100000 0.000000 -0.000000
vn 0.098481 0.000000 -0.017365
vn 0.098481 0.000000 -0.017365
vn 0.093969 0.000000 -0.034202
vn 0.093969 0.000000 -0.034202
vn 0.086603 0.000000 -0.050000
vn 0.092388 0.000000 -0.038268
vn 0.083147 0.000000 -0.055557
vn 0.076604 0.000000 -0.064279
vn 0.077301 0.000000 -0.063439
vn 0.070711 0.000000 -0.070711
vn 0.064279 0.000000 -0.076604
vn 0.063439 0.000000 -0.077301
vn 0.055557 0.000000 -0.083147
vn 0.050000 0.000000 -0.086603
vn 0.047140 0.000000 -0.088192
vn 0.038268 0.000000 -0.092388
vn 0.034202 0.000000 -0.093969
vn 0.029028 0.000000 -0.095694
vn 0.017365 0.000000 -0.098481
vn 0.019509 0.000000 -0.098079
vn 0.009802 0.000000 -0.099518
vn 0.000000 0.000000 -0.100000
vn 0.017365 0.000000 -0.098481
vn 0.017365 0.000000 -0.098481
vn 0.034202 0.000000 -0.093969
vn 0.034202 0.000000 -0.093969
vn 0.050000 0.000000 -0.086603
vn 0.038268 0.000000 -0.092388
vn 0.047140 0.000000 -0.088192
vn 0.055557 0.000000 -0.083147
vn 0.064279 0.000000 -0.076604
vn 0.063439 0.000000 -0.077301
vn 0.070711 0.000000 -0.070711
vn 0.076604 0.000000 -0.064279
vn 0.077301 0.000000 -0.063439
vn 0.083147 0.000000 -0.055557
vn 0.086603 0.000000 -0.050000
vn 0.092388 0.000000 -0.038268
vn 0.093969 0.000000 -0.034202
vn 0.029028 0.000000 -0.095694
vn 0.017365 0.000000 -0.098481
vn 0.009802 0.000000 -0.099518
vn 0.000000 0.000000 -0.100000
vn 0.019509 0.000000 -0.098079
vn 0.098079 0.000000 -0.019509
vn 0.098481 0.000000 -0.017365
vn 0.100000 0.000000 -0.000000
vn 0.093969 0.000000 -0.034202
vn 0.086603 0.000000 -0.050000
vn 0.076604 0.000000 -0.064279
vn 0.064279 0.000000 -0.076604
vn 0.050000 0.000000 -0.086603
vn 0.086603 0.000000 -0.050000
vn 0.076604 0.000000 -0.064279
vn 0.064279 0.000000 -0.076604
vn 0.050000 0.000000 -0.086603
vn 0.034202 0.000000 -0.093969
vn -0.100000 0.000000 0.000000
vn -0.100000 0.000000 0.000000
vn -0.100000 0.000000 0.000000
vn -0.100000 0.000000 0.000000
vn 0.000000 0.000000 0.100000
vn 0.000000 0.000000 0.100000
vn 0.000000 0.000000 0.100000
vn 0.000000 0.000000 0.100000
vn 0.100000 0.000000 0.000000
vn 0.100000 0.000000 0.000000
usemtl Steel_-_Satin
f 1/1/1 2/2/2 16/3/3
f 16/3/3 2/2/2 3/4/4
f 16/3/3 3/4/4 4/5/5
f 4/5/5 5/6/6 16/3/3
f 16/3/3 5/6/6 6/7/7
f 16/3/3 6/7/7 7/8/8
f 7/8/8 8/9/9 16/3/3
f 16/3/3 8/9/9 9/10/10
f 16/3/3 9/10/10 14/11/11
f 14/11/11 9/10/10 10/12/12
f 14/11/11 10/12/12 11/13/13
f 11/13/13 12/14/14 14/11/11
f 14/11/11 12/14/14 13/15/15
f 14/11/11 15/16/16 16/3/3
f 18/17/17 19/18/18 17/19/19
f 17/19/19 19/18/18 20/20/20
f 17/19/19 20/20/20 21/21/21
f 21/21/21 22/22/22 17/19/19
f 17/19/19 22/22/22 31/23/23
f 17/19/19 31/23/23 32/24/24
f 22/22/22 23/25/25 31/23/23
f 31/23/23 23/25/25 24/26/26
f 31/23/23 24/26/26 25/27/27
f 25/27/27 26/28/28 31/23/23
f 31/23/23 26/28/28 27/29/29
f 31/23/23 27/29/29 28/30/30
f 28/30/30 29/31/31 31/23/23
f 31/23/23 29/31/31 30/32/32
f 13/33/33 33/34/34 14/35/35
f 14/35/35 33/34/34 34/36/36
f 14/35/35 34/36/36 35/37/37
f 35/37/37 34/36/36 39/38/38
f 35/37/37 39/38/38 40/39/39
f 40/39/39 39/38/38 44/40/40
f 40/39/39 44/40/40 19/41/41
f 19/41/41 44/40/40 20/42/42
f 20/42/42 44/40/40 48/43/43
f 20/42/42 48/43/43 21/44/44
f 21/44/44 48/43/43 22/45/45
f 22/45/45 48/43/43 52/46/46
f 22/45/45 52/46/46 23/47/47
f 23/47/47 52/46/46 24/48/48
f 24/48/48 52/46/46 56/49/49
f 24/48/48 56/49/49 25/50/50
f 25/50/50 56/49/49 26/51/51
f 26/51/51 56/49/49 60/52/52
f 26/51/51 60/52/52 27/53/53
f 27/53/53 60/52/52 64/54/54
f 27/53/53 64/54/54 28/55/55
f 28/55/55 64/54/54 29/56/56
f 29/56/56 64/54/54 30/57/57
f 30/57/57 64/54/54 63/58/58
f 30/57/57 63/58/58 62/59/59
f 62/59/59 63/58/58 58/60/60
f 62/59/59 58/60/60 57/61/61
f 57/61/61 58/60/60 53/62/62
f 57/61/61 53/62/62 5/63/63
f 5/63/63 53/62/62 6/64/64
f 6/64/64 53/62/62 7/65/65
f 7/65/65 53/62/62 49/66/66
f 7/65/65 49/66/66 8/67/67
f 8/67/67 49/66/66 9/68/68
f 9/68/68 49/66/66 45/69/69
f 9/68/68 45/69/69 10/70/70
f 10/70/70 45/69/69 11/71/71
f 11/71/71 45/69/69 41/72/72
f 11/71/71 41/72/72 12/73/73
f 12/73/73 41/72/72 37/74/74
f 12/73/73 37/74/74 13/33/33
f 13/33/33 37/74/74 33/34/34
f 5/63/63 4/75/75 57/61/61
f 57/61/61 4/75/75 61/76/76
f 57/61/61 61/76/76 62/59/59
f 62/59/59 61/76/76 2/77/77
f 62/59/59 2/77/77 30/57/57
f 30/57/57 2/77/77 1/78/78
f 4/75/75 3/79/79 61/76/76
f 61/76/76 3/79/79 2/77/77
f 19/41/41 18/80/80 40/39/39
f 40/39/39 18/80/80 36/81/81
f 40/39/39 36/81/81 35/37/37
f 35/37/37 36/81/81 17/82/82
f 35/37/37 17/82/82 14/35/35
f 18/80/80 17/82/82 36/81/81
f 34/36/36 33/34/34 38/83/83
f 38/83/83 33/34/34 37/74/74
f 38/83/83 37/74/74 42/84/84
f 42/84/84 37/74/74 41/72/72
f 42/84/84 41/72/72 46/85/85
f 46/85/85 41/72/72 45/69/69
f 46/85/85 45/69/69 50/86/86
f 50/86/86 45/69/69 49/66/66
f 50/86/86 49/66/66 54/87/87
f 54/87/87 49/66/66 53/62/62
f 54/87/87 53/62/62 58/60/60
f 34/36/36 38/83/83 39/38/38
f 39/38/38 38/83/83 43/88/88
f 39/38/38 43/88/88 44/40/40
f 44/40/40 43/88/88 48/43/43
f 43/88/88 38/83/83 42/84/84
f 43/88/88 42/84/84 47/89/89
f 47/89/89 42/84/84 46/85/85
f 47/89/89 46/85/85 51/90/90
f 51/90/90 46/85/85 50/86/86
f 51/90/90 50/86/86 55/91/91
f 55/91/91 50/86/86 54/87/87
f 55/91/91 54/87/87 59/92/92
f 59/92/92 54/87/87 58/60/60
f 59/92/92 58/60/60 63/58/58
f 52/46/46 48/43/43 47/89/89
f 47/89/89 48/43/43 43/88/88
f 52/46/46 47/89/89 51/90/90
f 56/49/49 52/46/46 51/90/90
f 56/49/49 51/90/90 55/91/91
f 60/52/52 56/49/49 55/91/91
f 60/52/52 55/91/91 59/92/92
f 64/54/54 60/52/52 59/92/92
f 64/54/54 59/92/92 63/58/58
f 1/93/93 16/94/94 30/95/95
f 30/95/95 16/94/94 31/96/96
f 15/97/97 32/98/98 16/99/99
f 16/99/99 32/98/98 31/100/100
f 14/101/35 17/102/82 15/103/101
f 15/103/101 17/102/82 32/104/102
# 64 vertices
# 104 texture params
# 102 normals
# 124 facets

# 1 groups
