# WaveFront *.obj file (generated by Autodesk ATF)

mtllib Houses v8_Houses v8_Body493.mtl

g Body493

v -809.429045 -1540.000000 442.607387
v -809.429045 -1539.113449 443.778999
v -810.429045 -1539.113449 443.778999
v -810.429045 -1540.000000 442.607387
v -810.429045 -1551.620832 427.250000
v -809.429045 -1551.620832 427.250000
v -809.429045 -1549.539926 430.000000
v -810.429045 -1549.539926 430.000000
v -809.429045 -1537.250000 442.368940
v -810.429045 -1537.250000 442.368940
v -809.429045 -1540.000000 430.000000
v -810.429045 -1540.000000 430.000000
v -809.429045 -1537.250000 427.250000
v -810.429045 -1537.250000 427.250000
vt -0.146923 0.900000 0.000000
vt -0.000000 0.900000 0.000000
vt -0.146923 1.000000 0.000000
vt -0.000000 1.000000 0.000000
vt -2.072782 0.900000 0.000000
vt -1.727924 0.900000 0.000000
vt -2.072782 1.000000 0.000000
vt -1.727924 1.000000 0.000000
vt -6.136715 0.900000 0.000000
vt -5.903034 0.900000 0.000000
vt -6.136715 1.000000 0.000000
vt -5.903034 1.000000 0.000000
vt 0.953993 0.100000 0.000000
vt 0.000000 0.100000 0.000000
vt 0.953993 0.000000 0.000000
vt 0.000000 0.000000 0.000000
vt 2.000000 1.046007 0.000000
vt 2.275000 0.837917 0.000000
vt 2.000000 2.000000 0.000000
vt 2.275000 2.275000 0.000000
vt 0.763106 2.275000 0.000000
vt 0.622100 2.088655 0.000000
vt 0.739261 2.000000 0.000000
vt 2.739261 0.000000 0.000000
vt 4.000000 0.000000 0.000000
vt 2.739261 0.100000 0.000000
vt 4.000000 0.100000 0.000000
vt 1.511894 0.100000 0.000000
vt 0.000000 0.100000 0.000000
vt 1.511894 0.000000 0.000000
vt 0.000000 0.000000 0.000000
vt 3.112917 0.000000 0.000000
vt 4.550000 0.000000 0.000000
vt 3.112917 0.100000 0.000000
vt 4.550000 0.100000 0.000000
vt -1.046007 -2.000000 0.000000
vt -2.000000 -2.000000 0.000000
vt -0.837917 -2.275000 0.000000
vt -2.275000 -2.275000 0.000000
vt -2.275000 -0.763106 0.000000
vt -2.000000 -0.739261 0.000000
vt -2.088655 -0.622100 0.000000
vn 0.000000 -0.079743 0.060341
vn 0.000000 -0.079743 0.060341
vn 0.000000 -0.079743 0.060341
vn 0.000000 -0.079743 0.060341
vn 0.000000 -0.079743 0.060341
vn 0.000000 -0.079743 0.060341
vn 0.000000 -0.079743 0.060341
vn 0.000000 -0.079743 0.060341
vn 0.000000 0.060341 0.079743
vn 0.000000 0.060341 0.079743
vn 0.000000 0.060341 0.079743
vn 0.000000 0.060341 0.079743
vn 0.000000 0.000000 0.100000
vn 0.000000 0.000000 0.100000
vn 0.000000 0.000000 0.100000
vn 0.000000 0.000000 0.100000
vn 0.100000 0.000000 0.000000
vn 0.100000 0.000000 0.000000
vn 0.100000 0.000000 0.000000
vn 0.100000 0.000000 0.000000
vn 0.100000 0.000000 0.000000
vn 0.100000 0.000000 0.000000
vn 0.100000 0.000000 0.000000
vn 0.000000 -0.100000 0.000000
vn 0.000000 -0.100000 0.000000
vn 0.000000 -0.100000 0.000000
vn 0.000000 -0.100000 0.000000
vn 0.000000 0.100000 0.000000
vn 0.000000 0.100000 0.000000
vn 0.000000 0.100000 0.000000
vn 0.000000 0.100000 0.000000
vn 0.000000 0.000000 -0.100000
vn 0.000000 0.000000 -0.100000
vn 0.000000 0.000000 -0.100000
vn 0.000000 0.000000 -0.100000
vn -0.100000 0.000000 0.000000
vn -0.100000 0.000000 0.000000
vn -0.100000 0.000000 0.000000
vn -0.100000 0.000000 0.000000
vn -0.100000 0.000000 0.000000
vn -0.100000 0.000000 0.000000
vn -0.100000 0.000000 0.000000
usemtl Steel_-_Satin
f 1/1/1 2/2/2 4/3/3
f 4/3/3 2/2/2 3/4/4
f 6/5/5 7/6/6 5/7/7
f 5/7/7 7/6/6 8/8/8
f 2/9/9 9/10/10 3/11/11
f 3/11/11 9/10/10 10/12/12
f 7/13/13 11/14/14 8/15/15
f 8/15/15 11/14/14 12/16/16
f 7/17/17 6/18/18 11/19/19
f 11/19/19 6/18/18 13/20/20
f 11/19/19 13/20/20 9/21/21
f 2/22/22 1/23/23 9/21/21
f 9/21/21 1/23/23 11/19/19
f 4/24/24 12/25/25 1/26/26
f 1/26/26 12/25/25 11/27/27
f 9/28/28 13/29/29 10/30/30
f 10/30/30 13/29/29 14/31/31
f 5/32/32 14/33/33 6/34/34
f 6/34/34 14/33/33 13/35/35
f 8/36/36 12/37/37 5/38/38
f 5/38/38 12/37/37 14/39/39
f 14/39/39 12/37/37 10/40/40
f 10/40/40 12/37/37 4/41/41
f 10/40/40 4/41/41 3/42/42
# 14 vertices
# 42 texture params
# 42 normals
# 24 facets

# 1 groups
