# WaveFront *.obj file (generated by Autodesk ATF)

mtllib Houses v8_Houses v8_Body511.mtl

g Body511

v -810.329045 -1579.807659 390.000000
v -810.429045 -1579.807659 390.000000
v -810.429045 -1580.000000 389.745813
v -810.329045 -1580.000000 389.745813
v -810.429045 -1580.000000 350.000000
v -810.329045 -1580.000000 350.000000
v -810.429045 -1540.000000 390.000000
v -810.429045 -1540.000000 350.000000
v -810.329045 -1540.000000 390.000000
v -810.329045 -1540.000000 350.000000
vt -6.744034 1.000000 0.000000
vt -6.775910 1.000000 0.000000
vt -6.744034 0.990000 0.000000
vt -6.775910 0.990000 0.000000
vt 0.025419 0.000000 0.000000
vt 4.000000 0.000000 0.000000
vt 0.025419 0.010000 0.000000
vt 4.000000 0.010000 0.000000
vt 1.980766 2.000000 0.000000
vt -2.000000 2.000000 0.000000
vt 2.000000 1.974581 0.000000
vt -2.000000 -2.000000 0.000000
vt 2.000000 -2.000000 0.000000
vt 0.000000 0.000000 0.000000
vt 4.000000 0.000000 0.000000
vt 0.000000 0.010000 0.000000
vt 4.000000 0.010000 0.000000
vt 0.000000 0.000000 0.000000
vt 4.000000 0.000000 0.000000
vt 0.000000 0.010000 0.000000
vt 4.000000 0.010000 0.000000
vt 3.980766 0.010000 0.000000
vt -0.000000 0.010000 0.000000
vt 3.980766 0.000000 0.000000
vt -0.000000 0.000000 0.000000
vt -2.000000 -1.980766 0.000000
vt -1.974581 -2.000000 0.000000
vt -2.000000 2.000000 0.000000
vt 2.000000 2.000000 0.000000
vt 2.000000 -2.000000 0.000000
vn 0.000000 -0.079743 0.060341
vn 0.000000 -0.079743 0.060341
vn 0.000000 -0.079743 0.060341
vn 0.000000 -0.079743 0.060341
vn 0.000000 -0.100000 0.000000
vn 0.000000 -0.100000 0.000000
vn 0.000000 -0.100000 0.000000
vn 0.000000 -0.100000 0.000000
vn -0.100000 0.000000 0.000000
vn -0.100000 0.000000 0.000000
vn -0.100000 0.000000 0.000000
vn -0.100000 0.000000 0.000000
vn -0.100000 0.000000 0.000000
vn 0.000000 0.100000 0.000000
vn 0.000000 0.100000 0.000000
vn 0.000000 0.100000 0.000000
vn 0.000000 0.100000 0.000000
vn 0.000000 0.000000 -0.100000
vn 0.000000 0.000000 -0.100000
vn 0.000000 0.000000 -0.100000
vn 0.000000 0.000000 -0.100000
vn 0.000000 0.000000 0.100000
vn 0.000000 0.000000 0.100000
vn 0.000000 0.000000 0.100000
vn 0.000000 0.000000 0.100000
vn 0.100000 0.000000 0.000000
vn 0.100000 0.000000 0.000000
vn 0.100000 0.000000 0.000000
vn 0.100000 0.000000 0.000000
vn 0.100000 0.000000 0.000000
usemtl Steel_-_Satin
f 2/1/1 3/2/2 1/3/3
f 1/3/3 3/2/2 4/4/4
f 3/5/5 5/6/6 4/7/7
f 4/7/7 5/6/6 6/8/8
f 2/9/9 7/10/10 3/11/11
f 3/11/11 7/10/10 8/12/12
f 3/11/11 8/12/12 5/13/13
f 8/14/14 7/15/15 10/16/16
f 10/16/16 7/15/15 9/17/17
f 5/18/18 8/19/19 6/20/20
f 6/20/20 8/19/19 10/21/21
f 1/22/22 9/23/23 2/24/24
f 2/24/24 9/23/23 7/25/25
f 1/26/26 4/27/27 9/28/28
f 9/28/28 4/27/27 10/29/29
f 10/29/29 4/27/27 6/30/30
# 10 vertices
# 30 texture params
# 30 normals
# 16 facets

# 1 groups
