# WaveFront *.obj file (generated by Autodesk ATF)

mtllib Houses v8_Houses v8_Body235.mtl

g Body235

v 1078.961942 1028.961942 600.000000
v 1078.961942 1028.961942 580.000000
v 1083.461942 1033.461942 580.000000
v 1083.461942 1033.461942 600.000000
v 820.429045 1028.961942 600.000000
v 820.429045 1028.961942 580.000000
v 820.429045 1033.461942 600.000000
v 820.429045 1033.461942 580.000000
vt -0.560303 2.000000 0.000000
vt -1.196699 2.000000 0.000000
vt -0.560303 0.000000 0.000000
vt -1.196699 0.000000 0.000000
vt 10.060901 0.000000 0.000000
vt 35.914191 0.000000 0.000000
vt 10.060901 2.000000 0.000000
vt 35.914191 2.000000 0.000000
vt -8.346194 -0.225000 0.000000
vt 17.957095 -0.225000 0.000000
vt -7.896194 0.225000 0.000000
vt 17.957095 0.225000 0.000000
vt 26.303290 2.000000 0.000000
vt 0.000000 2.000000 0.000000
vt 26.303290 0.000000 0.000000
vt 0.000000 0.000000 0.000000
vt 0.000000 0.000000 0.000000
vt 0.450000 0.000000 0.000000
vt 0.000000 2.000000 0.000000
vt 0.450000 2.000000 0.000000
vt -8.346194 0.225000 0.000000
vt -7.896194 -0.225000 0.000000
vt 17.957095 0.225000 0.000000
vt 17.957095 -0.225000 0.000000
vn 0.070711 -0.070711 0.000000
vn 0.070711 -0.070711 0.000000
vn 0.070711 -0.070711 0.000000
vn 0.070711 -0.070711 0.000000
vn 0.000000 -0.100000 0.000000
vn 0.000000 -0.100000 0.000000
vn 0.000000 -0.100000 0.000000
vn 0.000000 -0.100000 0.000000
vn 0.000000 0.000000 0.100000
vn 0.000000 0.000000 0.100000
vn 0.000000 0.000000 0.100000
vn 0.000000 0.000000 0.100000
vn 0.000000 0.100000 0.000000
vn 0.000000 0.100000 0.000000
vn 0.000000 0.100000 0.000000
vn 0.000000 0.100000 0.000000
vn -0.100000 0.000000 0.000000
vn -0.100000 0.000000 0.000000
vn -0.100000 0.000000 0.000000
vn -0.100000 0.000000 0.000000
vn 0.000000 0.000000 -0.100000
vn 0.000000 0.000000 -0.100000
vn 0.000000 0.000000 -0.100000
vn 0.000000 0.000000 -0.100000
usemtl Steel_-_Satin
f 2/1/1 3/2/2 1/3/3
f 1/3/3 3/2/2 4/4/4
f 1/5/5 5/6/6 2/7/7
f 2/7/7 5/6/6 6/8/8
f 4/9/9 7/10/10 1/11/11
f 1/11/11 7/10/10 5/12/12
f 3/13/13 8/14/14 4/15/15
f 4/15/15 8/14/14 7/16/16
f 5/17/17 7/18/18 6/19/19
f 6/19/19 7/18/18 8/20/20
f 3/21/21 2/22/22 8/23/23
f 8/23/23 2/22/22 6/24/24
# 8 vertices
# 24 texture params
# 24 normals
# 12 facets

# 1 groups
