# WaveFront *.obj file (generated by Autodesk ATF)

mtllib Houses v8_Houses v8_Body92.mtl

g Body92

v 239.570955 662.000010 62.000001
v 239.570955 638.000010 62.000001
v 241.070955 638.000010 62.000001
v 241.070955 662.000010 62.000001
v 239.570955 662.000010 20.000000
v 241.070955 662.000010 20.000000
v 239.570955 660.000000 20.000000
v 241.070955 660.000000 20.000000
v 239.570955 660.000000 60.000000
v 241.070955 660.000000 60.000000
v 239.570955 640.000000 60.000000
v 241.070955 640.000000 60.000000
v 239.570955 640.000000 20.000000
v 241.070955 640.000000 20.000000
v 239.570955 638.000010 20.000000
v 241.070955 638.000010 20.000000
vt 0.000000 0.000000 0.000000
vt 2.400000 0.000000 0.000000
vt 0.000000 0.150000 0.000000
vt 2.400000 0.150000 0.000000
vt 0.000000 0.000000 0.000000
vt 4.200000 0.000000 0.000000
vt 0.000000 0.150000 0.000000
vt 4.200000 0.150000 0.000000
vt 0.000000 0.000000 0.000000
vt 0.200001 0.000000 0.000000
vt 0.000000 0.150000 0.000000
vt 0.200001 0.150000 0.000000
vt 0.000000 0.000000 0.000000
vt 4.000000 0.000000 0.000000
vt 0.000000 0.150000 0.000000
vt 4.000000 0.150000 0.000000
vt 0.000000 0.000000 0.000000
vt 2.000000 0.000000 0.000000
vt 0.000000 0.150000 0.000000
vt 2.000000 0.150000 0.000000
vt 0.000000 0.000000 0.000000
vt 4.000000 0.000000 0.000000
vt 0.000000 0.150000 0.000000
vt 4.000000 0.150000 0.000000
vt 0.000000 0.000000 0.000000
vt 0.199999 0.000000 0.000000
vt 0.000000 0.150000 0.000000
vt 0.199999 0.150000 0.000000
vt 0.000000 0.000000 0.000000
vt 4.200000 0.000000 0.000000
vt 0.000000 0.150000 0.000000
vt 4.200000 0.150000 0.000000
vt 2.100000 -1.200000 0.000000
vt -1.900000 -1.000001 0.000000
vt -2.100000 -1.200000 0.000000
vt -1.900000 0.999999 0.000000
vt -2.100000 1.200000 0.000000
vt 2.100000 1.200000 0.000000
vt 2.100000 0.999999 0.000000
vt 2.100000 -1.000001 0.000000
vt 1.000001 -2.100000 0.000000
vt 1.200000 -2.100000 0.000000
vt 1.000001 1.900000 0.000000
vt 1.200000 2.100000 0.000000
vt -0.999999 1.900000 0.000000
vt -1.200000 2.100000 0.000000
vt -1.200000 -2.100000 0.000000
vt -0.999999 -2.100000 0.000000
vn 0.000000 0.000000 0.100000
vn 0.000000 0.000000 0.100000
vn 0.000000 0.000000 0.100000
vn 0.000000 0.000000 0.100000
vn 0.000000 0.100000 0.000000
vn 0.000000 0.100000 0.000000
vn 0.000000 0.100000 0.000000
vn 0.000000 0.100000 0.000000
vn 0.000000 0.000000 -0.100000
vn 0.000000 0.000000 -0.100000
vn 0.000000 0.000000 -0.100000
vn 0.000000 0.000000 -0.100000
vn 0.000000 -0.100000 0.000000
vn 0.000000 -0.100000 0.000000
vn 0.000000 -0.100000 0.000000
vn 0.000000 -0.100000 0.000000
vn 0.000000 0.000000 -0.100000
vn 0.000000 0.000000 -0.100000
vn 0.000000 0.000000 -0.100000
vn 0.000000 0.000000 -0.100000
vn 0.000000 0.100000 0.000000
vn 0.000000 0.100000 0.000000
vn 0.000000 0.100000 0.000000
vn 0.000000 0.100000 0.000000
vn 0.000000 0.000000 -0.100000
vn 0.000000 0.000000 -0.100000
vn 0.000000 0.000000 -0.100000
vn 0.000000 0.000000 -0.100000
vn 0.000000 -0.100000 0.000000
vn 0.000000 -0.100000 0.000000
vn 0.000000 -0.100000 0.000000
vn 0.000000 -0.100000 0.000000
vn 0.100000 0.000000 0.000000
vn 0.100000 0.000000 0.000000
vn 0.100000 0.000000 0.000000
vn 0.100000 0.000000 0.000000
vn 0.100000 0.000000 0.000000
vn 0.100000 0.000000 0.000000
vn 0.100000 0.000000 0.000000
vn 0.100000 0.000000 0.000000
vn -0.100000 0.000000 0.000000
vn -0.100000 0.000000 0.000000
vn -0.100000 0.000000 0.000000
vn -0.100000 0.000000 0.000000
vn -0.100000 0.000000 0.000000
vn -0.100000 0.000000 0.000000
vn -0.100000 0.000000 0.000000
vn -0.100000 0.000000 0.000000
usemtl Steel_-_Satin
f 1/1/1 2/2/2 4/3/3
f 4/3/3 2/2/2 3/4/4
f 5/5/5 1/6/6 6/7/7
f 6/7/7 1/6/6 4/8/8
f 7/9/9 5/10/10 8/11/11
f 8/11/11 5/10/10 6/12/12
f 9/13/13 7/14/14 10/15/15
f 10/15/15 7/14/14 8/16/16
f 11/17/17 9/18/18 12/19/19
f 12/19/19 9/18/18 10/20/20
f 13/21/21 11/22/22 14/23/23
f 14/23/23 11/22/22 12/24/24
f 15/25/25 13/26/26 16/27/27
f 16/27/27 13/26/26 14/28/28
f 2/29/29 15/30/30 3/31/31
f 3/31/31 15/30/30 16/32/32
f 16/33/33 12/34/34 3/35/35
f 3/35/35 12/34/34 10/36/36
f 3/35/35 10/36/36 4/37/37
f 4/37/37 10/36/36 6/38/38
f 6/38/38 10/36/36 8/39/39
f 16/33/33 14/40/40 12/34/34
f 13/41/41 15/42/42 11/43/43
f 11/43/43 15/42/42 2/44/44
f 11/43/43 2/44/44 9/45/45
f 9/45/45 2/44/44 1/46/46
f 9/45/45 1/46/46 5/47/47
f 5/47/47 7/48/48 9/45/45
# 16 vertices
# 48 texture params
# 48 normals
# 28 facets

# 1 groups
