# WaveFront *.obj file (generated by Autodesk ATF)

mtllib Houses v8_Houses v8_Body473.mtl

g Body473

v -820.429045 -1606.538058 354.674725
v -820.429045 -1626.538058 441.443351
v -800.429045 -1626.538058 441.443351
v -800.429045 -1606.538058 354.674725
v -800.429045 -1606.538058 0.000000
v -820.429045 -1606.538058 0.000000
v -800.429045 -1626.538058 0.000000
v -820.429045 -1626.538058 0.000000
vt -0.000000 2.000000 0.000000
vt -8.904378 2.000000 0.000000
vt -0.000000 0.000000 0.000000
vt -8.904378 0.000000 0.000000
vt 0.000000 24.532527 0.000000
vt 2.000000 24.532527 0.000000
vt 0.000000 60.000000 0.000000
vt 2.000000 60.000000 0.000000
vt 2.000000 15.855665 0.000000
vt 2.000000 60.000000 0.000000
vt 0.000000 24.532527 0.000000
vt 0.000000 60.000000 0.000000
vt 0.000000 15.855665 0.000000
vt 2.000000 24.532527 0.000000
vt 0.000000 60.000000 0.000000
vt 2.000000 60.000000 0.000000
vt 0.000000 15.855665 0.000000
vt 2.000000 15.855665 0.000000
vt 0.000000 60.000000 0.000000
vt 2.000000 60.000000 0.000000
vt 1.000000 1.000000 0.000000
vt -1.000000 1.000000 0.000000
vt 1.000000 -1.000000 0.000000
vt -1.000000 -1.000000 0.000000
vn 0.000000 0.097445 0.022461
vn 0.000000 0.097445 0.022461
vn 0.000000 0.097445 0.022461
vn 0.000000 0.097445 0.022461
vn 0.000000 0.100000 0.000000
vn 0.000000 0.100000 0.000000
vn 0.000000 0.100000 0.000000
vn 0.000000 0.100000 0.000000
vn 0.100000 0.000000 0.000000
vn 0.100000 0.000000 0.000000
vn 0.100000 0.000000 0.000000
vn 0.100000 0.000000 0.000000
vn -0.100000 0.000000 0.000000
vn -0.100000 0.000000 0.000000
vn -0.100000 0.000000 0.000000
vn -0.100000 0.000000 0.000000
vn 0.000000 -0.100000 0.000000
vn 0.000000 -0.100000 0.000000
vn 0.000000 -0.100000 0.000000
vn 0.000000 -0.100000 0.000000
vn 0.000000 0.000000 -0.100000
vn 0.000000 0.000000 -0.100000
vn 0.000000 0.000000 -0.100000
vn 0.000000 0.000000 -0.100000
usemtl Steel_-_Satin
f 1/1/1 2/2/2 4/3/3
f 4/3/3 2/2/2 3/4/4
f 1/5/5 4/6/6 6/7/7
f 6/7/7 4/6/6 5/8/8
f 3/9/9 7/10/10 4/11/11
f 4/11/11 7/10/10 5/12/12
f 2/13/13 1/14/14 8/15/15
f 8/15/15 1/14/14 6/16/16
f 3/17/17 2/18/18 7/19/19
f 7/19/19 2/18/18 8/20/20
f 6/21/21 5/22/22 8/23/23
f 8/23/23 5/22/22 7/24/24
# 8 vertices
# 24 texture params
# 24 normals
# 12 facets

# 1 groups
