# WaveFront *.obj file (generated by Autodesk ATF)

mtllib Houses v8_Houses v8_Body571.mtl

g Body571

v -810.429045 -1560.890326 415.000000
v -810.429045 -1553.323392 425.000000
v -810.429045 -1514.296263 425.000000
v -810.429045 -1501.080869 415.000000
v -805.429045 -1557.106859 420.000000
v -805.525119 -1557.844977 419.024548
v -805.809648 -1558.554729 418.086583
v -806.271697 -1559.208840 417.222149
v -806.563993 -1559.507065 416.828034
v -806.893511 -1559.782174 416.464466
v -807.257079 -1560.031518 416.134948
v -807.651194 -1560.252697 415.842652
v -808.072062 -1560.443579 415.590394
v -808.515628 -1560.602326 415.380602
v -808.977622 -1560.727411 415.215298
v -809.453594 -1560.817627 415.096074
v -809.938960 -1560.872107 415.024076
v -809.938960 -1501.112687 415.024076
v -809.453594 -1501.207834 415.096074
v -808.977622 -1501.365394 415.215298
v -808.515628 -1501.583850 415.380602
v -808.072062 -1501.861098 415.590394
v -807.651194 -1502.194467 415.842652
v -807.257079 -1502.580747 416.134948
v -806.893511 -1503.016219 416.464466
v -806.271697 -1504.017526 417.222149
v -805.809648 -1505.159910 418.086583
v -805.525119 -1506.399468 419.024548
v -805.429045 -1507.688566 420.000000
v -805.505007 -1545.937962 419.131759
v -805.505007 -1530.985597 419.131759
v -805.505007 -1516.033233 419.131759
v -805.730582 -1545.937962 418.289899
v -805.730582 -1530.985597 418.289899
v -805.730582 -1516.033233 418.289899
v -806.098918 -1545.937962 417.500000
v -806.098918 -1530.985597 417.500000
v -806.098918 -1516.033233 417.500000
v -806.598823 -1545.937962 416.786062
v -806.598823 -1530.985597 416.786062
v -806.598823 -1516.033233 416.786062
v -807.215107 -1545.937962 416.169778
v -807.215107 -1530.985597 416.169778
v -807.215107 -1516.033233 416.169778
v -807.929045 -1545.937962 415.669873
v -807.929045 -1530.985597 415.669873
v -807.929045 -1516.033233 415.669873
v -808.718945 -1545.937962 415.301537
v -808.718945 -1530.985597 415.301537
v -808.718945 -1516.033233 415.301537
v -809.560804 -1545.937962 415.075961
v -809.560804 -1530.985597 415.075961
v -809.560804 -1516.033233 415.075961
v -805.429045 -1553.323392 425.000000
v -805.429045 -1514.296263 425.000000
vt 15.332339 0.500000 0.000000
vt 11.429626 0.500000 0.000000
vt 16.089033 -0.500000 0.000000
vt 10.108087 -0.500000 0.000000
vt 5.034498 -0.294524 0.000000
vt 3.843796 -0.305433 0.000000
vt 4.960686 -0.392699 0.000000
vt 2.348560 -0.305433 0.000000
vt 0.018857 -0.392699 0.000000
vt 0.853323 -0.305433 0.000000
vt -0.110053 -0.294524 0.000000
vt 0.853323 -0.218166 0.000000
vt -0.234009 -0.196350 0.000000
vt 0.853323 -0.130900 0.000000
vt -0.348247 -0.098175 0.000000
vt 0.853323 -0.043633 0.000000
vt -0.448378 0.000000 0.000000
vt 0.853323 0.043633 0.000000
vt -0.491925 0.049087 0.000000
vt -0.530553 0.098175 0.000000
vt 0.853323 0.130900 0.000000
vt -0.563890 0.147262 0.000000
vt -0.591615 0.196350 0.000000
vt 0.853323 0.218166 0.000000
vt -0.613461 0.245437 0.000000
vt 0.853323 0.305433 0.000000
vt -0.629217 0.294524 0.000000
vt -0.638731 0.343612 0.000000
vt -0.641913 0.392699 0.000000
vt 2.348560 0.305433 0.000000
vt 5.337211 0.343612 0.000000
vt 3.843796 0.305433 0.000000
vt 5.331763 0.294524 0.000000
vt 5.322741 0.245437 0.000000
vt 3.843796 0.218166 0.000000
vt 5.310233 0.196350 0.000000
vt 3.843796 0.130900 0.000000
vt 5.294358 0.147262 0.000000
vt 5.275270 0.098175 0.000000
vt 3.843796 0.043633 0.000000
vt 5.253152 0.049087 0.000000
vt 5.228217 0.000000 0.000000
vt 3.843796 -0.043633 0.000000
vt 5.200706 -0.049087 0.000000
vt 5.170884 -0.098175 0.000000
vt 3.843796 -0.130900 0.000000
vt 5.105473 -0.196350 0.000000
vt 3.843796 -0.218166 0.000000
vt 5.339033 0.392699 0.000000
vt 2.348560 -0.218166 0.000000
vt 2.348560 -0.130900 0.000000
vt 2.348560 -0.043633 0.000000
vt 2.348560 0.043633 0.000000
vt 2.348560 0.130900 0.000000
vt 2.348560 0.218166 0.000000
vt -0.500000 -15.332339 0.000000
vt 0.000000 -15.710686 0.000000
vt -0.500000 -11.429626 0.000000
vt 0.000000 -10.768857 0.000000
vt 36.832339 0.500000 0.000000
vt 32.929626 0.500000 0.000000
vt 36.832339 0.000000 0.000000
vt 32.929626 0.000000 0.000000
vt -2.034292 0.509607 0.000000
vt -1.878848 0.538060 0.000000
vt -2.195949 0.500000 0.000000
vt -1.735590 0.584265 0.000000
vt -1.610023 0.646447 0.000000
vt -3.024572 1.000000 0.000000
vt -1.555414 0.682803 0.000000
vt -1.506974 0.722215 0.000000
vt -1.465168 0.764302 0.000000
vt -1.430401 0.808658 0.000000
vt -1.403006 0.854858 0.000000
vt -1.383247 0.902455 0.000000
vt -1.371315 0.950991 0.000000
vt -1.367325 1.000000 0.000000
vt -3.024572 0.500000 0.000000
vt -3.608965 1.000000 0.000000
vt -3.605946 0.950991 0.000000
vt -2.354938 1.000000 0.000000
vt -3.596918 0.902455 0.000000
vt -3.581966 0.854858 0.000000
vt -3.561237 0.808658 0.000000
vt -3.534928 0.764302 0.000000
vt -3.503295 0.722215 0.000000
vt -3.466640 0.682803 0.000000
vt -3.425317 0.646447 0.000000
vt -2.981952 0.500000 0.000000
vt -3.379725 0.613495 0.000000
vt -3.330302 0.584265 0.000000
vt -3.221899 0.538060 0.000000
vt -3.104276 0.509607 0.000000
vt -2.354938 0.500000 0.000000
vn -0.100000 0.000000 0.000000
vn -0.100000 0.000000 0.000000
vn -0.100000 0.000000 0.000000
vn -0.100000 0.000000 0.000000
vn 0.098079 0.000000 -0.019509
vn 0.098481 0.000000 -0.017365
vn 0.100000 0.000000 -0.000000
vn 0.098481 0.000000 -0.017365
vn 0.100000 0.000000 -0.000000
vn 0.098481 0.000000 -0.017365
vn 0.098079 0.000000 -0.019509
vn 0.093969 0.000000 -0.034202
vn 0.092388 0.000000 -0.038268
vn 0.086603 0.000000 -0.050000
vn 0.083147 0.000000 -0.055557
vn 0.076604 0.000000 -0.064279
vn 0.070711 0.000000 -0.070711
vn 0.064279 0.000000 -0.076604
vn 0.063439 0.000000 -0.077301
vn 0.055557 0.000000 -0.083147
vn 0.050000 0.000000 -0.086603
vn 0.047140 0.000000 -0.088192
vn 0.038268 0.000000 -0.092388
vn 0.034202 0.000000 -0.093969
vn 0.029028 0.000000 -0.095694
vn 0.017365 0.000000 -0.098481
vn 0.019509 0.000000 -0.098079
vn 0.009802 0.000000 -0.099518
vn 0.000000 0.000000 -0.100000
vn 0.017365 0.000000 -0.098481
vn 0.009802 0.000000 -0.099518
vn 0.017365 0.000000 -0.098481
vn 0.019509 0.000000 -0.098079
vn 0.029028 0.000000 -0.095694
vn 0.034202 0.000000 -0.093969
vn 0.038268 0.000000 -0.092388
vn 0.050000 0.000000 -0.086603
vn 0.047140 0.000000 -0.088192
vn 0.055557 0.000000 -0.083147
vn 0.064279 0.000000 -0.076604
vn 0.063439 0.000000 -0.077301
vn 0.070711 0.000000 -0.070711
vn 0.076604 0.000000 -0.064279
vn 0.077301 0.000000 -0.063439
vn 0.083147 0.000000 -0.055557
vn 0.086603 0.000000 -0.050000
vn 0.092388 0.000000 -0.038268
vn 0.093969 0.000000 -0.034202
vn 0.000000 0.000000 -0.100000
vn 0.093969 0.000000 -0.034202
vn 0.086603 0.000000 -0.050000
vn 0.076604 0.000000 -0.064279
vn 0.064279 0.000000 -0.076604
vn 0.050000 0.000000 -0.086603
vn 0.034202 0.000000 -0.093969
vn 0.100000 0.000000 0.000000
vn 0.100000 0.000000 0.000000
vn 0.000000 0.000000 0.100000
vn 0.000000 0.000000 0.100000
vn 0.000000 0.000000 0.100000
vn 0.000000 0.000000 0.100000
vn 0.000000 0.060341 0.079743
vn 0.000000 0.060341 0.079743
vn 0.000000 0.060341 0.079743
vn 0.000000 0.060341 0.079743
vn 0.000000 0.060341 0.079743
vn 0.000000 0.060341 0.079743
vn 0.000000 0.060341 0.079743
vn 0.000000 0.060341 0.079743
vn 0.000000 0.060341 0.079743
vn 0.000000 0.060341 0.079743
vn 0.000000 0.060341 0.079743
vn 0.000000 0.060341 0.079743
vn 0.000000 0.060341 0.079743
vn 0.000000 0.060341 0.079743
vn 0.000000 0.060341 0.079743
vn 0.000000 -0.079743 0.060341
vn 0.000000 -0.079743 0.060341
vn 0.000000 -0.079743 0.060341
vn 0.000000 -0.079743 0.060341
vn 0.000000 -0.079743 0.060341
vn 0.000000 -0.079743 0.060341
vn 0.000000 -0.079743 0.060341
vn 0.000000 -0.079743 0.060341
vn 0.000000 -0.079743 0.060341
vn 0.000000 -0.079743 0.060341
vn 0.000000 -0.079743 0.060341
vn 0.000000 -0.079743 0.060341
vn 0.000000 -0.079743 0.060341
vn 0.000000 -0.079743 0.060341
vn 0.000000 -0.079743 0.060341
vn 0.000000 -0.079743 0.060341
usemtl Steel_-_Satin
f 2/1/1 3/2/2 1/3/3
f 1/3/3 3/2/2 4/4/4
f 6/5/5 30/6/6 5/7/7
f 5/7/7 30/6/6 31/8/8
f 5/7/7 31/8/8 29/9/9
f 29/9/9 31/8/8 32/10/10
f 29/9/9 32/10/10 28/11/11
f 28/11/11 32/10/10 35/12/12
f 28/11/11 35/12/12 27/13/13
f 27/13/13 35/12/12 38/14/14
f 27/13/13 38/14/14 26/15/15
f 26/15/15 38/14/14 41/16/16
f 26/15/15 41/16/16 25/17/17
f 25/17/17 41/16/16 44/18/18
f 25/17/17 44/18/18 24/19/19
f 24/19/19 44/18/18 23/20/20
f 23/20/20 44/18/18 47/21/21
f 23/20/20 47/21/21 22/22/22
f 22/22/22 47/21/21 21/23/23
f 21/23/23 47/21/21 50/24/24
f 21/23/23 50/24/24 20/25/25
f 20/25/25 50/24/24 53/26/26
f 20/25/25 53/26/26 19/27/27
f 19/27/27 53/26/26 18/28/28
f 18/28/28 53/26/26 4/29/29
f 4/29/29 53/26/26 52/30/30
f 4/29/29 52/30/30 17/31/31
f 17/31/31 52/30/30 51/32/32
f 17/31/31 51/32/32 16/33/33
f 16/33/33 51/32/32 15/34/34
f 15/34/34 51/32/32 48/35/35
f 15/34/34 48/35/35 14/36/36
f 14/36/36 48/35/35 45/37/37
f 14/36/36 45/37/37 13/38/38
f 13/38/38 45/37/37 12/39/39
f 12/39/39 45/37/37 42/40/40
f 12/39/39 42/40/40 11/41/41
f 11/41/41 42/40/40 10/42/42
f 10/42/42 42/40/40 39/43/43
f 10/42/42 39/43/43 9/44/44
f 9/44/44 39/43/43 8/45/45
f 8/45/45 39/43/43 36/46/46
f 8/45/45 36/46/46 7/47/47
f 7/47/47 36/46/46 33/48/48
f 7/47/47 33/48/48 6/5/5
f 6/5/5 33/48/48 30/6/6
f 17/31/31 1/49/49 4/29/29
f 35/12/12 32/10/10 31/8/8
f 31/8/8 30/6/6 34/50/50
f 34/50/50 30/6/6 33/48/48
f 34/50/50 33/48/48 37/51/51
f 37/51/51 33/48/48 36/46/46
f 37/51/51 36/46/46 40/52/52
f 40/52/52 36/46/46 39/43/43
f 40/52/52 39/43/43 43/53/53
f 43/53/53 39/43/43 42/40/40
f 43/53/53 42/40/40 46/54/54
f 46/54/54 42/40/40 45/37/37
f 46/54/54 45/37/37 49/55/55
f 49/55/55 45/37/37 48/35/35
f 49/55/55 48/35/35 52/30/30
f 52/30/30 48/35/35 51/32/32
f 38/14/14 35/12/12 34/50/50
f 34/50/50 35/12/12 31/8/8
f 38/14/14 34/50/50 37/51/51
f 41/16/16 38/14/14 37/51/51
f 41/16/16 37/51/51 40/52/52
f 44/18/18 41/16/16 40/52/52
f 44/18/18 40/52/52 43/53/53
f 47/21/21 44/18/18 43/53/53
f 47/21/21 43/53/53 46/54/54
f 50/24/24 47/21/21 46/54/54
f 50/24/24 46/54/54 49/55/55
f 53/26/26 50/24/24 49/55/55
f 53/26/26 49/55/55 52/30/30
f 54/56/56 5/57/7 55/58/57
f 55/58/57 5/57/7 29/59/9
f 54/60/58 55/61/59 2/62/60
f 2/62/60 55/61/59 3/63/61
f 28/64/62 27/65/63 29/66/64
f 29/66/64 27/65/63 26/67/65
f 29/66/64 26/67/65 25/68/66
f 29/66/64 25/68/66 3/69/67
f 3/69/67 25/68/66 24/70/68
f 3/69/67 24/70/68 23/71/69
f 23/71/69 22/72/70 3/69/67
f 3/69/67 22/72/70 21/73/71
f 3/69/67 21/73/71 20/74/72
f 20/74/72 19/75/73 3/69/67
f 3/69/67 19/75/73 18/76/74
f 3/69/67 18/76/74 4/77/75
f 3/69/67 55/78/76 29/66/64
f 1/79/77 17/80/78 2/81/79
f 2/81/79 17/80/78 16/82/80
f 2/81/79 16/82/80 15/83/81
f 15/83/81 14/84/82 2/81/79
f 2/81/79 14/84/82 13/85/83
f 2/81/79 13/85/83 12/86/84
f 12/86/84 11/87/85 2/81/79
f 2/81/79 11/87/85 10/88/86
f 2/81/79 10/88/86 5/89/87
f 5/89/87 10/88/86 9/90/88
f 5/89/87 9/90/88 8/91/89
f 8/91/89 7/92/90 5/89/87
f 5/89/87 7/92/90 6/93/91
f 5/89/87 54/94/92 2/81/79
# 55 vertices
# 94 texture params
# 92 normals
# 106 facets

# 1 groups
