# WaveFront *.obj file (generated by Autodesk ATF)

mtllib Houses v8_Houses v8_Body533.mtl

g Body533

v -809.429045 -1317.250000 455.007806
v -810.429045 -1317.250000 455.007806
v -810.429045 -1320.000000 457.817926
v -809.429045 -1320.000000 457.817926
v -810.429045 -1350.259012 427.250000
v -809.429045 -1350.259012 427.250000
v -809.429045 -1350.668169 430.000000
v -810.429045 -1350.668169 430.000000
v -809.429045 -1320.000000 430.000000
v -810.429045 -1320.000000 430.000000
v -809.429045 -1317.250000 427.250000
v -810.429045 -1317.250000 427.250000
vt -4.614885 1.000000 0.000000
vt -5.008068 1.000000 0.000000
vt -4.614885 0.900000 0.000000
vt -5.008068 0.900000 0.000000
vt -3.551132 0.900000 0.000000
vt -3.273105 0.900000 0.000000
vt -3.551132 1.000000 0.000000
vt -3.273105 1.000000 0.000000
vt 3.066817 0.100000 0.000000
vt 0.000000 0.100000 0.000000
vt 3.066817 0.000000 0.000000
vt 0.000000 0.000000 0.000000
vt 2.000000 -1.066817 0.000000
vt 2.275000 -1.025901 0.000000
vt 2.000000 2.000000 0.000000
vt 2.275000 2.275000 0.000000
vt -0.500781 2.275000 0.000000
vt -0.781793 2.000000 0.000000
vt 1.218207 0.000000 0.000000
vt 4.000000 0.000000 0.000000
vt 1.218207 0.100000 0.000000
vt 4.000000 0.100000 0.000000
vt 2.775781 0.100000 0.000000
vt 0.000000 0.100000 0.000000
vt 2.775781 0.000000 0.000000
vt 0.000000 0.000000 0.000000
vt 1.249099 0.000000 0.000000
vt 4.550000 0.000000 0.000000
vt 1.249099 0.100000 0.000000
vt 4.550000 0.100000 0.000000
vt 1.066817 -2.000000 0.000000
vt -2.000000 -2.000000 0.000000
vt 1.025901 -2.275000 0.000000
vt -2.275000 -2.275000 0.000000
vt -2.275000 0.500781 0.000000
vt -2.000000 0.781793 0.000000
vn 0.000000 0.071471 0.069942
vn 0.000000 0.071471 0.069942
vn 0.000000 0.071471 0.069942
vn 0.000000 0.071471 0.069942
vn 0.000000 -0.098911 -0.014716
vn 0.000000 -0.098911 -0.014716
vn 0.000000 -0.098911 -0.014716
vn 0.000000 -0.098911 -0.014716
vn 0.000000 0.000000 0.100000
vn 0.000000 0.000000 0.100000
vn 0.000000 0.000000 0.100000
vn 0.000000 0.000000 0.100000
vn 0.100000 0.000000 0.000000
vn 0.100000 0.000000 0.000000
vn 0.100000 0.000000 0.000000
vn 0.100000 0.000000 0.000000
vn 0.100000 0.000000 0.000000
vn 0.100000 0.000000 0.000000
vn 0.000000 -0.100000 0.000000
vn 0.000000 -0.100000 0.000000
vn 0.000000 -0.100000 0.000000
vn 0.000000 -0.100000 0.000000
vn 0.000000 0.100000 0.000000
vn 0.000000 0.100000 0.000000
vn 0.000000 0.100000 0.000000
vn 0.000000 0.100000 0.000000
vn 0.000000 0.000000 -0.100000
vn 0.000000 0.000000 -0.100000
vn 0.000000 0.000000 -0.100000
vn 0.000000 0.000000 -0.100000
vn -0.100000 0.000000 0.000000
vn -0.100000 0.000000 0.000000
vn -0.100000 0.000000 0.000000
vn -0.100000 0.000000 0.000000
vn -0.100000 0.000000 0.000000
vn -0.100000 0.000000 0.000000
usemtl Steel_-_Satin
f 2/1/1 3/2/2 1/3/3
f 1/3/3 3/2/2 4/4/4
f 6/5/5 7/6/6 5/7/7
f 5/7/7 7/6/6 8/8/8
f 7/9/9 9/10/10 8/11/11
f 8/11/11 9/10/10 10/12/12
f 7/13/13 6/14/14 9/15/15
f 9/15/15 6/14/14 11/16/16
f 9/15/15 11/16/16 1/17/17
f 1/17/17 4/18/18 9/15/15
f 3/19/19 10/20/20 4/21/21
f 4/21/21 10/20/20 9/22/22
f 1/23/23 11/24/24 2/25/25
f 2/25/25 11/24/24 12/26/26
f 5/27/27 12/28/28 6/29/29
f 6/29/29 12/28/28 11/30/30
f 8/31/31 10/32/32 5/33/33
f 5/33/33 10/32/32 12/34/34
f 12/34/34 10/32/32 2/35/35
f 2/35/35 10/32/32 3/36/36
# 12 vertices
# 36 texture params
# 36 normals
# 20 facets

# 1 groups
