# WaveFront *.obj file (generated by Autodesk ATF)

mtllib Houses v8_Houses v8_Body547.mtl

g Body547

v -810.329045 -1260.000000 430.021177
v -810.329045 -1229.960360 439.640153
v -810.429045 -1229.960360 439.640153
v -810.429045 -1260.000000 430.021177
v -810.329045 -1220.000000 457.514060
v -810.429045 -1220.000000 457.514060
v -810.429045 -1260.000000 430.000000
v -810.329045 -1260.000000 430.000000
v -810.429045 -1220.000000 430.000000
v -810.329045 -1220.000000 430.000000
vt -3.154211 0.990000 0.000000
vt -0.000000 0.990000 0.000000
vt -3.154211 1.000000 0.000000
vt -0.000000 1.000000 0.000000
vt -7.481133 0.990000 0.000000
vt -5.434953 0.990000 0.000000
vt -7.481133 1.000000 0.000000
vt -5.434953 1.000000 0.000000
vt 3.997882 0.000000 0.000000
vt 4.000000 0.000000 0.000000
vt 3.997882 0.010000 0.000000
vt 4.000000 0.010000 0.000000
vt 2.000000 -1.997882 0.000000
vt -1.003964 -1.035985 0.000000
vt 2.000000 -2.000000 0.000000
vt -2.000000 -2.000000 0.000000
vt -2.000000 0.751406 0.000000
vt 2.751406 0.010000 0.000000
vt 0.000000 0.010000 0.000000
vt 2.751406 0.000000 0.000000
vt 0.000000 0.000000 0.000000
vt 0.000000 0.000000 0.000000
vt 4.000000 0.000000 0.000000
vt 0.000000 0.010000 0.000000
vt 4.000000 0.010000 0.000000
vt 1.997882 -2.000000 0.000000
vt 2.000000 -2.000000 0.000000
vt 1.035985 1.003964 0.000000
vt 2.000000 2.000000 0.000000
vt -0.751406 2.000000 0.000000
vn 0.000000 -0.030496 0.095237
vn 0.000000 -0.030496 0.095237
vn 0.000000 -0.030496 0.095237
vn 0.000000 -0.030496 0.095237
vn 0.000000 -0.087353 0.048678
vn 0.000000 -0.087353 0.048678
vn 0.000000 -0.087353 0.048678
vn 0.000000 -0.087353 0.048678
vn 0.000000 -0.100000 0.000000
vn 0.000000 -0.100000 0.000000
vn 0.000000 -0.100000 0.000000
vn 0.000000 -0.100000 0.000000
vn -0.100000 0.000000 0.000000
vn -0.100000 0.000000 0.000000
vn -0.100000 0.000000 0.000000
vn -0.100000 0.000000 0.000000
vn -0.100000 0.000000 0.000000
vn 0.000000 0.100000 0.000000
vn 0.000000 0.100000 0.000000
vn 0.000000 0.100000 0.000000
vn 0.000000 0.100000 0.000000
vn 0.000000 0.000000 -0.100000
vn 0.000000 0.000000 -0.100000
vn 0.000000 0.000000 -0.100000
vn 0.000000 0.000000 -0.100000
vn 0.100000 0.000000 0.000000
vn 0.100000 0.000000 0.000000
vn 0.100000 0.000000 0.000000
vn 0.100000 0.000000 0.000000
vn 0.100000 0.000000 0.000000
usemtl Steel_-_Satin
f 1/1/1 2/2/2 4/3/3
f 4/3/3 2/2/2 3/4/4
f 2/5/5 5/6/6 3/7/7
f 3/7/7 5/6/6 6/8/8
f 4/9/9 7/10/10 1/11/11
f 1/11/11 7/10/10 8/12/12
f 4/13/13 3/14/14 7/15/15
f 7/15/15 3/14/14 9/16/16
f 9/16/16 3/14/14 6/17/17
f 5/18/18 10/19/19 6/20/20
f 6/20/20 10/19/19 9/21/21
f 7/22/22 9/23/23 8/24/24
f 8/24/24 9/23/23 10/25/25
f 1/26/26 8/27/27 2/28/28
f 2/28/28 8/27/27 10/29/29
f 2/28/28 10/29/29 5/30/30
# 10 vertices
# 30 texture params
# 30 normals
# 16 facets

# 1 groups
