# WaveFront *.obj file (generated by Autodesk ATF)

mtllib Houses v8_Houses v8_Body465.mtl

g Body465

v 857.593268 320.000000 16.043259
v 857.593268 320.000000 28.602157
v 857.593268 318.000000 28.602157
v 857.593268 318.000000 16.043259
v 869.048440 320.000000 16.043259
v 869.048440 318.000000 16.043259
v 869.048440 320.000000 28.602157
v 869.048440 318.000000 28.602157
v 870.000012 320.000000 15.000000
v 870.000012 320.000000 29.645416
v 870.000012 318.000000 29.645416
v 870.000012 318.000000 15.000000
v 856.641695 320.000000 15.000000
v 856.641695 318.000000 15.000000
v 856.641695 320.000000 29.645416
v 856.641695 318.000000 29.645416
vt 0.000000 0.000000 0.000000
vt 1.255890 0.000000 0.000000
vt 0.000000 0.200000 0.000000
vt 1.255890 0.200000 0.000000
vt 0.000000 0.000000 0.000000
vt 1.145517 0.000000 0.000000
vt 0.000000 0.200000 0.000000
vt 1.145517 0.200000 0.000000
vt 0.000000 0.000000 0.000000
vt 1.255890 0.000000 0.000000
vt 0.000000 0.200000 0.000000
vt 1.255890 0.200000 0.000000
vt 0.000000 0.000000 0.000000
vt 1.145517 0.000000 0.000000
vt 0.000000 0.200000 0.000000
vt 1.145517 0.200000 0.000000
vt 0.000000 0.000000 0.000000
vt 1.464542 0.000000 0.000000
vt 0.000000 0.200000 0.000000
vt 1.464542 0.200000 0.000000
vt 0.000000 0.000000 0.000000
vt 1.335832 0.000000 0.000000
vt 0.000000 0.200000 0.000000
vt 1.335832 0.200000 0.000000
vt -0.000000 0.000000 0.000000
vt 1.464542 0.000000 0.000000
vt 0.000000 0.200000 0.000000
vt 1.464542 0.200000 0.000000
vt -0.000000 0.000000 0.000000
vt 1.335832 0.000000 0.000000
vt 0.000000 0.200000 0.000000
vt 1.335832 0.200000 0.000000
vt -0.627945 0.572759 0.000000
vt -0.732271 -0.667916 0.000000
vt -0.627945 -0.572759 0.000000
vt 0.732271 -0.667916 0.000000
vt 0.627945 -0.572759 0.000000
vt 0.627945 0.572759 0.000000
vt 0.732271 0.667916 0.000000
vt -0.732271 0.667916 0.000000
vt 0.572759 0.627945 0.000000
vt -0.667916 0.732271 0.000000
vt -0.572759 0.627945 0.000000
vt -0.667916 -0.732271 0.000000
vt -0.572759 -0.627945 0.000000
vt 0.667916 -0.732271 0.000000
vt 0.572759 -0.627945 0.000000
vt 0.667916 0.732271 0.000000
vn 0.100000 0.000000 0.000000
vn 0.100000 0.000000 0.000000
vn 0.100000 0.000000 0.000000
vn 0.100000 0.000000 0.000000
vn 0.000000 0.000000 0.100000
vn 0.000000 0.000000 0.100000
vn 0.000000 0.000000 0.100000
vn 0.000000 0.000000 0.100000
vn -0.100000 0.000000 0.000000
vn -0.100000 0.000000 0.000000
vn -0.100000 0.000000 0.000000
vn -0.100000 0.000000 0.000000
vn 0.000000 0.000000 -0.100000
vn 0.000000 0.000000 -0.100000
vn 0.000000 0.000000 -0.100000
vn 0.000000 0.000000 -0.100000
vn 0.100000 0.000000 0.000000
vn 0.100000 0.000000 0.000000
vn 0.100000 0.000000 0.000000
vn 0.100000 0.000000 0.000000
vn 0.000000 0.000000 -0.100000
vn 0.000000 0.000000 -0.100000
vn 0.000000 0.000000 -0.100000
vn 0.000000 0.000000 -0.100000
vn -0.100000 0.000000 0.000000
vn -0.100000 0.000000 0.000000
vn -0.100000 0.000000 0.000000
vn -0.100000 0.000000 0.000000
vn 0.000000 0.000000 0.100000
vn 0.000000 0.000000 0.100000
vn 0.000000 0.000000 0.100000
vn 0.000000 0.000000 0.100000
vn 0.000000 -0.100000 0.000000
vn 0.000000 -0.100000 0.000000
vn 0.000000 -0.100000 0.000000
vn 0.000000 -0.100000 0.000000
vn 0.000000 -0.100000 0.000000
vn 0.000000 -0.100000 0.000000
vn 0.000000 -0.100000 0.000000
vn 0.000000 -0.100000 0.000000
vn -0.000000 0.100000 -0.000000
vn -0.000000 0.100000 -0.000000
vn -0.000000 0.100000 -0.000000
vn -0.000000 0.100000 -0.000000
vn -0.000000 0.100000 -0.000000
vn -0.000000 0.100000 -0.000000
vn -0.000000 0.100000 -0.000000
vn -0.000000 0.100000 -0.000000
usemtl Steel_-_Satin
f 1/1/1 2/2/2 4/3/3
f 4/3/3 2/2/2 3/4/4
f 5/5/5 1/6/6 6/7/7
f 6/7/7 1/6/6 4/8/8
f 7/9/9 5/10/10 8/11/11
f 8/11/11 5/10/10 6/12/12
f 2/13/13 7/14/14 3/15/15
f 3/15/15 7/14/14 8/16/16
f 9/17/17 10/18/18 12/19/19
f 12/19/19 10/18/18 11/20/20
f 13/21/21 9/22/22 14/23/23
f 14/23/23 9/22/22 12/24/24
f 15/25/25 13/26/26 16/27/27
f 16/27/27 13/26/26 14/28/28
f 10/29/29 15/30/30 11/31/31
f 11/31/31 15/30/30 16/32/32
f 8/33/33 16/34/34 3/35/35
f 3/35/35 16/34/34 14/36/36
f 3/35/35 14/36/36 4/37/37
f 4/37/37 14/36/36 6/38/38
f 6/38/38 14/36/36 12/39/39
f 6/38/38 12/39/39 11/40/40
f 16/34/34 8/33/33 11/40/40
f 11/40/40 8/33/33 6/38/38
f 2/41/41 10/42/42 7/43/43
f 7/43/43 10/42/42 9/44/44
f 7/43/43 9/44/44 5/45/45
f 5/45/45 9/44/44 13/46/46
f 5/45/45 13/46/46 1/47/47
f 1/47/47 13/46/46 2/41/41
f 2/41/41 13/46/46 15/48/48
f 2/41/41 15/48/48 10/42/42
# 16 vertices
# 48 texture params
# 48 normals
# 32 facets

# 1 groups
