# WaveFront *.obj file (generated by Autodesk ATF)

mtllib Houses v8_Houses v8_Body487.mtl

g Body487

v -810.429045 -1193.528774 505.000000
v -810.429045 -1193.543831 504.989761
v -805.429045 -1193.543831 504.989761
v -805.429045 -1193.528774 505.000000
v -810.429045 -1199.110696 495.000000
v -809.938960 -1199.097279 495.024076
v -809.453594 -1199.057158 495.096074
v -808.977622 -1198.990719 495.215298
v -808.515628 -1198.898602 495.380602
v -808.072062 -1198.781695 495.590394
v -807.651194 -1198.641122 495.842652
v -807.257079 -1198.478238 496.134948
v -806.893511 -1198.294612 496.464466
v -806.563993 -1198.092011 496.828034
v -806.271697 -1197.872388 497.222149
v -806.019439 -1197.637856 497.643016
v -805.809648 -1197.390676 498.086583
v -805.644344 -1197.133226 498.548577
v -805.525119 -1196.867988 499.024548
v -805.429045 -1196.324411 500.000000
v -805.429045 -1185.000000 505.000000
v -810.429045 -1185.000000 505.000000
v -805.429045 -1185.000000 500.000000
v -810.429045 -1185.000000 495.000000
v -809.560804 -1185.000000 495.075961
v -808.718945 -1185.000000 495.301537
v -807.929045 -1185.000000 495.669873
v -807.215107 -1185.000000 496.169778
v -806.598823 -1185.000000 496.786062
v -806.098918 -1185.000000 497.500000
v -805.730582 -1185.000000 498.289899
v -805.505007 -1185.000000 499.131759
vt -4.595979 1.000000 0.000000
vt -4.597800 1.000000 0.000000
vt -4.595979 0.500000 0.000000
vt -4.597800 0.500000 0.000000
vt -1.143614 1.000000 0.000000
vt -1.140858 0.950991 0.000000
vt -0.000000 1.000000 0.000000
vt -1.132616 0.902455 0.000000
vt -1.118967 0.854858 0.000000
vt -1.100043 0.808658 0.000000
vt -1.076027 0.764302 0.000000
vt -1.047148 0.722215 0.000000
vt -1.013687 0.682803 0.000000
vt -0.975964 0.646447 0.000000
vt -0.571221 0.500000 0.000000
vt -0.934343 0.613495 0.000000
vt -0.889226 0.584265 0.000000
vt -0.841045 0.559039 0.000000
vt -0.790266 0.538060 0.000000
vt -0.737378 0.521530 0.000000
vt -0.682889 0.509607 0.000000
vt -0.000000 0.500000 0.000000
vt 0.852877 0.500000 0.000000
vt 0.000000 0.500000 0.000000
vt 0.852877 0.000000 0.000000
vt 0.000000 0.000000 0.000000
vt -0.500000 20.647123 0.000000
vt -0.498976 20.645617 0.000000
vt -0.500000 21.500000 0.000000
vt 0.000000 21.500000 0.000000
vt 0.000000 20.367559 0.000000
vt -32.250000 -0.392699 0.000000
vt -31.117559 -0.392699 0.000000
vt -32.250000 -0.305433 0.000000
vt -31.063201 -0.294524 0.000000
vt -31.036677 -0.245437 0.000000
vt -32.250000 -0.218166 0.000000
vt -31.010932 -0.196350 0.000000
vt -32.250000 -0.130900 0.000000
vt -30.986214 -0.147262 0.000000
vt -30.962761 -0.098175 0.000000
vt -32.250000 -0.043633 0.000000
vt -30.940799 -0.049087 0.000000
vt -30.920539 0.000000 0.000000
vt -32.250000 0.043633 0.000000
vt -30.902176 0.049087 0.000000
vt -30.885888 0.098175 0.000000
vt -32.250000 0.130900 0.000000
vt -30.871831 0.147262 0.000000
vt -30.860140 0.196350 0.000000
vt -32.250000 0.218166 0.000000
vt -30.850928 0.245437 0.000000
vt -32.250000 0.305433 0.000000
vt -30.844284 0.294524 0.000000
vt -30.840272 0.343612 0.000000
vt -30.838930 0.392699 0.000000
vt -32.250000 0.392699 0.000000
vt 0.413176 0.492404 0.000000
vt 0.328990 0.469846 0.000000
vt 0.500000 0.500000 0.000000
vt 0.250000 0.433013 0.000000
vt 0.178606 0.383022 0.000000
vt 1.000000 0.000000 0.000000
vt 0.116978 0.321394 0.000000
vt 0.066987 0.250000 0.000000
vt 0.030154 0.171010 0.000000
vt 0.007596 0.086824 0.000000
vt 0.000000 0.000000 0.000000
vt 1.000000 0.500000 0.000000
vt -20.647123 0.500000 0.000000
vt -21.500000 0.500000 0.000000
vt -20.645617 0.498976 0.000000
vt -21.500000 -0.500000 0.000000
vt -20.088930 -0.500000 0.000000
vn 0.000000 -0.056231 0.082693
vn 0.000000 -0.056231 0.082693
vn 0.000000 -0.056231 0.082693
vn 0.000000 -0.056231 0.082693
vn 0.000000 -0.087353 0.048678
vn 0.000000 -0.087353 0.048678
vn 0.000000 -0.087353 0.048678
vn 0.000000 -0.087353 0.048678
vn 0.000000 -0.087353 0.048678
vn 0.000000 -0.087353 0.048678
vn 0.000000 -0.087353 0.048678
vn 0.000000 -0.087353 0.048678
vn 0.000000 -0.087353 0.048678
vn 0.000000 -0.087353 0.048678
vn 0.000000 -0.087353 0.048678
vn 0.000000 -0.087353 0.048678
vn 0.000000 -0.087353 0.048678
vn 0.000000 -0.087353 0.048678
vn 0.000000 -0.087353 0.048678
vn 0.000000 -0.087353 0.048678
vn 0.000000 -0.087353 0.048678
vn 0.000000 -0.087353 0.048678
vn 0.000000 0.000000 0.100000
vn 0.000000 0.000000 0.100000
vn 0.000000 0.000000 0.100000
vn 0.000000 0.000000 0.100000
vn 0.100000 0.000000 0.000000
vn 0.100000 0.000000 0.000000
vn 0.100000 0.000000 0.000000
vn 0.100000 0.000000 0.000000
vn 0.100000 0.000000 0.000000
vn 0.098481 0.000000 -0.017365
vn 0.098079 0.000000 -0.019509
vn 0.095694 0.000000 -0.029028
vn 0.093969 0.000000 -0.034202
vn 0.092388 0.000000 -0.038268
vn 0.086603 0.000000 -0.050000
vn 0.088192 0.000000 -0.047140
vn 0.083147 0.000000 -0.055557
vn 0.076604 0.000000 -0.064279
vn 0.077301 0.000000 -0.063439
vn 0.070711 0.000000 -0.070711
vn 0.064279 0.000000 -0.076604
vn 0.063439 0.000000 -0.077301
vn 0.055557 0.000000 -0.083147
vn 0.050000 0.000000 -0.086603
vn 0.047140 0.000000 -0.088192
vn 0.038268 0.000000 -0.092388
vn 0.034202 0.000000 -0.093969
vn 0.029028 0.000000 -0.095694
vn 0.017365 0.000000 -0.098481
vn 0.019509 0.000000 -0.098079
vn 0.009802 0.000000 -0.099518
vn 0.000000 0.000000 -0.100000
vn 0.000000 0.000000 -0.100000
vn 0.000000 0.100000 0.000000
vn 0.000000 0.100000 0.000000
vn 0.000000 0.100000 0.000000
vn 0.000000 0.100000 0.000000
vn 0.000000 0.100000 0.000000
vn 0.000000 0.100000 0.000000
vn 0.000000 0.100000 0.000000
vn 0.000000 0.100000 0.000000
vn 0.000000 0.100000 0.000000
vn 0.000000 0.100000 0.000000
vn 0.000000 0.100000 0.000000
vn 0.000000 0.100000 0.000000
vn -0.100000 0.000000 0.000000
vn -0.100000 0.000000 0.000000
vn -0.100000 0.000000 0.000000
vn -0.100000 0.000000 0.000000
vn -0.100000 0.000000 0.000000
usemtl Steel_-_Satin
f 1/1/1 2/2/2 4/3/3
f 4/3/3 2/2/2 3/4/4
f 5/5/5 6/6/6 2/7/7
f 2/7/7 6/6/6 7/8/8
f 2/7/7 7/8/8 8/9/9
f 8/9/9 9/10/10 2/7/7
f 2/7/7 9/10/10 10/11/11
f 2/7/7 10/11/11 11/12/12
f 11/12/12 12/13/13 2/7/7
f 2/7/7 12/13/13 13/14/14
f 2/7/7 13/14/14 20/15/15
f 20/15/15 13/14/14 14/16/16
f 20/15/15 14/16/16 15/17/17
f 15/17/17 16/18/18 20/15/15
f 20/15/15 16/18/18 17/19/19
f 20/15/15 17/19/19 18/20/20
f 18/20/20 19/21/21 20/15/15
f 20/15/15 3/22/22 2/7/7
f 4/23/23 21/24/24 1/25/25
f 1/25/25 21/24/24 22/26/26
f 4/27/27 3/28/28 21/29/29
f 21/29/29 3/28/28 23/30/30
f 23/30/30 3/28/28 20/31/31
f 23/32/30 20/33/31 32/34/32
f 32/34/32 20/33/31 19/35/33
f 32/34/32 19/35/33 18/36/34
f 32/34/32 18/36/34 31/37/35
f 31/37/35 18/36/34 17/38/36
f 31/37/35 17/38/36 30/39/37
f 30/39/37 17/38/36 16/40/38
f 30/39/37 16/40/38 15/41/39
f 30/39/37 15/41/39 29/42/40
f 29/42/40 15/41/39 14/43/41
f 29/42/40 14/43/41 13/44/42
f 29/42/40 13/44/42 28/45/43
f 28/45/43 13/44/42 12/46/44
f 28/45/43 12/46/44 11/47/45
f 28/45/43 11/47/45 27/48/46
f 27/48/46 11/47/45 10/49/47
f 27/48/46 10/49/47 9/50/48
f 27/48/46 9/50/48 26/51/49
f 26/51/49 9/50/48 8/52/50
f 26/51/49 8/52/50 25/53/51
f 25/53/51 8/52/50 7/54/52
f 25/53/51 7/54/52 6/55/53
f 5/56/54 24/57/55 6/55/53
f 6/55/53 24/57/55 25/53/51
f 32/58/56 31/59/57 23/60/58
f 23/60/58 31/59/57 30/61/59
f 23/60/58 30/61/59 29/62/60
f 23/60/58 29/62/60 22/63/61
f 22/63/61 29/62/60 28/64/62
f 22/63/61 28/64/62 27/65/63
f 27/65/63 26/66/64 22/63/61
f 22/63/61 26/66/64 25/67/65
f 22/63/61 25/67/65 24/68/66
f 22/63/61 21/69/67 23/60/58
f 1/70/68 22/71/69 2/72/70
f 2/72/70 22/71/69 24/73/71
f 2/72/70 24/73/71 5/74/72
# 32 vertices
# 74 texture params
# 72 normals
# 60 facets

# 1 groups
