# WaveFront *.obj file (generated by Autodesk ATF)

mtllib Houses v8_Houses v8_Body529.mtl

g Body529

v -810.429045 -1359.416956 425.000000
v -810.429045 -1362.250099 427.143821
v -808.429045 -1362.250099 427.143821
v -808.429045 -1361.399265 426.500000
v -808.457867 -1361.012536 426.207365
v -808.543226 -1360.640668 425.925975
v -808.681841 -1360.297953 425.666645
v -808.868385 -1359.997561 425.439340
v -808.977455 -1359.866920 425.340485
v -809.095690 -1359.751035 425.252796
v -809.221950 -1359.651025 425.177118
v -809.355020 -1359.567850 425.114181
v -809.493618 -1359.502314 425.064590
v -809.636410 -1359.455046 425.028822
v -809.782020 -1359.426501 425.007223
v -809.929045 -1359.416956 425.000000
v -810.429045 -1363.872314 425.000000
v -809.929045 -1363.872314 425.000000
v -809.782020 -1363.866848 425.007223
v -809.636410 -1363.850504 425.028822
v -809.493618 -1363.823439 425.064590
v -809.355020 -1363.785914 425.114181
v -809.221950 -1363.738290 425.177118
v -809.095690 -1363.681025 425.252796
v -808.977455 -1363.614671 425.340485
v -808.868385 -1363.539868 425.439340
v -808.769530 -1363.457335 425.548410
v -808.681841 -1363.367868 425.666645
v -808.543226 -1363.171635 425.925975
v -808.457867 -1362.958709 426.207365
v -808.429045 -1362.737274 426.500000
vt -1.341436 1.000000 0.000000
vt -1.696720 1.000000 0.000000
vt -1.341436 0.950000 0.000000
vt -1.342633 0.935297 0.000000
vt -1.346213 0.920736 0.000000
vt -1.352140 0.906457 0.000000
vt -1.360359 0.892597 0.000000
vt -1.370789 0.879290 0.000000
vt -1.383331 0.866664 0.000000
vt -1.397863 0.854841 0.000000
vt -1.414246 0.843934 0.000000
vt -1.451916 0.825280 0.000000
vt -1.494893 0.811418 0.000000
vt -1.541526 0.802882 0.000000
vt -1.590023 0.800000 0.000000
vt -1.696720 0.800000 0.000000
vt -0.268841 1.000000 0.000000
vt -0.268841 0.950000 0.000000
vt -0.000000 1.000000 0.000000
vt -0.267935 0.935297 0.000000
vt -0.265227 0.920736 0.000000
vt -0.260741 0.906457 0.000000
vt -0.254522 0.892597 0.000000
vt -0.246630 0.879290 0.000000
vt -0.237140 0.866664 0.000000
vt -0.226143 0.854841 0.000000
vt -0.213747 0.843934 0.000000
vt -0.200069 0.834048 0.000000
vt -0.185242 0.825280 0.000000
vt -0.152721 0.811418 0.000000
vt -0.117434 0.802882 0.000000
vt -0.080737 0.800000 0.000000
vt -0.000000 0.800000 0.000000
vt 2.375427 -0.112500 0.000000
vt 2.213206 0.101882 0.000000
vt 1.929891 -0.112500 0.000000
vt 0.136378 0.000000 0.000000
vt 0.581914 0.000000 0.000000
vt 0.136378 0.050000 0.000000
vt 0.581914 0.050000 0.000000
vt 1.006020 -0.117810 0.000000
vt 1.028164 -0.088357 0.000000
vt 0.872220 -0.117810 0.000000
vt 0.833547 -0.088357 0.000000
vt 1.049457 -0.058905 0.000000
vt 0.796360 -0.058905 0.000000
vt 1.069080 -0.029452 0.000000
vt 0.762088 -0.029452 0.000000
vt 1.078027 -0.014726 0.000000
vt 0.732049 0.000000 0.000000
vt 1.086280 0.000000 0.000000
vt 1.093760 0.014726 0.000000
vt 0.718985 0.014726 0.000000
vt 1.100396 0.029452 0.000000
vt 0.707397 0.029452 0.000000
vt 1.106122 0.044179 0.000000
vt 0.697396 0.044179 0.000000
vt 1.110884 0.058905 0.000000
vt 0.689078 0.058905 0.000000
vt 1.114637 0.073631 0.000000
vt 0.682524 0.073631 0.000000
vt 1.117343 0.088357 0.000000
vt 0.677798 0.088357 0.000000
vt 1.118978 0.103084 0.000000
vt 0.674943 0.103084 0.000000
vt 1.119524 0.117810 0.000000
vt 0.673989 0.117810 0.000000
vt -0.101882 -2.213206 0.000000
vt -0.037500 -2.261923 0.000000
vt -0.037500 -2.128122 0.000000
vn 0.000000 0.060341 0.079743
vn 0.000000 0.060341 0.079743
vn 0.000000 0.060341 0.079743
vn 0.000000 0.060341 0.079743
vn 0.000000 0.060341 0.079743
vn 0.000000 0.060341 0.079743
vn 0.000000 0.060341 0.079743
vn 0.000000 0.060341 0.079743
vn 0.000000 0.060341 0.079743
vn 0.000000 0.060341 0.079743
vn 0.000000 0.060341 0.079743
vn 0.000000 0.060341 0.079743
vn 0.000000 0.060341 0.079743
vn 0.000000 0.060341 0.079743
vn 0.000000 0.060341 0.079743
vn 0.000000 0.060341 0.079743
vn 0.000000 -0.079743 0.060341
vn 0.000000 -0.079743 0.060341
vn 0.000000 -0.079743 0.060341
vn 0.000000 -0.079743 0.060341
vn 0.000000 -0.079743 0.060341
vn 0.000000 -0.079743 0.060341
vn 0.000000 -0.079743 0.060341
vn 0.000000 -0.079743 0.060341
vn 0.000000 -0.079743 0.060341
vn 0.000000 -0.079743 0.060341
vn 0.000000 -0.079743 0.060341
vn 0.000000 -0.079743 0.060341
vn 0.000000 -0.079743 0.060341
vn 0.000000 -0.079743 0.060341
vn 0.000000 -0.079743 0.060341
vn 0.000000 -0.079743 0.060341
vn 0.000000 -0.079743 0.060341
vn -0.100000 0.000000 0.000000
vn -0.100000 0.000000 0.000000
vn -0.100000 0.000000 0.000000
vn 0.000000 0.000000 -0.100000
vn 0.000000 0.000000 -0.100000
vn 0.000000 0.000000 -0.100000
vn 0.000000 0.000000 -0.100000
vn 0.100000 0.000000 -0.000000
vn 0.098079 0.000000 -0.019509
vn 0.100000 0.000000 -0.000000
vn 0.098079 0.000000 -0.019509
vn 0.092388 0.000000 -0.038268
vn 0.092388 0.000000 -0.038268
vn 0.083147 0.000000 -0.055557
vn 0.083147 0.000000 -0.055557
vn 0.077301 0.000000 -0.063439
vn 0.070711 0.000000 -0.070711
vn 0.070711 0.000000 -0.070711
vn 0.063439 0.000000 -0.077301
vn 0.063439 0.000000 -0.077301
vn 0.055557 0.000000 -0.083147
vn 0.055557 0.000000 -0.083147
vn 0.047140 0.000000 -0.088192
vn 0.047140 0.000000 -0.088192
vn 0.038268 0.000000 -0.092388
vn 0.038268 0.000000 -0.092388
vn 0.029028 0.000000 -0.095694
vn 0.029028 0.000000 -0.095694
vn 0.019509 0.000000 -0.098079
vn 0.019509 0.000000 -0.098079
vn 0.009802 0.000000 -0.099518
vn 0.009802 0.000000 -0.099518
vn 0.100000 0.000000 0.000000
usemtl Steel_-_Satin
f 1/1/1 2/2/2 16/3/3
f 16/3/3 2/2/2 15/4/4
f 15/4/4 2/2/2 14/5/5
f 14/5/5 2/2/2 13/6/6
f 13/6/6 2/2/2 12/7/7
f 12/7/7 2/2/2 11/8/8
f 11/8/8 2/2/2 10/9/9
f 10/9/9 2/2/2 9/10/10
f 9/10/10 2/2/2 8/11/11
f 8/11/11 2/2/2 7/12/12
f 7/12/12 2/2/2 6/13/13
f 6/13/13 2/2/2 5/14/14
f 5/14/14 2/2/2 4/15/15
f 4/15/15 2/2/2 3/16/16
f 17/17/17 18/18/18 2/19/19
f 2/19/19 18/18/18 19/20/20
f 2/19/19 19/20/20 20/21/21
f 20/21/21 21/22/22 2/19/19
f 2/19/19 21/22/22 22/23/23
f 2/19/19 22/23/23 23/24/24
f 23/24/24 24/25/25 2/19/19
f 2/19/19 24/25/25 25/26/26
f 2/19/19 25/26/26 26/27/27
f 26/27/27 27/28/28 2/19/19
f 2/19/19 27/28/28 28/29/29
f 2/19/19 28/29/29 29/30/30
f 29/30/30 30/31/31 2/19/19
f 2/19/19 30/31/31 31/32/32
f 2/19/19 31/32/32 3/33/33
f 17/34/34 2/35/35 1/36/36
f 17/37/37 1/38/38 18/39/39
f 18/39/39 1/38/38 16/40/40
f 31/41/41 30/42/42 4/43/43
f 4/43/43 30/42/42 5/44/44
f 5/44/44 30/42/42 29/45/45
f 5/44/44 29/45/45 6/46/46
f 6/46/46 29/45/45 28/47/47
f 6/46/46 28/47/47 7/48/48
f 7/48/48 28/47/47 27/49/49
f 7/48/48 27/49/49 8/50/50
f 8/50/50 27/49/49 26/51/51
f 8/50/50 26/51/51 25/52/52
f 8/50/50 25/52/52 9/53/53
f 9/53/53 25/52/52 24/54/54
f 9/53/53 24/54/54 10/55/55
f 10/55/55 24/54/54 23/56/56
f 10/55/55 23/56/56 11/57/57
f 11/57/57 23/56/56 22/58/58
f 11/57/57 22/58/58 12/59/59
f 12/59/59 22/58/58 21/60/60
f 12/59/59 21/60/60 13/61/61
f 13/61/61 21/60/60 20/62/62
f 13/61/61 20/62/62 14/63/63
f 14/63/63 20/62/62 19/64/64
f 14/63/63 19/64/64 15/65/65
f 15/65/65 19/64/64 18/66/39
f 15/65/65 18/66/39 16/67/40
f 3/68/66 31/69/41 4/70/43
# 31 vertices
# 70 texture params
# 66 normals
# 58 facets

# 1 groups
