# WaveFront *.obj file (generated by Autodesk ATF)

mtllib Houses v8_Houses v8_Body631.mtl

g Body631

v 2017.000004 2216.000010 0.000000
v 1989.500004 2216.000010 0.000000
v 1989.570955 2216.000010 20.000000
v 1997.000004 2216.000010 20.000000
v 1997.000004 2216.000010 14.000000
v 2003.000004 2216.000010 14.000000
v 2003.000004 2216.000010 8.000000
v 2009.000004 2216.000010 8.000000
v 2009.000004 2216.000010 2.000000
v 2017.000004 2216.000010 2.000000
v 1989.500004 2183.000010 0.000000
v 1989.570955 2183.000010 20.000000
v 1997.000004 2183.000010 20.000000
v 1997.000004 2183.000010 14.000000
v 2003.000004 2183.000010 14.000000
v 2003.000004 2183.000010 8.000000
v 2009.000004 2183.000010 8.000000
v 2009.000004 2183.000010 2.000000
v 2017.000004 2183.000010 2.000000
v 2017.000004 2183.000010 0.000000
vt -0.800000 1.375000 0.000000
vt -1.000000 1.375000 0.000000
vt -0.800000 0.575000 0.000000
vt -1.000000 -1.375000 0.000000
vt -0.200000 -0.025000 0.000000
vt 0.400000 -0.625000 0.000000
vt 0.400000 -0.025000 0.000000
vt 1.000000 -1.367905 0.000000
vt 1.000000 -0.625000 0.000000
vt -0.200000 0.575000 0.000000
vt 2.000013 0.500000 0.000000
vt 0.000000 0.500000 0.000000
vt 2.000013 -2.800000 0.000000
vt -0.000000 -2.800000 0.000000
vt 0.742905 0.500000 0.000000
vt 0.000000 0.500000 0.000000
vt 0.742905 -2.800000 0.000000
vt -0.000000 -2.800000 0.000000
vt 0.600000 0.500000 0.000000
vt 0.000000 0.500000 0.000000
vt 0.600000 -2.800000 0.000000
vt 0.000000 -2.800000 0.000000
vt 0.600000 0.500000 0.000000
vt 0.000000 0.500000 0.000000
vt 0.600000 -2.800000 0.000000
vt -0.000000 -2.800000 0.000000
vt 0.600000 0.500000 0.000000
vt 0.000000 0.500000 0.000000
vt 0.600000 -2.800000 0.000000
vt 0.000000 -2.800000 0.000000
vt 0.600000 0.500000 0.000000
vt 0.000000 0.500000 0.000000
vt 0.600000 -2.800000 0.000000
vt -0.000000 -2.800000 0.000000
vt 0.600000 0.500000 0.000000
vt 0.000000 0.500000 0.000000
vt 0.600000 -2.800000 0.000000
vt 0.000000 -2.800000 0.000000
vt 0.800000 0.500000 0.000000
vt 0.000000 0.500000 0.000000
vt 0.800000 -2.800000 0.000000
vt -0.000000 -2.800000 0.000000
vt 0.200000 0.500000 0.000000
vt 0.000000 0.500000 0.000000
vt 0.200000 -2.800000 0.000000
vt 0.000000 -2.800000 0.000000
vt 2.750000 0.500000 0.000000
vt 0.000000 0.500000 0.000000
vt 2.750000 -2.800000 0.000000
vt 0.000000 -2.800000 0.000000
vt 1.000000 1.375000 0.000000
vt 0.800000 0.575000 0.000000
vt 1.000000 -1.375000 0.000000
vt 0.200000 -0.025000 0.000000
vt -0.400000 -0.625000 0.000000
vt -0.400000 -0.025000 0.000000
vt 0.800000 1.375000 0.000000
vt 0.200000 0.575000 0.000000
vt -1.000000 -0.625000 0.000000
vt -1.000000 -1.367905 0.000000
vn 0.000000 0.100000 0.000000
vn 0.000000 0.100000 0.000000
vn 0.000000 0.100000 0.000000
vn 0.000000 0.100000 0.000000
vn 0.000000 0.100000 0.000000
vn 0.000000 0.100000 0.000000
vn 0.000000 0.100000 0.000000
vn 0.000000 0.100000 0.000000
vn 0.000000 0.100000 0.000000
vn 0.000000 0.100000 0.000000
vn -0.099999 0.000000 0.000355
vn -0.099999 0.000000 0.000355
vn -0.099999 0.000000 0.000355
vn -0.099999 0.000000 0.000355
vn 0.000000 0.000000 0.100000
vn 0.000000 0.000000 0.100000
vn 0.000000 0.000000 0.100000
vn 0.000000 0.000000 0.100000
vn 0.100000 0.000000 0.000000
vn 0.100000 0.000000 0.000000
vn 0.100000 0.000000 0.000000
vn 0.100000 0.000000 0.000000
vn 0.000000 0.000000 0.100000
vn 0.000000 0.000000 0.100000
vn 0.000000 0.000000 0.100000
vn 0.000000 0.000000 0.100000
vn 0.100000 0.000000 0.000000
vn 0.100000 0.000000 0.000000
vn 0.100000 0.000000 0.000000
vn 0.100000 0.000000 0.000000
vn 0.000000 0.000000 0.100000
vn 0.000000 0.000000 0.100000
vn 0.000000 0.000000 0.100000
vn 0.000000 0.000000 0.100000
vn 0.100000 0.000000 0.000000
vn 0.100000 0.000000 0.000000
vn 0.100000 0.000000 0.000000
vn 0.100000 0.000000 0.000000
vn 0.000000 0.000000 0.100000
vn 0.000000 0.000000 0.100000
vn 0.000000 0.000000 0.100000
vn 0.000000 0.000000 0.100000
vn 0.100000 0.000000 0.000000
vn 0.100000 0.000000 0.000000
vn 0.100000 0.000000 0.000000
vn 0.100000 0.000000 0.000000
vn 0.000000 0.000000 -0.100000
vn 0.000000 0.000000 -0.100000
vn 0.000000 0.000000 -0.100000
vn 0.000000 0.000000 -0.100000
vn 0.000000 -0.100000 0.000000
vn 0.000000 -0.100000 0.000000
vn 0.000000 -0.100000 0.000000
vn 0.000000 -0.100000 0.000000
vn 0.000000 -0.100000 0.000000
vn 0.000000 -0.100000 0.000000
vn 0.000000 -0.100000 0.000000
vn 0.000000 -0.100000 0.000000
vn 0.000000 -0.100000 0.000000
vn 0.000000 -0.100000 0.000000
usemtl Steel_-_Satin
f 10/1/1 1/2/2 9/3/3
f 9/3/3 1/2/2 2/4/4
f 9/3/3 2/4/4 7/5/5
f 7/5/5 2/4/4 5/6/6
f 7/5/5 5/6/6 6/7/7
f 2/4/4 3/8/8 5/6/6
f 5/6/6 3/8/8 4/9/9
f 7/5/5 8/10/10 9/3/3
f 11/11/11 12/12/12 2/13/13
f 2/13/13 12/12/12 3/14/14
f 12/15/15 13/16/16 3/17/17
f 3/17/17 13/16/16 4/18/18
f 13/19/19 14/20/20 4/21/21
f 4/21/21 14/20/20 5/22/22
f 14/23/23 15/24/24 5/25/25
f 5/25/25 15/24/24 6/26/26
f 15/27/27 16/28/28 6/29/29
f 6/29/29 16/28/28 7/30/30
f 16/31/31 17/32/32 7/33/33
f 7/33/33 17/32/32 8/34/34
f 17/35/35 18/36/36 8/37/37
f 8/37/37 18/36/36 9/38/38
f 18/39/39 19/40/40 9/41/41
f 9/41/41 19/40/40 10/42/42
f 19/43/43 20/44/44 10/45/45
f 10/45/45 20/44/44 1/46/46
f 20/47/47 11/48/48 1/49/49
f 1/49/49 11/48/48 2/50/50
f 20/51/51 18/52/52 11/53/53
f 11/53/53 18/52/52 16/54/54
f 11/53/53 16/54/54 14/55/55
f 14/55/55 16/54/54 15/56/56
f 20/51/51 19/57/57 18/52/52
f 18/52/52 17/58/58 16/54/54
f 13/59/59 12/60/60 14/55/55
f 14/55/55 12/60/60 11/53/53
# 20 vertices
# 60 texture params
# 60 normals
# 36 facets

# 1 groups
