# WaveFront *.obj file (generated by Autodesk ATF)

mtllib Houses v8_Houses v8_Body76.mtl

g Body76

v -425.000000 -888.074366 39.000001
v -425.000000 -912.037429 39.000001
v -424.000000 -912.037429 39.000001
v -424.000000 -888.074366 39.000001
v -425.000000 -888.074366 0.000000
v -424.000000 -888.074366 0.000000
v -425.000000 -891.130263 0.000000
v -424.000000 -891.130263 0.000000
v -425.000000 -891.130263 36.000001
v -424.000000 -891.130263 36.000001
v -425.000000 -908.925634 36.000001
v -424.000000 -908.925634 36.000001
v -425.000000 -908.925634 0.000000
v -424.000000 -908.925634 0.000000
v -425.000000 -912.037429 0.000000
v -424.000000 -912.037429 0.000000
vt 0.000000 0.000000 0.000000
vt 2.396306 0.000000 0.000000
vt 0.000000 0.100000 0.000000
vt 2.396306 0.100000 0.000000
vt 0.000000 0.000000 0.000000
vt 3.900000 0.000000 0.000000
vt 0.000000 0.100000 0.000000
vt 3.900000 0.100000 0.000000
vt 0.000000 0.000000 0.000000
vt 0.305590 0.000000 0.000000
vt 0.000000 0.100000 0.000000
vt 0.305590 0.100000 0.000000
vt 0.000000 0.000000 0.000000
vt 3.600000 0.000000 0.000000
vt 0.000000 0.100000 0.000000
vt 3.600000 0.100000 0.000000
vt 0.000000 0.000000 0.000000
vt 1.779537 0.000000 0.000000
vt 0.000000 0.100000 0.000000
vt 1.779537 0.100000 0.000000
vt 0.000000 0.000000 0.000000
vt 3.600000 0.000000 0.000000
vt 0.000000 0.100000 0.000000
vt 3.600000 0.100000 0.000000
vt 0.000000 0.000000 0.000000
vt 0.311180 0.000000 0.000000
vt 0.000000 0.100000 0.000000
vt 0.311180 0.100000 0.000000
vt 0.000000 0.000000 0.000000
vt 3.900000 0.000000 0.000000
vt 0.000000 0.100000 0.000000
vt 3.900000 0.100000 0.000000
vt -1.950000 1.198153 0.000000
vt -1.950000 -1.198153 0.000000
vt -1.650000 -0.886974 0.000000
vt 1.950000 -1.198153 0.000000
vt 1.950000 -0.886974 0.000000
vt -1.650000 0.892563 0.000000
vt 1.950000 1.198153 0.000000
vt 1.950000 0.892563 0.000000
vt 0.886974 -1.950000 0.000000
vt 1.198153 -1.950000 0.000000
vt 0.886974 1.650000 0.000000
vt 1.198153 1.950000 0.000000
vt -1.198153 1.950000 0.000000
vt -0.892563 1.650000 0.000000
vt -1.198153 -1.950000 0.000000
vt -0.892563 -1.950000 0.000000
vn 0.000000 0.000000 0.100000
vn 0.000000 0.000000 0.100000
vn 0.000000 0.000000 0.100000
vn 0.000000 0.000000 0.100000
vn 0.000000 0.100000 0.000000
vn 0.000000 0.100000 0.000000
vn 0.000000 0.100000 0.000000
vn 0.000000 0.100000 0.000000
vn 0.000000 0.000000 -0.100000
vn 0.000000 0.000000 -0.100000
vn 0.000000 0.000000 -0.100000
vn 0.000000 0.000000 -0.100000
vn 0.000000 -0.100000 0.000000
vn 0.000000 -0.100000 0.000000
vn 0.000000 -0.100000 0.000000
vn 0.000000 -0.100000 0.000000
vn 0.000000 0.000000 -0.100000
vn 0.000000 0.000000 -0.100000
vn 0.000000 0.000000 -0.100000
vn 0.000000 0.000000 -0.100000
vn 0.000000 0.100000 0.000000
vn 0.000000 0.100000 0.000000
vn 0.000000 0.100000 0.000000
vn 0.000000 0.100000 0.000000
vn 0.000000 0.000000 -0.100000
vn 0.000000 0.000000 -0.100000
vn 0.000000 0.000000 -0.100000
vn 0.000000 0.000000 -0.100000
vn 0.000000 -0.100000 0.000000
vn 0.000000 -0.100000 0.000000
vn 0.000000 -0.100000 0.000000
vn 0.000000 -0.100000 0.000000
vn 0.100000 0.000000 0.000000
vn 0.100000 0.000000 0.000000
vn 0.100000 0.000000 0.000000
vn 0.100000 0.000000 0.000000
vn 0.100000 0.000000 0.000000
vn 0.100000 0.000000 0.000000
vn 0.100000 0.000000 0.000000
vn 0.100000 0.000000 0.000000
vn -0.100000 0.000000 0.000000
vn -0.100000 0.000000 0.000000
vn -0.100000 0.000000 0.000000
vn -0.100000 0.000000 0.000000
vn -0.100000 0.000000 0.000000
vn -0.100000 0.000000 0.000000
vn -0.100000 0.000000 0.000000
vn -0.100000 0.000000 0.000000
usemtl Steel_-_Satin
f 1/1/1 2/2/2 4/3/3
f 4/3/3 2/2/2 3/4/4
f 5/5/5 1/6/6 6/7/7
f 6/7/7 1/6/6 4/8/8
f 7/9/9 5/10/10 8/11/11
f 8/11/11 5/10/10 6/12/12
f 9/13/13 7/14/14 10/15/15
f 10/15/15 7/14/14 8/16/16
f 11/17/17 9/18/18 12/19/19
f 12/19/19 9/18/18 10/20/20
f 13/21/21 11/22/22 14/23/23
f 14/23/23 11/22/22 12/24/24
f 15/25/25 13/26/26 16/27/27
f 16/27/27 13/26/26 14/28/28
f 2/29/29 15/30/30 3/31/31
f 3/31/31 15/30/30 16/32/32
f 4/33/33 3/34/34 12/35/35
f 12/35/35 3/34/34 16/36/36
f 12/35/35 16/36/36 14/37/37
f 12/35/35 10/38/38 4/33/33
f 4/33/33 10/38/38 6/39/39
f 6/39/39 10/38/38 8/40/40
f 13/41/41 15/42/42 11/43/43
f 11/43/43 15/42/42 2/44/44
f 11/43/43 2/44/44 1/45/45
f 11/43/43 1/45/45 9/46/46
f 9/46/46 1/45/45 5/47/47
f 9/46/46 5/47/47 7/48/48
# 16 vertices
# 48 texture params
# 48 normals
# 28 facets

# 1 groups
