# WaveFront *.obj file (generated by Autodesk ATF)

mtllib Houses v8_Houses v8_Body426.mtl

g Body426

v 1070.000000 -85.000000 0.000000
v 1070.000000 -85.000000 -10.000000
v 1070.000000 500.000000 -10.000000
v 1070.000000 500.000000 0.000000
v 550.000000 -85.000000 0.000000
v 550.000000 -85.000000 -10.000000
v 550.000000 400.000000 0.000000
v 550.000000 500.000000 0.000000
v 550.000000 500.000000 -10.000000
v 550.000000 400.000000 -10.000000
v 750.000000 400.000000 0.000000
v 750.000000 400.000000 -10.000000
v 750.000000 100.000000 0.000000
v 750.000000 100.000000 -10.000000
v 550.000000 100.000000 0.000000
v 550.000000 100.000000 -10.000000
vt -0.500000 -29.250000 0.000000
vt 0.500000 -29.250000 0.000000
vt -0.500000 29.250000 0.000000
vt 0.500000 29.250000 0.000000
vt 0.000000 -49.000000 0.000000
vt 1.000000 -49.000000 0.000000
vt 0.000000 3.000000 0.000000
vt 1.000000 3.000000 0.000000
vt 0.000000 0.000000 0.000000
vt 10.000000 0.000000 0.000000
vt 0.000000 1.000000 0.000000
vt 10.000000 1.000000 0.000000
vt -0.000000 0.000000 0.000000
vt 20.000000 0.000000 0.000000
vt 0.000000 1.000000 0.000000
vt 20.000000 1.000000 0.000000
vt 0.000000 0.000000 0.000000
vt 30.000000 0.000000 0.000000
vt 0.000000 1.000000 0.000000
vt 30.000000 1.000000 0.000000
vt 0.000000 0.000000 0.000000
vt 20.000000 0.000000 0.000000
vt 0.000000 1.000000 0.000000
vt 20.000000 1.000000 0.000000
vt -6.500000 0.000000 0.000000
vt 12.000000 0.000000 0.000000
vt -6.500000 1.000000 0.000000
vt 12.000000 1.000000 0.000000
vt 0.000000 0.000000 0.000000
vt 52.000000 0.000000 0.000000
vt 0.000000 1.000000 0.000000
vt 52.000000 1.000000 0.000000
vt 24.500000 16.000000 0.000000
vt 24.500000 26.000000 0.000000
vt 4.500000 16.000000 0.000000
vt -27.500000 26.000000 0.000000
vt 4.500000 -14.000000 0.000000
vt -27.500000 -32.500000 0.000000
vt 24.500000 -32.500000 0.000000
vt 24.500000 -14.000000 0.000000
vt 24.500000 -26.000000 0.000000
vt 4.500000 -16.000000 0.000000
vt -27.500000 -26.000000 0.000000
vt 4.500000 14.000000 0.000000
vt -27.500000 32.500000 0.000000
vt 24.500000 32.500000 0.000000
vt 24.500000 14.000000 0.000000
vt 24.500000 -16.000000 0.000000
vn 0.100000 0.000000 0.000000
vn 0.100000 0.000000 0.000000
vn 0.100000 0.000000 0.000000
vn 0.100000 0.000000 0.000000
vn 0.000000 -0.100000 0.000000
vn 0.000000 -0.100000 0.000000
vn 0.000000 -0.100000 0.000000
vn 0.000000 -0.100000 0.000000
vn -0.100000 0.000000 0.000000
vn -0.100000 0.000000 0.000000
vn -0.100000 0.000000 0.000000
vn -0.100000 0.000000 0.000000
vn 0.000000 -0.100000 0.000000
vn 0.000000 -0.100000 0.000000
vn 0.000000 -0.100000 0.000000
vn 0.000000 -0.100000 0.000000
vn -0.100000 0.000000 0.000000
vn -0.100000 0.000000 0.000000
vn -0.100000 0.000000 0.000000
vn -0.100000 0.000000 0.000000
vn 0.000000 0.100000 0.000000
vn 0.000000 0.100000 0.000000
vn 0.000000 0.100000 0.000000
vn 0.000000 0.100000 0.000000
vn -0.100000 0.000000 0.000000
vn -0.100000 0.000000 0.000000
vn -0.100000 0.000000 0.000000
vn -0.100000 0.000000 0.000000
vn 0.000000 0.100000 0.000000
vn 0.000000 0.100000 0.000000
vn 0.000000 0.100000 0.000000
vn 0.000000 0.100000 0.000000
vn 0.000000 0.000000 -0.100000
vn 0.000000 0.000000 -0.100000
vn 0.000000 0.000000 -0.100000
vn 0.000000 0.000000 -0.100000
vn 0.000000 0.000000 -0.100000
vn 0.000000 0.000000 -0.100000
vn 0.000000 0.000000 -0.100000
vn 0.000000 0.000000 -0.100000
vn 0.000000 0.000000 0.100000
vn 0.000000 0.000000 0.100000
vn 0.000000 0.000000 0.100000
vn 0.000000 0.000000 0.100000
vn 0.000000 0.000000 0.100000
vn 0.000000 0.000000 0.100000
vn 0.000000 0.000000 0.100000
vn 0.000000 0.000000 0.100000
usemtl Steel_-_Satin
f 1/1/1 2/2/2 4/3/3
f 4/3/3 2/2/2 3/4/4
f 5/5/5 6/6/6 1/7/7
f 1/7/7 6/6/6 2/8/8
f 7/9/9 8/10/10 10/11/11
f 10/11/11 8/10/10 9/12/12
f 11/13/13 7/14/14 12/15/15
f 12/15/15 7/14/14 10/16/16
f 13/17/17 11/18/18 14/19/19
f 14/19/19 11/18/18 12/20/20
f 15/21/21 13/22/22 16/23/23
f 16/23/23 13/22/22 14/24/24
f 5/25/25 15/26/26 6/27/27
f 6/27/27 15/26/26 16/28/28
f 8/29/29 4/30/30 9/31/31
f 9/31/31 4/30/30 3/32/32
f 10/33/33 9/34/34 12/35/35
f 12/35/35 9/34/34 3/36/36
f 12/35/35 3/36/36 14/37/37
f 14/37/37 3/36/36 2/38/38
f 14/37/37 2/38/38 6/39/39
f 6/39/39 16/40/40 14/37/37
f 8/41/41 11/42/42 4/43/43
f 4/43/43 11/42/42 13/44/44
f 4/43/43 13/44/44 1/45/45
f 1/45/45 13/44/44 5/46/46
f 5/46/46 13/44/44 15/47/47
f 8/41/41 7/48/48 11/42/42
# 16 vertices
# 48 texture params
# 48 normals
# 28 facets

# 1 groups
