# WaveFront *.obj file (generated by Autodesk ATF)

mtllib Houses v8_Houses v8_Body2.mtl

g Body2

v -65.000000 0.000000 100.000001
v -65.000000 -54.000001 57.000001
v -65.000000 -57.289054 61.130440
v -65.000000 0.008839 106.742328
v -65.000000 57.288988 61.130357
v -65.000000 54.000001 57.000001
v 120.000000 -54.000001 57.000001
v 120.000000 -57.289054 61.130440
v 120.000000 0.008839 106.742328
v 120.000000 57.288988 61.130357
v 120.000000 54.000001 57.000001
v 120.000000 0.000000 100.000001
vt -2.487116 -5.399997 0.000000
vt -2.074072 -5.728902 0.000000
vt 1.812884 0.000003 0.000000
vt 2.487116 0.000887 0.000000
vt -2.074081 5.728902 0.000000
vt -2.487116 5.400003 0.000000
vt 0.528000 2.000000 0.000000
vt 0.000000 2.000000 0.000000
vt 0.528000 -16.500000 0.000000
vt 0.000000 -16.500000 0.000000
vt 7.323587 2.000000 0.000000
vt 0.000000 2.000000 0.000000
vt 7.323587 -16.500000 0.000000
vt 0.000000 -16.500000 0.000000
vt 7.322204 2.000000 0.000000
vt 0.000000 2.000000 0.000000
vt 7.322204 -16.500000 0.000000
vt 0.000000 -16.500000 0.000000
vt 0.527989 2.000000 0.000000
vt 0.000000 2.000000 0.000000
vt 0.527989 -16.500000 0.000000
vt 0.000000 -16.500000 0.000000
vt 6.902898 2.000000 0.000000
vt 0.000000 2.000000 0.000000
vt 6.902898 -16.500000 0.000000
vt 0.000000 -16.500000 0.000000
vt 6.902898 2.000000 0.000000
vt 0.000000 2.000000 0.000000
vt 6.902898 -16.500000 0.000000
vt 0.000000 -16.500000 0.000000
vt 2.487116 -5.399997 0.000000
vt -1.812884 0.000003 0.000000
vt 2.074072 -5.728902 0.000000
vt -2.487116 0.000887 0.000000
vt 2.074081 5.728902 0.000000
vt 2.487116 5.400003 0.000000
vn -0.100000 0.000000 0.000000
vn -0.100000 0.000000 0.000000
vn -0.100000 0.000000 0.000000
vn -0.100000 0.000000 0.000000
vn -0.100000 0.000000 0.000000
vn -0.100000 0.000000 0.000000
vn 0.000000 -0.078228 -0.062293
vn 0.000000 -0.078228 -0.062293
vn 0.000000 -0.078228 -0.062293
vn 0.000000 -0.078228 -0.062293
vn 0.000000 -0.062281 0.078237
vn 0.000000 -0.062281 0.078237
vn 0.000000 -0.062281 0.078237
vn 0.000000 -0.062281 0.078237
vn 0.000000 0.062293 0.078228
vn 0.000000 0.062293 0.078228
vn 0.000000 0.062293 0.078228
vn 0.000000 0.062293 0.078228
vn 0.000000 0.078228 -0.062293
vn 0.000000 0.078228 -0.062293
vn 0.000000 0.078228 -0.062293
vn 0.000000 0.078228 -0.062293
vn 0.000000 -0.062293 -0.078228
vn 0.000000 -0.062293 -0.078228
vn 0.000000 -0.062293 -0.078228
vn 0.000000 -0.062293 -0.078228
vn 0.000000 0.062293 -0.078228
vn 0.000000 0.062293 -0.078228
vn 0.000000 0.062293 -0.078228
vn 0.000000 0.062293 -0.078228
vn 0.100000 0.000000 0.000000
vn 0.100000 0.000000 0.000000
vn 0.100000 0.000000 0.000000
vn 0.100000 0.000000 0.000000
vn 0.100000 0.000000 0.000000
vn 0.100000 0.000000 0.000000
usemtl Steel_-_Satin
f 2/1/1 3/2/2 1/3/3
f 1/3/3 3/2/2 4/4/4
f 1/3/3 4/4/4 5/5/5
f 5/5/5 6/6/6 1/3/3
f 7/7/7 8/8/8 2/9/9
f 2/9/9 8/8/8 3/10/10
f 8/11/11 9/12/12 3/13/13
f 3/13/13 9/12/12 4/14/14
f 9/15/15 10/16/16 4/17/17
f 4/17/17 10/16/16 5/18/18
f 10/19/19 11/20/20 5/21/21
f 5/21/21 11/20/20 6/22/22
f 11/23/23 12/24/24 6/25/25
f 6/25/25 12/24/24 1/26/26
f 12/27/27 7/28/28 1/29/29
f 1/29/29 7/28/28 2/30/30
f 7/31/31 12/32/32 8/33/33
f 8/33/33 12/32/32 9/34/34
f 9/34/34 12/32/32 10/35/35
f 10/35/35 12/32/32 11/36/36
# 12 vertices
# 36 texture params
# 36 normals
# 20 facets

# 1 groups
