# WaveFront *.obj file (generated by Autodesk ATF)

mtllib Houses v8_Houses v8_Body573.mtl

g Body573

v -810.429045 -1343.098409 472.750000
v -809.429045 -1343.098409 472.750000
v -809.429045 -1334.612616 472.750000
v -810.429045 -1334.612616 472.750000
v -810.429045 -1346.381503 470.000000
v -810.429045 -1331.921450 470.000000
v -809.429045 -1346.381503 470.000000
v -809.429045 -1331.921450 470.000000
vt 2.584841 0.100000 0.000000
vt 1.736262 0.100000 0.000000
vt 2.584841 0.000000 0.000000
vt 1.736262 0.000000 0.000000
vt 0.638150 2.000000 0.000000
vt 0.309841 2.275000 0.000000
vt -0.807855 2.000000 0.000000
vt -0.538738 2.275000 0.000000
vt -2.000000 -0.638150 0.000000
vt -2.000000 0.807855 0.000000
vt -2.275000 -0.309841 0.000000
vt -2.275000 0.538738 0.000000
vt 1.361850 0.000000 0.000000
vt 2.807855 0.000000 0.000000
vt 1.361850 0.100000 0.000000
vt 2.807855 0.100000 0.000000
vt -7.097315 0.900000 0.000000
vt -6.712544 0.900000 0.000000
vt -7.097315 1.000000 0.000000
vt -6.712544 1.000000 0.000000
vt -0.608306 1.000000 0.000000
vt -1.036572 1.000000 0.000000
vt -0.608306 0.900000 0.000000
vt -1.036572 0.900000 0.000000
vn 0.000000 0.000000 0.100000
vn 0.000000 0.000000 0.100000
vn 0.000000 0.000000 0.100000
vn 0.000000 0.000000 0.100000
vn -0.100000 0.000000 0.000000
vn -0.100000 0.000000 0.000000
vn -0.100000 0.000000 0.000000
vn -0.100000 0.000000 0.000000
vn 0.100000 0.000000 0.000000
vn 0.100000 0.000000 0.000000
vn 0.100000 0.000000 0.000000
vn 0.100000 0.000000 0.000000
vn 0.000000 0.000000 -0.100000
vn 0.000000 0.000000 -0.100000
vn 0.000000 0.000000 -0.100000
vn 0.000000 0.000000 -0.100000
vn 0.000000 0.071471 0.069942
vn 0.000000 0.071471 0.069942
vn 0.000000 0.071471 0.069942
vn 0.000000 0.071471 0.069942
vn 0.000000 -0.064212 0.076660
vn 0.000000 -0.064212 0.076660
vn 0.000000 -0.064212 0.076660
vn 0.000000 -0.064212 0.076660
usemtl Steel_-_Satin
f 2/1/1 3/2/2 1/3/3
f 1/3/3 3/2/2 4/4/4
f 5/5/5 1/6/6 6/7/7
f 6/7/7 1/6/6 4/8/8
f 7/9/9 8/10/10 2/11/11
f 2/11/11 8/10/10 3/12/12
f 5/13/13 6/14/14 7/15/15
f 7/15/15 6/14/14 8/16/16
f 3/17/17 8/18/18 4/19/19
f 4/19/19 8/18/18 6/20/20
f 1/21/21 5/22/22 2/23/23
f 2/23/23 5/22/22 7/24/24
# 8 vertices
# 24 texture params
# 24 normals
# 12 facets

# 1 groups
