# WaveFront *.obj file (generated by Autodesk ATF)

mtllib Houses v8_Houses v8_Body431.mtl

g Body431

v 752.000000 198.454792 40.404488
v 752.000000 198.637230 38.412826
v 753.000000 198.637230 38.412826
v 753.000000 198.454792 40.404488
v 752.000000 227.632947 43.077234
v 753.000000 227.632947 43.077234
v 752.000000 227.815385 41.085573
v 753.000000 227.815385 41.085573
vt 0.000000 0.000000 0.000000
vt 0.200000 -0.000000 0.000000
vt 0.000000 0.100000 0.000000
vt 0.200000 0.100000 0.000000
vt -0.000000 0.000000 0.000000
vt 2.930031 0.000000 0.000000
vt -0.000000 0.100000 0.000000
vt 2.930031 0.100000 0.000000
vt 0.000000 0.000000 0.000000
vt 0.200000 0.000000 0.000000
vt -0.000000 0.100000 0.000000
vt 0.200000 0.100000 0.000000
vt 0.000000 0.000000 0.000000
vt 2.930031 -0.000000 0.000000
vt 0.000000 0.100000 0.000000
vt 2.930031 0.100000 0.000000
vt 0.233220 -1.449786 0.000000
vt -0.034054 1.468030 0.000000
vt 0.034054 -1.468030 0.000000
vt -0.233220 1.449786 0.000000
vt 1.449786 -0.233220 0.000000
vt 1.468030 -0.034054 0.000000
vt -1.468030 0.034054 0.000000
vt -1.449786 0.233220 0.000000
vn -0.000000 -0.099583 -0.009122
vn -0.000000 -0.099583 -0.009122
vn -0.000000 -0.099583 -0.009122
vn -0.000000 -0.099583 -0.009122
vn -0.000000 -0.009122 0.099583
vn -0.000000 -0.009122 0.099583
vn -0.000000 -0.009122 0.099583
vn -0.000000 -0.009122 0.099583
vn 0.000000 0.099583 0.009122
vn 0.000000 0.099583 0.009122
vn 0.000000 0.099583 0.009122
vn 0.000000 0.099583 0.009122
vn 0.000000 0.009122 -0.099583
vn 0.000000 0.009122 -0.099583
vn 0.000000 0.009122 -0.099583
vn 0.000000 0.009122 -0.099583
vn 0.100000 -0.000000 0.000000
vn 0.100000 -0.000000 0.000000
vn 0.100000 -0.000000 0.000000
vn 0.100000 -0.000000 0.000000
vn -0.100000 0.000000 -0.000000
vn -0.100000 0.000000 -0.000000
vn -0.100000 0.000000 -0.000000
vn -0.100000 0.000000 -0.000000
usemtl Steel_-_Satin
f 1/1/1 2/2/2 4/3/3
f 4/3/3 2/2/2 3/4/4
f 5/5/5 1/6/6 6/7/7
f 6/7/7 1/6/6 4/8/8
f 7/9/9 5/10/10 8/11/11
f 8/11/11 5/10/10 6/12/12
f 2/13/13 7/14/14 3/15/15
f 3/15/15 7/14/14 8/16/16
f 3/17/17 8/18/18 4/19/19
f 4/19/19 8/18/18 6/20/20
f 2/21/21 1/22/22 7/23/23
f 7/23/23 1/22/22 5/24/24
# 8 vertices
# 24 texture params
# 24 normals
# 12 facets

# 1 groups
