# WaveFront *.obj file (generated by Autodesk ATF)

mtllib Houses v8_Houses v8_Body595.mtl

g Body595

v 234.491117 -177.630784 10.000000
v 237.475482 -178.960675 10.000000
v 237.475482 -178.960675 10.500000
v 234.491117 -177.630784 10.500000
v 235.360676 -175.679436 10.000000
v 235.360676 -175.679436 10.500000
vt 0.000000 0.000000 0.000000
vt 0.326727 0.000000 0.000000
vt 0.000000 0.050000 0.000000
vt 0.326727 0.050000 0.000000
vt 0.000000 0.000000 0.000000
vt 0.213633 0.000000 0.000000
vt 0.000000 0.050000 0.000000
vt 0.213633 0.050000 0.000000
vt 0.000000 0.000000 0.000000
vt 0.390371 0.000000 0.000000
vt 0.000000 0.050000 0.000000
vt 0.390371 0.050000 0.000000
vt 0.149218 -0.164062 0.000000
vt -0.062262 0.164062 0.000000
vt -0.149218 -0.031073 0.000000
vt 0.062262 0.164062 0.000000
vt -0.149218 -0.164062 0.000000
vt 0.149218 -0.031073 0.000000
vn -0.040703 -0.091341 0.000000
vn -0.040703 -0.091341 0.000000
vn -0.040703 -0.091341 0.000000
vn -0.040703 -0.091341 0.000000
vn -0.091341 0.040703 0.000000
vn -0.091341 0.040703 0.000000
vn -0.091341 0.040703 0.000000
vn -0.091341 0.040703 0.000000
vn 0.084054 0.054174 0.000000
vn 0.084054 0.054174 0.000000
vn 0.084054 0.054174 0.000000
vn 0.084054 0.054174 0.000000
vn 0.000000 0.000000 0.100000
vn 0.000000 0.000000 0.100000
vn 0.000000 0.000000 0.100000
vn 0.000000 0.000000 -0.100000
vn 0.000000 0.000000 -0.100000
vn 0.000000 0.000000 -0.100000
usemtl Steel_-_Satin
f 1/1/1 2/2/2 4/3/3
f 4/3/3 2/2/2 3/4/4
f 5/5/5 1/6/6 6/7/7
f 6/7/7 1/6/6 4/8/8
f 2/9/9 5/10/10 3/11/11
f 3/11/11 5/10/10 6/12/12
f 3/13/13 6/14/14 4/15/15
f 5/16/16 2/17/17 1/18/18
# 6 vertices
# 18 texture params
# 18 normals
# 8 facets

# 1 groups
