# WaveFront *.obj file (generated by Autodesk ATF)

mtllib Houses v8_Houses v8_Body61.mtl

g Body61

v -425.000000 -850.000013 89.000001
v -425.000000 -850.000000 60.000000
v -575.000000 -850.000000 60.000000
v -575.000000 -850.000013 89.000001
v -575.000000 -950.000000 58.826259
v -425.000000 -950.000000 58.826259
v -575.000000 -850.000000 0.000000
v -575.000000 -950.000000 0.000000
v -425.000000 -950.000000 0.000000
v -425.000000 -850.000000 0.000000
v -425.000000 -894.050052 18.958473
v -425.000000 -894.042455 19.045297
v -425.000000 -894.019898 19.129483
v -425.000000 -893.983064 19.208473
v -425.000000 -893.933074 19.279867
v -425.000000 -893.871445 19.341495
v -425.000000 -893.800052 19.391486
v -425.000000 -893.721062 19.428319
v -425.000000 -893.636876 19.450877
v -425.000000 -893.550052 19.458473
v -425.000000 -893.463227 19.450877
v -425.000000 -893.379042 19.428319
v -425.000000 -893.300052 19.391486
v -425.000000 -893.228658 19.341495
v -425.000000 -893.167029 19.279867
v -425.000000 -893.117039 19.208473
v -425.000000 -893.080205 19.129483
v -425.000000 -893.057648 19.045297
v -425.000000 -893.050052 18.958473
v -425.000000 -893.057648 18.871649
v -425.000000 -893.080205 18.787463
v -425.000000 -893.117039 18.708473
v -425.000000 -893.167029 18.637079
v -425.000000 -893.228658 18.575451
v -425.000000 -893.300052 18.525460
v -425.000000 -893.379042 18.488627
v -425.000000 -893.463227 18.466069
v -425.000000 -893.550052 18.458473
v -425.000000 -893.636876 18.466069
v -425.000000 -893.721062 18.488627
v -425.000000 -893.800052 18.525460
v -425.000000 -893.871445 18.575451
v -425.000000 -893.933074 18.637079
v -425.000000 -893.983064 18.708473
v -425.000000 -894.019898 18.787463
v -425.000000 -894.042455 18.871649
v -424.400000 -894.050052 18.958473
v -424.400000 -894.042455 19.045297
v -424.400000 -894.019898 19.129483
v -424.400000 -893.983064 19.208473
v -424.400000 -893.933074 19.279867
v -424.400000 -893.871445 19.341495
v -424.400000 -893.800052 19.391486
v -424.400000 -893.721062 19.428319
v -424.400000 -893.636876 19.450877
v -424.400000 -893.550052 19.458473
v -424.400000 -893.463227 19.450877
v -424.400000 -893.379042 19.428319
v -424.400000 -893.300052 19.391486
v -424.400000 -893.228658 19.341495
v -424.400000 -893.167029 19.279867
v -424.400000 -893.117039 19.208473
v -424.400000 -893.080205 19.129483
v -424.400000 -893.057648 19.045297
v -424.400000 -893.050052 18.958473
v -424.400000 -893.057648 18.871649
v -424.400000 -893.080205 18.787463
v -424.400000 -893.117039 18.708473
v -424.400000 -893.167029 18.637079
v -424.400000 -893.228658 18.575451
v -424.400000 -893.300052 18.525460
v -424.400000 -893.379042 18.488627
v -424.400000 -893.463227 18.466069
v -424.400000 -893.550052 18.458473
v -424.400000 -893.636876 18.466069
v -424.400000 -893.721062 18.488627
v -424.400000 -893.800052 18.525460
v -424.400000 -893.871445 18.575451
v -424.400000 -893.933074 18.637079
v -424.400000 -893.983064 18.708473
v -424.400000 -894.019898 18.787463
v -424.400000 -894.042455 18.871649
v -444.795229 -773.268173 0.000000
v -546.553737 -773.268173 0.000000
v -546.553737 -773.268173 50.000000
v -444.795229 -773.268173 50.000000
v -444.795229 -850.000000 0.000000
v -444.795229 -850.000000 50.000000
v -546.553737 -850.000000 0.000000
v -546.553737 -850.000000 50.000000
vt 0.000000 0.000000 0.000000
vt 2.900000 0.000000 0.000000
vt 0.000000 15.000000 0.000000
vt 2.900000 15.000000 0.000000
vt -10.445311 -0.000000 0.000000
vt 0.000000 0.000000 0.000000
vt -10.445311 15.000000 0.000000
vt -0.000000 15.000000 0.000000
vt 0.000001 8.900000 0.000000
vt -0.000000 6.000000 0.000000
vt 10.000000 5.882626 0.000000
vt -0.000000 0.000000 0.000000
vt 10.000000 0.000000 0.000000
vt 9.999999 8.900000 0.000000
vt 0.000000 5.882626 0.000000
vt 10.000000 6.000000 0.000000
vt 5.636312 1.945088 0.000000
vt 5.644995 1.945847 0.000000
vt 0.000000 0.000000 0.000000
vt 5.598010 1.912948 0.000000
vt 5.601694 1.920847 0.000000
vt 5.606693 1.927987 0.000000
vt 10.000000 0.000000 0.000000
vt 5.644995 1.845847 0.000000
vt 5.636312 1.846607 0.000000
vt 5.627894 1.848863 0.000000
vt 5.691979 1.912948 0.000000
vt 5.694235 1.904530 0.000000
vt 5.694995 1.895847 0.000000
vt 5.595754 1.887165 0.000000
vt 5.594995 1.895847 0.000000
vt 5.595754 1.904530 0.000000
vt 5.612855 1.934150 0.000000
vt 5.619995 1.939149 0.000000
vt 5.627894 1.942832 0.000000
vt 5.653677 1.945088 0.000000
vt 5.662096 1.942832 0.000000
vt 5.669995 1.939149 0.000000
vt 5.677134 1.934150 0.000000
vt 5.683297 1.927987 0.000000
vt 5.688296 1.920847 0.000000
vt 5.694235 1.887165 0.000000
vt 5.691979 1.878746 0.000000
vt 5.688296 1.870847 0.000000
vt 5.683297 1.863708 0.000000
vt 5.677134 1.857545 0.000000
vt 5.669995 1.852546 0.000000
vt 5.662096 1.848863 0.000000
vt 5.653677 1.846607 0.000000
vt 5.619995 1.852546 0.000000
vt 5.612855 1.857545 0.000000
vt 5.606693 1.863708 0.000000
vt 5.601694 1.870847 0.000000
vt 5.598010 1.878746 0.000000
vt -0.060000 0.148353 0.000000
vt -0.000000 0.148353 0.000000
vt -0.060000 0.157080 0.000000
vt -0.000000 0.157080 0.000000
vt -0.060000 -0.157080 0.000000
vt -0.000000 -0.157080 0.000000
vt -0.060000 -0.148353 0.000000
vt -0.000000 -0.148353 0.000000
vt -0.060000 -0.139626 0.000000
vt -0.000000 -0.139626 0.000000
vt -0.060000 -0.130900 0.000000
vt -0.000000 -0.130900 0.000000
vt -0.060000 -0.122173 0.000000
vt -0.000000 -0.122173 0.000000
vt -0.060000 -0.113446 0.000000
vt -0.000000 -0.113446 0.000000
vt -0.060000 -0.104720 0.000000
vt -0.000000 -0.104720 0.000000
vt -0.060000 -0.095993 0.000000
vt -0.000000 -0.095993 0.000000
vt -0.060000 -0.087266 0.000000
vt -0.000000 -0.087266 0.000000
vt -0.060000 -0.078540 0.000000
vt -0.000000 -0.078540 0.000000
vt -0.060000 -0.069813 0.000000
vt -0.000000 -0.069813 0.000000
vt -0.060000 -0.061087 0.000000
vt -0.000000 -0.061087 0.000000
vt -0.060000 -0.052360 0.000000
vt -0.000000 -0.052360 0.000000
vt -0.060000 -0.043633 0.000000
vt -0.000000 -0.043633 0.000000
vt -0.060000 -0.034907 0.000000
vt -0.000000 -0.034907 0.000000
vt -0.060000 -0.026180 0.000000
vt -0.000000 -0.026180 0.000000
vt -0.060000 -0.017453 0.000000
vt -0.000000 -0.017453 0.000000
vt -0.060000 -0.008727 0.000000
vt -0.000000 -0.008727 0.000000
vt -0.060000 0.000000 0.000000
vt -0.000000 0.000000 0.000000
vt -0.060000 0.008727 0.000000
vt -0.000000 0.008727 0.000000
vt -0.060000 0.017453 0.000000
vt -0.000000 0.017453 0.000000
vt -0.060000 0.026180 0.000000
vt -0.000000 0.026180 0.000000
vt -0.060000 0.034907 0.000000
vt -0.000000 0.034907 0.000000
vt -0.060000 0.043633 0.000000
vt -0.000000 0.043633 0.000000
vt -0.060000 0.052360 0.000000
vt -0.000000 0.052360 0.000000
vt -0.060000 0.061087 0.000000
vt -0.000000 0.061087 0.000000
vt -0.060000 0.069813 0.000000
vt -0.000000 0.069813 0.000000
vt -0.060000 0.078540 0.000000
vt -0.000000 0.078540 0.000000
vt -0.060000 0.087266 0.000000
vt -0.000000 0.087266 0.000000
vt -0.060000 0.095993 0.000000
vt -0.000000 0.095993 0.000000
vt -0.060000 0.104720 0.000000
vt -0.000000 0.104720 0.000000
vt -0.060000 0.113446 0.000000
vt -0.000000 0.113446 0.000000
vt -0.060000 0.122173 0.000000
vt -0.000000 0.122173 0.000000
vt -0.060000 0.130900 0.000000
vt -0.000000 0.130900 0.000000
vt -0.060000 0.139626 0.000000
vt -0.000000 0.139626 0.000000
vt -0.049240 -0.008682 0.000000
vt 0.049240 -0.008682 0.000000
vt -0.050000 0.000000 0.000000
vt 0.050000 0.000000 0.000000
vt -0.049240 0.008682 0.000000
vt 0.049240 0.008682 0.000000
vt -0.046985 0.017101 0.000000
vt 0.046985 0.017101 0.000000
vt -0.043301 0.025000 0.000000
vt 0.043301 0.025000 0.000000
vt -0.038302 0.032139 0.000000
vt 0.038302 0.032139 0.000000
vt -0.032139 0.038302 0.000000
vt 0.032139 0.038302 0.000000
vt -0.025000 0.043301 0.000000
vt 0.025000 0.043301 0.000000
vt -0.017101 0.046985 0.000000
vt 0.017101 0.046985 0.000000
vt -0.008682 0.049240 0.000000
vt 0.008682 0.049240 0.000000
vt 0.000000 0.050000 0.000000
vt 0.046985 -0.017101 0.000000
vt -0.046985 -0.017101 0.000000
vt 0.043301 -0.025000 0.000000
vt -0.043301 -0.025000 0.000000
vt 0.038302 -0.032139 0.000000
vt -0.038302 -0.032139 0.000000
vt 0.032139 -0.038302 0.000000
vt -0.032139 -0.038302 0.000000
vt 0.025000 -0.043301 0.000000
vt -0.025000 -0.043301 0.000000
vt 0.017101 -0.046985 0.000000
vt -0.017101 -0.046985 0.000000
vt 0.008682 -0.049240 0.000000
vt -0.008682 -0.049240 0.000000
vt 0.000000 -0.050000 0.000000
vt 0.000000 0.000000 0.000000
vt 10.175851 0.000000 0.000000
vt 0.000000 5.000000 0.000000
vt 10.175851 5.000000 0.000000
vt 0.000000 0.000000 0.000000
vt 7.673183 0.000000 0.000000
vt 0.000000 5.000000 0.000000
vt 7.673183 5.000000 0.000000
vt 0.000000 0.000000 0.000000
vt 7.673183 0.000000 0.000000
vt 0.000000 5.000000 0.000000
vt 7.673183 5.000000 0.000000
vt -5.087925 -3.836591 0.000000
vt 5.087925 -3.836591 0.000000
vt -5.087925 3.836591 0.000000
vt 5.087925 3.836591 0.000000
vt 15.000000 5.882626 0.000000
vt 0.000000 5.882626 0.000000
vt 15.000000 0.000000 0.000000
vt 0.000000 0.000000 0.000000
vt 12.155374 0.000000 0.000000
vt 15.000000 0.000000 0.000000
vt 12.155374 5.000000 0.000000
vt 15.000000 6.000000 0.000000
vt -0.000000 6.000000 0.000000
vt 1.979523 5.000000 0.000000
vt -0.000000 0.000000 0.000000
vt 1.979523 0.000000 0.000000
vt 7.500000 5.000000 0.000000
vt 4.655374 5.000000 0.000000
vt 7.500000 -5.000000 0.000000
vt -7.500000 -5.000000 0.000000
vt -5.520477 5.000000 0.000000
vt -7.500000 5.000000 0.000000
vt 4.655374 12.673183 0.000000
vt -5.520477 12.673183 0.000000
vn 0.000000 0.100000 0.000000
vn 0.000000 0.100000 0.000000
vn 0.000000 0.100000 0.000000
vn 0.000000 0.100000 0.000000
vn 0.000000 -0.028887 0.095737
vn 0.000000 -0.028887 0.095737
vn 0.000000 -0.028887 0.095737
vn 0.000000 -0.028887 0.095737
vn -0.100000 0.000000 0.000000
vn -0.100000 0.000000 0.000000
vn -0.100000 0.000000 0.000000
vn -0.100000 0.000000 0.000000
vn -0.100000 0.000000 0.000000
vn 0.100000 0.000000 0.000000
vn 0.100000 0.000000 0.000000
vn 0.100000 0.000000 0.000000
vn 0.100000 0.000000 0.000000
vn 0.100000 0.000000 0.000000
vn 0.100000 0.000000 0.000000
vn 0.100000 0.000000 0.000000
vn 0.100000 0.000000 0.000000
vn 0.100000 0.000000 0.000000
vn 0.100000 0.000000 0.000000
vn 0.100000 0.000000 0.000000
vn 0.100000 0.000000 0.000000
vn 0.100000 0.000000 0.000000
vn 0.100000 0.000000 0.000000
vn 0.100000 0.000000 0.000000
vn 0.100000 0.000000 0.000000
vn 0.100000 0.000000 0.000000
vn 0.100000 0.000000 0.000000
vn 0.100000 0.000000 0.000000
vn 0.100000 0.000000 0.000000
vn 0.100000 0.000000 0.000000
vn 0.100000 0.000000 0.000000
vn 0.100000 0.000000 0.000000
vn 0.100000 0.000000 0.000000
vn 0.100000 0.000000 0.000000
vn 0.100000 0.000000 0.000000
vn 0.100000 0.000000 0.000000
vn 0.100000 0.000000 0.000000
vn 0.100000 0.000000 0.000000
vn 0.100000 0.000000 0.000000
vn 0.100000 0.000000 0.000000
vn 0.100000 0.000000 0.000000
vn 0.100000 0.000000 0.000000
vn 0.100000 0.000000 0.000000
vn 0.100000 0.000000 0.000000
vn 0.100000 0.000000 0.000000
vn 0.100000 0.000000 0.000000
vn 0.100000 0.000000 0.000000
vn 0.100000 0.000000 0.000000
vn 0.100000 0.000000 0.000000
vn 0.100000 0.000000 0.000000
vn 0.000000 -0.098481 0.017365
vn 0.000000 -0.098481 0.017365
vn 0.000000 -0.100000 0.000000
vn 0.000000 -0.100000 0.000000
vn 0.000000 -0.098481 -0.017365
vn 0.000000 -0.098481 -0.017365
vn 0.000000 -0.093969 -0.034202
vn 0.000000 -0.093969 -0.034202
vn 0.000000 -0.086603 -0.050000
vn 0.000000 -0.086603 -0.050000
vn 0.000000 -0.076604 -0.064279
vn 0.000000 -0.076604 -0.064279
vn 0.000000 -0.064279 -0.076604
vn 0.000000 -0.064279 -0.076604
vn 0.000000 -0.050000 -0.086603
vn 0.000000 -0.050000 -0.086603
vn 0.000000 -0.034202 -0.093969
vn 0.000000 -0.034202 -0.093969
vn 0.000000 -0.017365 -0.098481
vn 0.000000 -0.017365 -0.098481
vn -0.000000 0.000000 -0.100000
vn -0.000000 0.000000 -0.100000
vn -0.000000 0.017365 -0.098481
vn -0.000000 0.017365 -0.098481
vn -0.000000 0.034202 -0.093969
vn -0.000000 0.034202 -0.093969
vn -0.000000 0.050000 -0.086603
vn -0.000000 0.050000 -0.086603
vn -0.000000 0.064279 -0.076604
vn -0.000000 0.064279 -0.076604
vn -0.000000 0.076604 -0.064279
vn -0.000000 0.076604 -0.064279
vn -0.000000 0.086603 -0.050000
vn -0.000000 0.086603 -0.050000
vn -0.000000 0.093969 -0.034202
vn -0.000000 0.093969 -0.034202
vn -0.000000 0.098481 -0.017365
vn -0.000000 0.098481 -0.017365
vn -0.000000 0.100000 -0.000000
vn -0.000000 0.100000 -0.000000
vn 0.000000 0.098481 0.017365
vn 0.000000 0.098481 0.017365
vn 0.000000 0.093969 0.034202
vn 0.000000 0.093969 0.034202
vn 0.000000 0.086603 0.050000
vn 0.000000 0.086603 0.050000
vn 0.000000 0.076604 0.064279
vn 0.000000 0.076604 0.064279
vn 0.000000 0.064279 0.076604
vn 0.000000 0.064279 0.076604
vn 0.000000 0.050000 0.086603
vn 0.000000 0.050000 0.086603
vn 0.000000 0.034202 0.093969
vn 0.000000 0.034202 0.093969
vn 0.000000 0.017365 0.098481
vn 0.000000 0.017365 0.098481
vn 0.000000 0.000000 0.100000
vn 0.000000 0.000000 0.100000
vn 0.000000 -0.017365 0.098481
vn 0.000000 -0.017365 0.098481
vn 0.000000 -0.034202 0.093969
vn 0.000000 -0.034202 0.093969
vn 0.000000 -0.050000 0.086603
vn 0.000000 -0.050000 0.086603
vn 0.000000 -0.064279 0.076604
vn 0.000000 -0.064279 0.076604
vn 0.000000 -0.076604 0.064279
vn 0.000000 -0.076604 0.064279
vn 0.000000 -0.086603 0.050000
vn 0.000000 -0.086603 0.050000
vn 0.000000 -0.093969 0.034202
vn 0.000000 -0.093969 0.034202
vn 0.100000 0.000000 0.000000
vn 0.100000 0.000000 0.000000
vn 0.100000 0.000000 0.000000
vn 0.100000 0.000000 0.000000
vn 0.100000 0.000000 0.000000
vn 0.100000 0.000000 0.000000
vn 0.100000 0.000000 0.000000
vn 0.100000 0.000000 0.000000
vn 0.100000 0.000000 0.000000
vn 0.100000 0.000000 0.000000
vn 0.100000 0.000000 0.000000
vn 0.100000 0.000000 0.000000
vn 0.100000 0.000000 0.000000
vn 0.100000 0.000000 0.000000
vn 0.100000 0.000000 0.000000
vn 0.100000 0.000000 0.000000
vn 0.100000 0.000000 0.000000
vn 0.100000 0.000000 0.000000
vn 0.100000 0.000000 0.000000
vn 0.100000 0.000000 0.000000
vn 0.100000 0.000000 0.000000
vn 0.100000 0.000000 0.000000
vn 0.100000 0.000000 0.000000
vn 0.100000 0.000000 0.000000
vn 0.100000 0.000000 0.000000
vn 0.100000 0.000000 0.000000
vn 0.100000 0.000000 0.000000
vn 0.100000 0.000000 0.000000
vn 0.100000 0.000000 0.000000
vn 0.100000 0.000000 0.000000
vn 0.100000 0.000000 0.000000
vn 0.100000 0.000000 0.000000
vn 0.100000 0.000000 0.000000
vn 0.100000 0.000000 0.000000
vn 0.100000 0.000000 0.000000
vn 0.100000 0.000000 0.000000
vn 0.000000 0.100000 0.000000
vn 0.000000 0.100000 0.000000
vn 0.000000 0.100000 0.000000
vn 0.000000 0.100000 0.000000
vn 0.100000 0.000000 0.000000
vn 0.100000 0.000000 0.000000
vn 0.100000 0.000000 0.000000
vn 0.100000 0.000000 0.000000
vn -0.100000 0.000000 0.000000
vn -0.100000 0.000000 0.000000
vn -0.100000 0.000000 0.000000
vn -0.100000 0.000000 0.000000
vn 0.000000 0.000000 0.100000
vn 0.000000 0.000000 0.100000
vn 0.000000 0.000000 0.100000
vn 0.000000 0.000000 0.100000
vn 0.000000 -0.100000 0.000000
vn 0.000000 -0.100000 0.000000
vn 0.000000 -0.100000 0.000000
vn 0.000000 -0.100000 0.000000
vn 0.000000 0.100000 0.000000
vn 0.000000 0.100000 0.000000
vn 0.000000 0.100000 0.000000
vn 0.000000 0.100000 0.000000
vn 0.000000 0.100000 0.000000
vn 0.000000 0.100000 0.000000
vn 0.000000 0.100000 0.000000
vn 0.000000 0.100000 0.000000
vn 0.000000 0.000000 -0.100000
vn 0.000000 0.000000 -0.100000
vn 0.000000 0.000000 -0.100000
vn 0.000000 0.000000 -0.100000
vn 0.000000 0.000000 -0.100000
vn 0.000000 0.000000 -0.100000
vn 0.000000 0.000000 -0.100000
vn 0.000000 0.000000 -0.100000
usemtl Steel_-_Satin
f 1/1/1 2/2/2 4/3/3
f 4/3/3 2/2/2 3/4/4
f 6/5/5 1/6/6 5/7/7
f 5/7/7 1/6/6 4/8/8
f 4/9/9 3/10/10 5/11/11
f 5/11/11 3/10/10 7/12/12
f 5/11/11 7/12/12 8/13/13
f 1/14/14 6/15/15 2/16/16
f 2/16/16 6/15/15 19/17/17
f 2/16/16 19/17/17 20/18/18
f 9/19/19 13/20/20 6/15/15
f 6/15/15 13/20/20 14/21/21
f 6/15/15 14/21/21 15/22/22
f 10/23/23 38/24/24 9/19/19
f 9/19/19 38/24/24 39/25/25
f 9/19/19 39/25/25 40/26/26
f 2/16/16 27/27/27 10/23/23
f 10/23/23 27/27/27 28/28/28
f 10/23/23 28/28/28 29/29/29
f 46/30/30 11/31/31 9/19/19
f 9/19/19 11/31/31 12/32/32
f 9/19/19 12/32/32 13/20/20
f 15/22/22 16/33/33 6/15/15
f 6/15/15 16/33/33 17/34/34
f 6/15/15 17/34/34 18/35/35
f 18/35/35 19/17/17 6/15/15
f 20/18/18 21/36/36 2/16/16
f 2/16/16 21/36/36 22/37/37
f 2/16/16 22/37/37 23/38/38
f 23/38/38 24/39/39 2/16/16
f 2/16/16 24/39/39 25/40/40
f 2/16/16 25/40/40 26/41/41
f 26/41/41 27/27/27 2/16/16
f 29/29/29 30/42/42 10/23/23
f 10/23/23 30/42/42 31/43/43
f 10/23/23 31/43/43 32/44/44
f 32/44/44 33/45/45 10/23/23
f 10/23/23 33/45/45 34/46/46
f 10/23/23 34/46/46 35/47/47
f 35/47/47 36/48/48 10/23/23
f 10/23/23 36/48/48 37/49/49
f 10/23/23 37/49/49 38/24/24
f 40/26/26 41/50/50 9/19/19
f 9/19/19 41/50/50 42/51/51
f 9/19/19 42/51/51 43/52/52
f 43/52/52 44/53/53 9/19/19
f 9/19/19 44/53/53 45/54/54
f 9/19/19 45/54/54 46/30/30
f 48/55/55 12/56/56 47/57/57
f 47/57/57 12/56/56 11/58/58
f 47/59/57 11/60/58 82/61/59
f 82/61/59 11/60/58 46/62/60
f 82/61/59 46/62/60 81/63/61
f 81/63/61 46/62/60 45/64/62
f 81/63/61 45/64/62 80/65/63
f 80/65/63 45/64/62 44/66/64
f 80/65/63 44/66/64 79/67/65
f 79/67/65 44/66/64 43/68/66
f 79/67/65 43/68/66 78/69/67
f 78/69/67 43/68/66 42/70/68
f 78/69/67 42/70/68 77/71/69
f 77/71/69 42/70/68 41/72/70
f 77/71/69 41/72/70 76/73/71
f 76/73/71 41/72/70 40/74/72
f 76/73/71 40/74/72 75/75/73
f 75/75/73 40/74/72 39/76/74
f 75/75/73 39/76/74 74/77/75
f 74/77/75 39/76/74 38/78/76
f 74/77/75 38/78/76 73/79/77
f 73/79/77 38/78/76 37/80/78
f 73/79/77 37/80/78 72/81/79
f 72/81/79 37/80/78 36/82/80
f 72/81/79 36/82/80 71/83/81
f 71/83/81 36/82/80 35/84/82
f 71/83/81 35/84/82 70/85/83
f 70/85/83 35/84/82 34/86/84
f 70/85/83 34/86/84 69/87/85
f 69/87/85 34/86/84 33/88/86
f 69/87/85 33/88/86 68/89/87
f 68/89/87 33/88/86 32/90/88
f 68/89/87 32/90/88 67/91/89
f 67/91/89 32/90/88 31/92/90
f 67/91/89 31/92/90 66/93/91
f 66/93/91 31/92/90 30/94/92
f 66/93/91 30/94/92 65/95/93
f 65/95/93 30/94/92 29/96/94
f 65/95/93 29/96/94 64/97/95
f 64/97/95 29/96/94 28/98/96
f 64/97/95 28/98/96 63/99/97
f 63/99/97 28/98/96 27/100/98
f 63/99/97 27/100/98 62/101/99
f 62/101/99 27/100/98 26/102/100
f 62/101/99 26/102/100 61/103/101
f 61/103/101 26/102/100 25/104/102
f 61/103/101 25/104/102 60/105/103
f 60/105/103 25/104/102 24/106/104
f 60/105/103 24/106/104 59/107/105
f 59/107/105 24/106/104 23/108/106
f 59/107/105 23/108/106 58/109/107
f 58/109/107 23/108/106 22/110/108
f 58/109/107 22/110/108 57/111/109
f 57/111/109 22/110/108 21/112/110
f 57/111/109 21/112/110 56/113/111
f 56/113/111 21/112/110 20/114/112
f 56/113/111 20/114/112 55/115/113
f 55/115/113 20/114/112 19/116/114
f 55/115/113 19/116/114 54/117/115
f 54/117/115 19/116/114 18/118/116
f 54/117/115 18/118/116 53/119/117
f 53/119/117 18/118/116 17/120/118
f 53/119/117 17/120/118 52/121/119
f 52/121/119 17/120/118 16/122/120
f 52/121/119 16/122/120 51/123/121
f 51/123/121 16/122/120 15/124/122
f 51/123/121 15/124/122 50/125/123
f 50/125/123 15/124/122 14/126/124
f 50/125/123 14/126/124 49/127/125
f 49/127/125 14/126/124 13/128/126
f 49/127/125 13/128/126 48/55/55
f 48/55/55 13/128/126 12/56/56
f 82/129/127 66/130/128 47/131/129
f 47/131/129 66/130/128 65/132/130
f 47/131/129 65/132/130 48/133/131
f 48/133/131 65/132/130 64/134/132
f 48/133/131 64/134/132 49/135/133
f 49/135/133 64/134/132 63/136/134
f 49/135/133 63/136/134 50/137/135
f 50/137/135 63/136/134 62/138/136
f 50/137/135 62/138/136 51/139/137
f 51/139/137 62/138/136 61/140/138
f 51/139/137 61/140/138 52/141/139
f 52/141/139 61/140/138 60/142/140
f 52/141/139 60/142/140 53/143/141
f 53/143/141 60/142/140 59/144/142
f 53/143/141 59/144/142 54/145/143
f 54/145/143 59/144/142 58/146/144
f 54/145/143 58/146/144 55/147/145
f 55/147/145 58/146/144 57/148/146
f 55/147/145 57/148/146 56/149/147
f 66/130/128 82/129/127 67/150/148
f 67/150/148 82/129/127 81/151/149
f 67/150/148 81/151/149 68/152/150
f 68/152/150 81/151/149 80/153/151
f 68/152/150 80/153/151 69/154/152
f 69/154/152 80/153/151 79/155/153
f 69/154/152 79/155/153 70/156/154
f 70/156/154 79/155/153 78/157/155
f 70/156/154 78/157/155 71/158/156
f 71/158/156 78/157/155 77/159/157
f 71/158/156 77/159/157 72/160/158
f 72/160/158 77/159/157 76/161/159
f 72/160/158 76/161/159 73/162/160
f 73/162/160 76/161/159 75/163/161
f 73/162/160 75/163/161 74/164/162
f 83/165/163 84/166/164 86/167/165
f 86/167/165 84/166/164 85/168/166
f 87/169/167 83/170/168 88/171/169
f 88/171/169 83/170/168 86/172/170
f 84/173/171 89/174/172 85/175/173
f 85/175/173 89/174/172 90/176/174
f 90/177/175 88/178/176 85/179/177
f 85/179/177 88/178/176 86/180/178
f 6/181/179 5/182/180 9/183/181
f 9/183/181 5/182/180 8/184/182
f 89/185/183 7/186/184 90/187/185
f 90/187/185 7/186/184 3/188/186
f 90/187/185 3/188/186 2/189/187
f 90/187/185 2/189/187 88/190/188
f 88/190/188 2/189/187 10/191/189
f 88/190/188 10/191/189 87/192/190
f 7/193/191 89/194/192 8/195/193
f 8/195/193 89/194/192 9/196/194
f 9/196/194 89/194/192 87/197/195
f 9/196/194 87/197/195 10/198/196
f 84/199/197 83/200/198 89/194/192
f 89/194/192 83/200/198 87/197/195
# 90 vertices
# 200 texture params
# 198 normals
# 176 facets

# 1 groups
