# WaveFront *.obj file (generated by Autodesk ATF)

mtllib Houses v8_Houses v8_Body5.mtl

g Body5

v 102.000000 10.851685 61.292218
v 105.000000 10.851685 64.292218
v 105.000000 -10.851685 64.292218
v 102.000000 -10.851685 61.292218
v 105.000000 10.851685 64.707783
v 105.000000 -10.851685 64.707783
v 100.000000 10.851685 61.292218
v 100.000000 10.851685 64.707783
v 100.000000 -10.851685 61.292218
v 100.000000 -10.851685 64.707783
vt 0.212132 1.627753 0.000000
vt -0.212132 1.627753 0.000000
vt 0.212132 -0.542584 0.000000
vt -0.212132 -0.542584 0.000000
vt -0.129222 1.085169 0.000000
vt -0.170778 1.085169 0.000000
vt -0.129222 -1.085169 0.000000
vt -0.170778 -1.085169 0.000000
vt 0.341556 0.500000 0.000000
vt 0.300000 0.500000 0.000000
vt 0.341556 0.000000 0.000000
vt 0.000000 0.200000 0.000000
vt 0.000000 0.000000 0.000000
vt 2.170337 0.200000 0.000000
vt 0.000000 0.200000 0.000000
vt 2.170337 0.000000 0.000000
vt 0.000000 0.000000 0.000000
vt 0.341556 0.000000 0.000000
vt 0.341556 0.200000 0.000000
vt -0.000000 0.000000 0.000000
vt 0.041556 0.500000 0.000000
vt -0.000000 0.500000 0.000000
vt -0.000000 0.000000 0.000000
vt 2.170337 0.000000 0.000000
vt -0.000000 0.500000 0.000000
vt 2.170337 0.500000 0.000000
vt 1.085169 0.170778 0.000000
vt -1.085169 0.170778 0.000000
vt 1.085169 -0.170778 0.000000
vt -1.085169 -0.170778 0.000000
vn 0.070711 0.000000 -0.070711
vn 0.070711 0.000000 -0.070711
vn 0.070711 0.000000 -0.070711
vn 0.070711 0.000000 -0.070711
vn 0.100000 0.000000 0.000000
vn 0.100000 0.000000 0.000000
vn 0.100000 0.000000 0.000000
vn 0.100000 0.000000 0.000000
vn 0.000000 0.100000 0.000000
vn 0.000000 0.100000 0.000000
vn 0.000000 0.100000 0.000000
vn 0.000000 0.100000 0.000000
vn 0.000000 0.100000 0.000000
vn 0.000000 0.000000 -0.100000
vn 0.000000 0.000000 -0.100000
vn 0.000000 0.000000 -0.100000
vn 0.000000 0.000000 -0.100000
vn 0.000000 -0.100000 0.000000
vn 0.000000 -0.100000 0.000000
vn 0.000000 -0.100000 0.000000
vn 0.000000 -0.100000 0.000000
vn 0.000000 -0.100000 0.000000
vn 0.000000 0.000000 0.100000
vn 0.000000 0.000000 0.100000
vn 0.000000 0.000000 0.100000
vn 0.000000 0.000000 0.100000
vn -0.100000 0.000000 0.000000
vn -0.100000 0.000000 0.000000
vn -0.100000 0.000000 0.000000
vn -0.100000 0.000000 0.000000
usemtl Steel_-_Satin
f 1/1/1 2/2/2 4/3/3
f 4/3/3 2/2/2 3/4/4
f 2/5/5 5/6/6 3/7/7
f 3/7/7 5/6/6 6/8/8
f 5/9/9 2/10/10 8/11/11
f 8/11/11 2/10/10 1/12/12
f 8/11/11 1/12/12 7/13/13
f 1/14/14 4/15/15 7/16/16
f 7/16/16 4/15/15 9/17/17
f 9/18/18 4/19/19 10/20/20
f 10/20/20 4/19/19 3/21/21
f 10/20/20 3/21/21 6/22/22
f 8/23/23 10/24/24 5/25/25
f 5/25/25 10/24/24 6/26/26
f 10/27/27 8/28/28 9/29/29
f 9/29/29 8/28/28 7/30/30
# 10 vertices
# 30 texture params
# 30 normals
# 16 facets

# 1 groups
